<svg id="Background_Simple" data-name="Background Simple" xmlns="http://www.w3.org/2000/svg" viewBox="0 0 500 500"><defs><style>.cls-1,.cls-4{fill:#92e3a9;}.cls-2,.cls-7{fill:#fff;}.cls-2{opacity:0.7;}.cls-3,.cls-8,.cls-9{fill:none;}.cls-3,.cls-4,.cls-6,.cls-7,.cls-8,.cls-9{stroke:#263238;}.cls-3{stroke-miterlimit:10;}.cls-4,.cls-6,.cls-7,.cls-8,.cls-9{stroke-linecap:round;stroke-linejoin:round;}.cls-5,.cls-6{fill:#263238;}.cls-9{stroke-width:4px;}</style></defs><path class="cls-1" d="M391.43,80.89c-91.65-63.44-222.59-31-305.83,31.51a167.32,167.32,0,0,0-27.69,26.1c-14.29,16.83-25.79,36.93-28.75,59.09-8.67,64.94,55.66,66.77,59.51,95.82S35.19,325,79.22,380.5c73.16,92.27,227.12,93,316.38,25.11A214,214,0,0,0,437.54,363C498.21,281.58,474.94,138.7,391.43,80.89Z"/><path class="cls-2" d="M391.43,80.89c-91.65-63.44-222.59-31-305.83,31.51a167.32,167.32,0,0,0-27.69,26.1c-14.29,16.83-25.79,36.93-28.75,59.09-8.67,64.94,55.66,66.77,59.51,95.82S35.19,325,79.22,380.5c73.16,92.27,227.12,93,316.38,25.11A214,214,0,0,0,437.54,363C498.21,281.58,474.94,138.7,391.43,80.89Z"/><line class="cls-3" x1="63.73" y1="178.38" x2="63.73" y2="184.66"/><line class="cls-3" x1="63.73" y1="192.29" x2="63.73" y2="198.56"/><line class="cls-3" x1="53.64" y1="188.47" x2="59.92" y2="188.47"/><line class="cls-3" x1="67.54" y1="188.47" x2="73.82" y2="188.47"/><line class="cls-3" x1="431.73" y1="254.38" x2="431.73" y2="260.66"/><line class="cls-3" x1="431.73" y1="268.29" x2="431.73" y2="274.56"/><line class="cls-3" x1="421.64" y1="264.47" x2="427.92" y2="264.47"/><line class="cls-3" x1="435.54" y1="264.47" x2="441.82" y2="264.47"/><line class="cls-3" x1="99.73" y1="260.38" x2="99.73" y2="266.66"/><line class="cls-3" x1="99.73" y1="274.29" x2="99.73" y2="280.56"/><line class="cls-3" x1="89.64" y1="270.47" x2="95.92" y2="270.47"/><line class="cls-3" x1="103.54" y1="270.47" x2="109.82" y2="270.47"/><line class="cls-3" x1="271.73" y1="57.38" x2="271.73" y2="63.66"/><line class="cls-3" x1="271.73" y1="71.29" x2="271.73" y2="77.56"/><line class="cls-3" x1="261.64" y1="67.47" x2="267.92" y2="67.47"/><line class="cls-3" x1="275.54" y1="67.47" x2="281.82" y2="67.47"/><circle class="cls-3" cx="399.54" cy="243.47" r="4"/><circle class="cls-3" cx="88.54" cy="338.47" r="4"/><circle class="cls-3" cx="256.54" cy="167.47" r="4"/><circle class="cls-3" cx="409.54" cy="376.47" r="4"/><circle class="cls-3" cx="121.54" cy="233.47" r="4"/><circle class="cls-3" cx="100.54" cy="113.47" r="4"/><circle class="cls-3" cx="356.54" cy="68.47" r="4"/><path class="cls-4" d="M270.13,421.12a242.14,242.14,0,0,0,22.21-11.62c1.57-1,3.09-1.94,4.62-2.79q5.19-3.21,10.21-6.65c4.86-3.69,8.52-7.09,8.52-7.09s1.33-97.55-10.67-126a152.21,152.21,0,0,0-30-46l-42-17.5-1.55-.54s-27.95,18-42.45,34.54-18.83,170.5-18.83,170.5,22,15.5,62,17.5C249,426.27,261,424.26,270.13,421.12Z"/><path class="cls-5" d="M303.81,289.42a.67.67,0,0,0-.06-.28.83.83,0,0,0-.15-.23.72.72,0,0,0-.51-.21v.72Z"/><path class="cls-5" d="M303.6,274.51a.72.72,0,0,0-.51-.21v1.44a.72.72,0,0,0,.51-1.23Z"/><path class="cls-5" d="M310.29,310.3a.72.72,0,1,0,.72.72A.72.72,0,0,0,310.29,310.3Z"/><path class="cls-5" d="M310.29,295.9a.72.72,0,1,0,.72.72A.72.72,0,0,0,310.29,295.9Z"/><path class="cls-5" d="M303.81,318.22a.67.67,0,0,0-.06-.28.83.83,0,0,0-.15-.23.72.72,0,0,0-.51-.21v.72Z"/><path class="cls-5" d="M303.6,303.31a.72.72,0,0,0-.51-.21v1.44a.72.72,0,0,0,.51-1.23Z"/><path class="cls-5" d="M303.09,289.42v.72a.72.72,0,0,0,.51-.21.61.61,0,0,0,.15-.23.64.64,0,0,0,.06-.28Z"/><path class="cls-5" d="M310.29,339.1a.72.72,0,1,0,.72.72A.72.72,0,0,0,310.29,339.1Z"/><path class="cls-5" d="M310.29,324.7a.72.72,0,1,0,.72.72A.72.72,0,0,0,310.29,324.7Z"/><path class="cls-5" d="M303.6,346.51a.72.72,0,0,0-.51-.21V347h.72A.72.72,0,0,0,303.6,346.51Z"/><path class="cls-5" d="M303.6,332.11a.72.72,0,0,0-.51-.21v1.44a.72.72,0,0,0,.51-1.23Z"/><path class="cls-5" d="M303.09,318.22v.72a.72.72,0,0,0,.72-.72Z"/><path class="cls-5" d="M311,368.62a.72.72,0,1,0-.72.72A.72.72,0,0,0,311,368.62Z"/><path class="cls-5" d="M310.29,353.5a.72.72,0,1,0,.72.72A.72.72,0,0,0,310.29,353.5Z"/><path class="cls-5" d="M303.81,375.82a.67.67,0,0,0-.06-.28.7.7,0,0,0-.15-.23.72.72,0,0,0-.51-.21v.72Z"/><path class="cls-5" d="M303.6,360.91a.72.72,0,0,0-.51-.21v1.44a.72.72,0,0,0,.51-1.23Z"/><path class="cls-5" d="M303.09,347v.72a.72.72,0,0,0,.51-.21.61.61,0,0,0,.15-.23.64.64,0,0,0,.06-.28Z"/><path class="cls-5" d="M309.57,383a.72.72,0,1,0,.72-.72A.72.72,0,0,0,309.57,383Z"/><path class="cls-5" d="M303.09,389.5v1.44a.72.72,0,1,0,0-1.44Z"/><path class="cls-5" d="M303.09,375.82v.72a.72.72,0,0,0,.72-.72Z"/><path class="cls-5" d="M275,231.82a.67.67,0,0,0-.06-.28.71.71,0,0,0-.66-.44v.72Z"/><path class="cls-5" d="M289.35,260.34a.72.72,0,0,0-1.32,0,.67.67,0,0,0-.06.28h1.44A.67.67,0,0,0,289.35,260.34Z"/><path class="cls-5" d="M288.69,245.5a.72.72,0,1,0,.72.72A.72.72,0,0,0,288.69,245.5Z"/><path class="cls-5" d="M282.21,253.42a.72.72,0,1,0-.72.72A.72.72,0,0,0,282.21,253.42Z"/><path class="cls-5" d="M296.61,253.42a.72.72,0,1,0-.72.72A.72.72,0,0,0,296.61,253.42Z"/><path class="cls-5" d="M281.49,238.3a.72.72,0,1,0,.72.72A.72.72,0,0,0,281.49,238.3Z"/><path class="cls-5" d="M274.29,259.9v.72H275a.67.67,0,0,0-.06-.28A.71.71,0,0,0,274.29,259.9Z"/><path class="cls-5" d="M275,246.22a.72.72,0,0,0-.72-.72v1.44A.72.72,0,0,0,275,246.22Z"/><path class="cls-5" d="M274.29,232.54a.71.71,0,0,0,.66-.44.64.64,0,0,0,.06-.28h-.72Z"/><path class="cls-5" d="M303.09,288.7a.71.71,0,0,0-.66.44.67.67,0,0,0-.06.28h.72Z"/><path class="cls-5" d="M289.41,289.42a.67.67,0,0,0-.06-.28.72.72,0,0,0-1.32,0,.67.67,0,0,0-.06.28Z"/><path class="cls-5" d="M302.37,275a.72.72,0,0,0,.72.72V274.3A.72.72,0,0,0,302.37,275Z"/><path class="cls-5" d="M288.69,274.3a.72.72,0,1,0,.72.72A.72.72,0,0,0,288.69,274.3Z"/><path class="cls-5" d="M281.49,282.94a.72.72,0,1,0-.72-.72A.72.72,0,0,0,281.49,282.94Z"/><path class="cls-5" d="M295.89,282.94a.72.72,0,1,0-.72-.72A.72.72,0,0,0,295.89,282.94Z"/><path class="cls-5" d="M281.49,268.54a.72.72,0,1,0-.72-.72A.72.72,0,0,0,281.49,268.54Z"/><path class="cls-5" d="M295.17,267.82a.72.72,0,1,0,.72-.72A.72.72,0,0,0,295.17,267.82Z"/><path class="cls-5" d="M275,289.42a.67.67,0,0,0-.06-.28.71.71,0,0,0-.66-.44v.72Z"/><path class="cls-5" d="M275,275a.72.72,0,0,0-.72-.72v1.44A.72.72,0,0,0,275,275Z"/><path class="cls-5" d="M288.69,261.34a.72.72,0,0,0,.72-.72H288A.72.72,0,0,0,288.69,261.34Z"/><path class="cls-5" d="M274.29,261.34a.72.72,0,0,0,.72-.72h-.72Z"/><path class="cls-5" d="M303.09,317.5a.71.71,0,0,0-.66.44.67.67,0,0,0-.06.28h.72Z"/><path class="cls-5" d="M289.35,317.94a.72.72,0,0,0-1.32,0,.67.67,0,0,0-.06.28h1.44A.67.67,0,0,0,289.35,317.94Z"/><path class="cls-5" d="M302.37,303.82a.72.72,0,0,0,.72.72V303.1A.72.72,0,0,0,302.37,303.82Z"/><path class="cls-5" d="M288.69,303.1a.72.72,0,1,0,.72.72A.72.72,0,0,0,288.69,303.1Z"/><path class="cls-5" d="M281.49,310.3a.72.72,0,1,0,.72.72A.72.72,0,0,0,281.49,310.3Z"/><circle class="cls-5" cx="295.89" cy="311.02" r="0.72"/><path class="cls-5" d="M281.49,295.9a.72.72,0,1,0,.72.72A.72.72,0,0,0,281.49,295.9Z"/><path class="cls-5" d="M295.89,295.9a.72.72,0,1,0,.72.72A.72.72,0,0,0,295.89,295.9Z"/><path class="cls-5" d="M275,318.22a.67.67,0,0,0-.06-.28.71.71,0,0,0-.66-.44v.72Z"/><path class="cls-5" d="M274.29,303.1v1.44a.72.72,0,0,0,0-1.44Z"/><path class="cls-5" d="M303.09,290.14v-.72h-.72a.64.64,0,0,0,.06.28A.71.71,0,0,0,303.09,290.14Z"/><path class="cls-5" d="M288,289.7a.71.71,0,0,0,1.32,0,.64.64,0,0,0,.06-.28H288A.64.64,0,0,0,288,289.7Z"/><path class="cls-5" d="M274.29,289.42v.72a.71.71,0,0,0,.66-.44.64.64,0,0,0,.06-.28Z"/><path class="cls-5" d="M303.09,346.3a.72.72,0,0,0-.72.72h.72Z"/><path class="cls-5" d="M288.69,346.3a.72.72,0,0,0-.72.72h1.44A.72.72,0,0,0,288.69,346.3Z"/><path class="cls-5" d="M302.37,332.62a.72.72,0,0,0,.72.72V331.9A.72.72,0,0,0,302.37,332.62Z"/><path class="cls-5" d="M288.69,331.9a.72.72,0,1,0,.72.72A.72.72,0,0,0,288.69,331.9Z"/><path class="cls-5" d="M281.49,339.1a.72.72,0,1,0,.72.72A.72.72,0,0,0,281.49,339.1Z"/><circle class="cls-5" cx="295.89" cy="339.82" r="0.72"/><path class="cls-5" d="M281.49,324.7a.72.72,0,1,0,.72.72A.72.72,0,0,0,281.49,324.7Z"/><path class="cls-5" d="M295.89,324.7a.72.72,0,1,0,.72.72A.72.72,0,0,0,295.89,324.7Z"/><path class="cls-5" d="M274.29,346.3V347H275A.72.72,0,0,0,274.29,346.3Z"/><path class="cls-5" d="M274.29,331.9v1.44a.72.72,0,1,0,0-1.44Z"/><path class="cls-5" d="M302.37,318.22a.72.72,0,0,0,.72.72v-.72Z"/><path class="cls-5" d="M288,318.22a.72.72,0,0,0,1.44,0Z"/><path class="cls-5" d="M274.29,318.22v.72a.72.72,0,0,0,.72-.72Z"/><path class="cls-5" d="M303.09,375.1a.71.71,0,0,0-.66.44.67.67,0,0,0-.06.28h.72Z"/><path class="cls-5" d="M288.69,375.1a.71.71,0,0,0-.66.44.67.67,0,0,0-.06.28h1.44a.67.67,0,0,0-.06-.28A.71.71,0,0,0,288.69,375.1Z"/><path class="cls-5" d="M302.37,361.42a.72.72,0,0,0,.72.72V360.7A.72.72,0,0,0,302.37,361.42Z"/><path class="cls-5" d="M288.69,360.7a.72.72,0,1,0,.72.72A.72.72,0,0,0,288.69,360.7Z"/><path class="cls-5" d="M282.21,368.62a.72.72,0,1,0-.72.72A.72.72,0,0,0,282.21,368.62Z"/><path class="cls-5" d="M295.89,367.9a.72.72,0,1,0,.72.72A.72.72,0,0,0,295.89,367.9Z"/><path class="cls-5" d="M281.49,353.5a.72.72,0,1,0,.72.72A.72.72,0,0,0,281.49,353.5Z"/><path class="cls-5" d="M295.89,353.5a.72.72,0,1,0,.72.72A.72.72,0,0,0,295.89,353.5Z"/><path class="cls-5" d="M275,375.82a.67.67,0,0,0-.06-.28.71.71,0,0,0-.66-.44v.72Z"/><path class="cls-5" d="M275,361.42a.72.72,0,0,0-.72-.72v1.44A.72.72,0,0,0,275,361.42Z"/><path class="cls-5" d="M302.37,347a.64.64,0,0,0,.06.28.71.71,0,0,0,.66.44V347Z"/><path class="cls-5" d="M288,347a.64.64,0,0,0,.06.28.71.71,0,0,0,1.32,0,.64.64,0,0,0,.06-.28Z"/><path class="cls-5" d="M274.29,347.74a.71.71,0,0,0,.66-.44A.64.64,0,0,0,275,347h-.72Z"/><path class="cls-5" d="M288.69,403.9a.72.72,0,0,0-.72.72h1.44A.72.72,0,0,0,288.69,403.9Z"/><path class="cls-5" d="M302.37,390.22a.72.72,0,0,0,.72.72V389.5A.72.72,0,0,0,302.37,390.22Z"/><path class="cls-5" d="M288.69,389.5a.72.72,0,1,0,.72.72A.72.72,0,0,0,288.69,389.5Z"/><path class="cls-5" d="M281.49,396.7a.72.72,0,1,0,.72.72A.72.72,0,0,0,281.49,396.7Z"/><path class="cls-5" d="M296.61,397.42a.72.72,0,1,0-.72.72A.72.72,0,0,0,296.61,397.42Z"/><path class="cls-5" d="M281.49,382.3a.72.72,0,1,0,.72.72A.72.72,0,0,0,281.49,382.3Z"/><path class="cls-5" d="M295.89,382.3a.72.72,0,1,0,.72.72A.72.72,0,0,0,295.89,382.3Z"/><path class="cls-5" d="M275,404.62a.72.72,0,0,0-.72-.72v.72Z"/><path class="cls-5" d="M274.29,389.5v1.44a.72.72,0,1,0,0-1.44Z"/><path class="cls-5" d="M303.09,376.54v-.72h-.72A.72.72,0,0,0,303.09,376.54Z"/><path class="cls-5" d="M288.69,376.54a.72.72,0,0,0,.72-.72H288A.72.72,0,0,0,288.69,376.54Z"/><path class="cls-5" d="M274.29,375.82v.72a.72.72,0,0,0,.72-.72Z"/><path class="cls-5" d="M280.77,411.82a.72.72,0,1,0,.72-.72A.72.72,0,0,0,280.77,411.82Z"/><path class="cls-5" d="M274.29,418.3v1.05l.71-.29s0,0,0,0A.72.72,0,0,0,274.29,418.3Z"/><path class="cls-5" d="M288.69,405.34a.72.72,0,0,0,.72-.72H288A.72.72,0,0,0,288.69,405.34Z"/><path class="cls-5" d="M274.29,405.34a.72.72,0,0,0,.72-.72h-.72Z"/><path class="cls-5" d="M274.29,231.82v-.72a.67.67,0,0,0-.28.06.71.71,0,0,0-.38.38.67.67,0,0,0-.06.28Z"/><path class="cls-5" d="M260.61,231.82a.67.67,0,0,0-.06-.28.72.72,0,0,0-1.32,0,.67.67,0,0,0-.06.28Z"/><path class="cls-5" d="M259.89,216.7a.72.72,0,1,0,.72.72A.72.72,0,0,0,259.89,216.7Z"/><path class="cls-5" d="M253.41,224.62a.72.72,0,1,0-.72.72A.72.72,0,0,0,253.41,224.62Z"/><circle class="cls-5" cx="267.09" cy="224.62" r="0.72"/><path class="cls-5" d="M246.21,231.82a.67.67,0,0,0-.06-.28.71.71,0,0,0-.66-.44v.72Z"/><path class="cls-5" d="M246.21,217.42a.72.72,0,0,0-.72-.72v1.44A.72.72,0,0,0,246.21,217.42Z"/><path class="cls-5" d="M274.29,259.9a.67.67,0,0,0-.28.06.71.71,0,0,0-.38.38.67.67,0,0,0-.06.28h.72Z"/><path class="cls-5" d="M260.61,260.62a.67.67,0,0,0-.06-.28.72.72,0,0,0-1.32,0,.67.67,0,0,0-.06.28Z"/><path class="cls-5" d="M274,246.89a.87.87,0,0,0,.28.05V245.5a.67.67,0,0,0-.28.06.71.71,0,0,0-.44.66A.73.73,0,0,0,274,246.89Z"/><path class="cls-5" d="M259.89,246.94a.72.72,0,1,0-.72-.72A.72.72,0,0,0,259.89,246.94Z"/><path class="cls-5" d="M252.69,254.14a.72.72,0,1,0-.72-.72A.72.72,0,0,0,252.69,254.14Z"/><path class="cls-5" d="M267.09,254.14a.72.72,0,1,0-.72-.72A.72.72,0,0,0,267.09,254.14Z"/><path class="cls-5" d="M252.69,239.74A.72.72,0,1,0,252,239,.72.72,0,0,0,252.69,239.74Z"/><path class="cls-5" d="M267.09,239.74a.72.72,0,1,0-.72-.72A.72.72,0,0,0,267.09,239.74Z"/><path class="cls-5" d="M246.21,260.62a.67.67,0,0,0-.06-.28.71.71,0,0,0-.66-.44v.72Z"/><path class="cls-5" d="M246.21,246.22a.72.72,0,0,0-.72-.72v1.44A.72.72,0,0,0,246.21,246.22Z"/><path class="cls-5" d="M273.57,231.82a.64.64,0,0,0,.06.28.76.76,0,0,0,.38.39.87.87,0,0,0,.28,0v-.72Z"/><path class="cls-5" d="M259.23,232.1a.72.72,0,0,0,1.32,0,.64.64,0,0,0,.06-.28h-1.44A.64.64,0,0,0,259.23,232.1Z"/><path class="cls-5" d="M245.49,232.54a.71.71,0,0,0,.66-.44.64.64,0,0,0,.06-.28h-.72Z"/><path class="cls-5" d="M274.29,288.7a.67.67,0,0,0-.28.06.71.71,0,0,0-.38.38.67.67,0,0,0-.06.28h.72Z"/><path class="cls-5" d="M260.55,289.14a.72.72,0,0,0-1.32,0,.67.67,0,0,0-.06.28h1.44A.67.67,0,0,0,260.55,289.14Z"/><path class="cls-5" d="M274,275.69a.87.87,0,0,0,.28.05V274.3a.67.67,0,0,0-.28.06.71.71,0,0,0-.44.66A.73.73,0,0,0,274,275.69Z"/><path class="cls-5" d="M259.89,274.3a.72.72,0,1,0,.72.72A.72.72,0,0,0,259.89,274.3Z"/><path class="cls-5" d="M252.69,282.94a.72.72,0,1,0-.72-.72A.72.72,0,0,0,252.69,282.94Z"/><path class="cls-5" d="M267.09,282.94a.72.72,0,1,0-.72-.72A.72.72,0,0,0,267.09,282.94Z"/><path class="cls-5" d="M252,267.82a.72.72,0,1,0,.72-.72A.72.72,0,0,0,252,267.82Z"/><path class="cls-5" d="M267.09,268.54a.72.72,0,1,0-.72-.72A.72.72,0,0,0,267.09,268.54Z"/><path class="cls-5" d="M246.21,289.42a.67.67,0,0,0-.06-.28.71.71,0,0,0-.66-.44v.72Z"/><path class="cls-5" d="M246.21,275a.72.72,0,0,0-.72-.72v1.44A.72.72,0,0,0,246.21,275Z"/><path class="cls-5" d="M273.57,260.62a.73.73,0,0,0,.44.67.87.87,0,0,0,.28,0v-.72Z"/><path class="cls-5" d="M259.89,261.34a.72.72,0,0,0,.72-.72h-1.44A.72.72,0,0,0,259.89,261.34Z"/><path class="cls-5" d="M245.49,261.34a.72.72,0,0,0,.72-.72h-.72Z"/><path class="cls-5" d="M274.29,317.5a.67.67,0,0,0-.28.06.71.71,0,0,0-.38.38.67.67,0,0,0-.06.28h.72Z"/><path class="cls-5" d="M260.55,317.94a.72.72,0,0,0-1.32,0,.67.67,0,0,0-.06.28h1.44A.67.67,0,0,0,260.55,317.94Z"/><path class="cls-5" d="M274,303.16a.71.71,0,0,0-.44.66.73.73,0,0,0,.44.67.87.87,0,0,0,.28.05V303.1A.67.67,0,0,0,274,303.16Z"/><path class="cls-5" d="M259.89,304.54a.72.72,0,1,0-.72-.72A.72.72,0,0,0,259.89,304.54Z"/><path class="cls-5" d="M252.69,311.74A.72.72,0,1,0,252,311,.72.72,0,0,0,252.69,311.74Z"/><circle class="cls-5" cx="267.09" cy="311.02" r="0.72"/><path class="cls-5" d="M252.69,297.34a.72.72,0,1,0-.72-.72A.72.72,0,0,0,252.69,297.34Z"/><path class="cls-5" d="M266.37,296.62a.72.72,0,1,0,.72-.72A.72.72,0,0,0,266.37,296.62Z"/><path class="cls-5" d="M246.21,318.22a.67.67,0,0,0-.06-.28.71.71,0,0,0-.66-.44v.72Z"/><path class="cls-5" d="M246.21,303.82a.72.72,0,0,0-.72-.72v1.44A.72.72,0,0,0,246.21,303.82Z"/><path class="cls-5" d="M273.57,289.42a.64.64,0,0,0,.06.28.76.76,0,0,0,.38.39.87.87,0,0,0,.28.05v-.72Z"/><path class="cls-5" d="M259.89,290.14a.71.71,0,0,0,.66-.44.64.64,0,0,0,.06-.28h-1.44a.64.64,0,0,0,.06.28A.71.71,0,0,0,259.89,290.14Z"/><path class="cls-5" d="M245.49,290.14a.71.71,0,0,0,.66-.44.64.64,0,0,0,.06-.28h-.72Z"/><path class="cls-5" d="M274.29,346.3a.67.67,0,0,0-.28.06.71.71,0,0,0-.44.66h.72Z"/><path class="cls-5" d="M259.89,346.3a.72.72,0,0,0-.72.72h1.44A.72.72,0,0,0,259.89,346.3Z"/><path class="cls-5" d="M274,332a.71.71,0,0,0-.44.66.73.73,0,0,0,.44.67.87.87,0,0,0,.28,0V331.9A.67.67,0,0,0,274,332Z"/><path class="cls-5" d="M259.89,331.9a.72.72,0,1,0,.72.72A.72.72,0,0,0,259.89,331.9Z"/><path class="cls-5" d="M252.69,339.1a.72.72,0,1,0,.72.72A.72.72,0,0,0,252.69,339.1Z"/><circle class="cls-5" cx="267.09" cy="339.82" r="0.72"/><path class="cls-5" d="M252.69,324.7a.72.72,0,1,0,.72.72A.72.72,0,0,0,252.69,324.7Z"/><path class="cls-5" d="M267.09,324.7a.72.72,0,1,0,.72.72A.72.72,0,0,0,267.09,324.7Z"/><path class="cls-5" d="M246.21,347a.72.72,0,0,0-.72-.72V347Z"/><path class="cls-5" d="M245.49,331.9v1.44a.72.72,0,0,0,0-1.44Z"/><path class="cls-5" d="M273.57,318.22a.73.73,0,0,0,.44.67.87.87,0,0,0,.28.05v-.72Z"/><path class="cls-5" d="M259.17,318.22a.72.72,0,0,0,1.44,0Z"/><path class="cls-5" d="M245.49,318.22v.72a.72.72,0,0,0,.72-.72Z"/><path class="cls-5" d="M274.29,375.1a.67.67,0,0,0-.28.06.71.71,0,0,0-.38.38.67.67,0,0,0-.06.28h.72Z"/><path class="cls-5" d="M260.55,375.54a.72.72,0,0,0-1.32,0,.67.67,0,0,0-.06.28h1.44A.67.67,0,0,0,260.55,375.54Z"/><path class="cls-5" d="M274,362.09a.87.87,0,0,0,.28.05V360.7a.67.67,0,0,0-.28.06.71.71,0,0,0-.44.66A.73.73,0,0,0,274,362.09Z"/><path class="cls-5" d="M259.89,360.7a.72.72,0,1,0,.72.72A.72.72,0,0,0,259.89,360.7Z"/><path class="cls-5" d="M252.69,367.9a.72.72,0,1,0,.72.72A.72.72,0,0,0,252.69,367.9Z"/><path class="cls-5" d="M267.09,367.9a.72.72,0,1,0,.72.72A.72.72,0,0,0,267.09,367.9Z"/><path class="cls-5" d="M252.69,353.5a.72.72,0,1,0,.72.72A.72.72,0,0,0,252.69,353.5Z"/><path class="cls-5" d="M267.09,353.5a.72.72,0,1,0,.72.72A.72.72,0,0,0,267.09,353.5Z"/><path class="cls-5" d="M246.21,375.82a.67.67,0,0,0-.06-.28.71.71,0,0,0-.66-.44v.72Z"/><path class="cls-5" d="M245.49,360.7v1.44a.72.72,0,0,0,0-1.44Z"/><path class="cls-5" d="M273.57,347a.64.64,0,0,0,.06.28.71.71,0,0,0,.38.38.67.67,0,0,0,.28.06V347Z"/><path class="cls-5" d="M259.17,347a.64.64,0,0,0,.06.28.72.72,0,0,0,1.32,0,.64.64,0,0,0,.06-.28Z"/><path class="cls-5" d="M245.49,347v.72a.71.71,0,0,0,.66-.44.64.64,0,0,0,.06-.28Z"/><path class="cls-5" d="M274.29,403.9a.67.67,0,0,0-.28.06.71.71,0,0,0-.44.66h.72Z"/><path class="cls-5" d="M259.89,403.9a.72.72,0,0,0-.72.72h1.44A.72.72,0,0,0,259.89,403.9Z"/><path class="cls-5" d="M274,389.56a.71.71,0,0,0-.44.66.73.73,0,0,0,.44.67.87.87,0,0,0,.28.05V389.5A.67.67,0,0,0,274,389.56Z"/><path class="cls-5" d="M259.89,389.5a.72.72,0,1,0,.72.72A.72.72,0,0,0,259.89,389.5Z"/><path class="cls-5" d="M252.69,396.7a.72.72,0,1,0,.72.72A.72.72,0,0,0,252.69,396.7Z"/><path class="cls-5" d="M267.09,396.7a.72.72,0,1,0,.72.72A.72.72,0,0,0,267.09,396.7Z"/><path class="cls-5" d="M252.69,382.3a.72.72,0,1,0,.72.72A.72.72,0,0,0,252.69,382.3Z"/><path class="cls-5" d="M267.09,382.3a.72.72,0,1,0,.72.72A.72.72,0,0,0,267.09,382.3Z"/><path class="cls-5" d="M246.21,404.62a.72.72,0,0,0-.72-.72v.72Z"/><path class="cls-5" d="M245.49,389.5v1.44a.72.72,0,0,0,0-1.44Z"/><path class="cls-5" d="M273.57,375.82a.7.7,0,0,0,.44.66.67.67,0,0,0,.28.06v-.72Z"/><path class="cls-5" d="M259.17,375.82a.72.72,0,1,0,1.44,0Z"/><path class="cls-5" d="M245.49,375.82v.72a.72.72,0,0,0,.72-.72Z"/><path class="cls-5" d="M274,418.36a.71.71,0,0,0-.44.66.7.7,0,0,0,.23.52l.49-.19V418.3A.67.67,0,0,0,274,418.36Z"/><path class="cls-5" d="M259.89,418.3a.72.72,0,1,0,.72.72A.72.72,0,0,0,259.89,418.3Z"/><path class="cls-5" d="M252,411.82a.72.72,0,1,0,.72-.72A.72.72,0,0,0,252,411.82Z"/><path class="cls-5" d="M266.37,411.82a.72.72,0,1,0,.72-.72A.72.72,0,0,0,266.37,411.82Z"/><path class="cls-5" d="M246.21,419a.72.72,0,0,0-.72-.72v1.44A.72.72,0,0,0,246.21,419Z"/><path class="cls-5" d="M274.29,404.62h-.72a.71.71,0,0,0,.44.66.67.67,0,0,0,.28.06Z"/><path class="cls-5" d="M259.17,404.62a.72.72,0,1,0,1.44,0Z"/><path class="cls-5" d="M245.49,404.62v.72a.72.72,0,0,0,.72-.72Z"/><path class="cls-5" d="M231.25,203h.56s0,0,0,0l-.33-.12Z"/><path class="cls-5" d="M245.49,231.1a.67.67,0,0,0-.28.06.71.71,0,0,0-.38.38.67.67,0,0,0-.06.28h.72Z"/><path class="cls-5" d="M231.09,231.1a.71.71,0,0,0-.66.44.67.67,0,0,0-.06.28h1.44a.67.67,0,0,0-.06-.28A.71.71,0,0,0,231.09,231.1Z"/><path class="cls-5" d="M245.21,218.09a.87.87,0,0,0,.28,0V216.7a.67.67,0,0,0-.28.06.71.71,0,0,0-.44.66A.73.73,0,0,0,245.21,218.09Z"/><path class="cls-5" d="M231.09,216.7a.72.72,0,1,0,.72.72A.72.72,0,0,0,231.09,216.7Z"/><path class="cls-5" d="M223.89,225.34a.72.72,0,1,0-.72-.72A.72.72,0,0,0,223.89,225.34Z"/><path class="cls-5" d="M238.29,223.9a.72.72,0,1,0,.72.72A.72.72,0,0,0,238.29,223.9Z"/><path class="cls-5" d="M223.89,210.94a.72.72,0,1,0-.72-.72A.72.72,0,0,0,223.89,210.94Z"/><path class="cls-5" d="M238.29,209.5a.72.72,0,1,0,.72.72A.72.72,0,0,0,238.29,209.5Z"/><path class="cls-5" d="M217.41,231.82a.67.67,0,0,0-.06-.28.83.83,0,0,0-.15-.23.72.72,0,0,0-.51-.21v.72Z"/><path class="cls-5" d="M217.2,216.91a.72.72,0,0,0-.51-.21v1.44a.72.72,0,0,0,.51-1.23Z"/><path class="cls-5" d="M230.55,203.48a.69.69,0,0,0,.54.26.72.72,0,0,0,.72-.72h-.56Z"/><path class="cls-5" d="M245.49,260.62v-.72a.67.67,0,0,0-.28.06.71.71,0,0,0-.38.38.67.67,0,0,0-.06.28Z"/><path class="cls-5" d="M231.09,259.9a.71.71,0,0,0-.66.44.67.67,0,0,0-.06.28h1.44a.67.67,0,0,0-.06-.28A.71.71,0,0,0,231.09,259.9Z"/><path class="cls-5" d="M245.21,246.89a.87.87,0,0,0,.28.05V245.5a.67.67,0,0,0-.28.06.71.71,0,0,0-.44.66A.73.73,0,0,0,245.21,246.89Z"/><path class="cls-5" d="M231.09,246.94a.72.72,0,1,0-.72-.72A.72.72,0,0,0,231.09,246.94Z"/><path class="cls-5" d="M223.89,254.14a.72.72,0,1,0-.72-.72A.72.72,0,0,0,223.89,254.14Z"/><path class="cls-5" d="M238.29,254.14a.72.72,0,1,0-.72-.72A.72.72,0,0,0,238.29,254.14Z"/><path class="cls-5" d="M223.89,239.74a.72.72,0,1,0-.72-.72A.72.72,0,0,0,223.89,239.74Z"/><path class="cls-5" d="M238.29,239.74a.72.72,0,1,0-.72-.72A.72.72,0,0,0,238.29,239.74Z"/><path class="cls-5" d="M217.41,260.62a.67.67,0,0,0-.06-.28.83.83,0,0,0-.15-.23.72.72,0,0,0-.51-.21v.72Z"/><path class="cls-5" d="M217.2,246.73a.72.72,0,0,0-.51-1.23v1.44A.72.72,0,0,0,217.2,246.73Z"/><path class="cls-5" d="M245.21,232.49a.87.87,0,0,0,.28,0v-.72h-.72a.64.64,0,0,0,.06.28A.76.76,0,0,0,245.21,232.49Z"/><path class="cls-5" d="M230.43,232.1a.71.71,0,0,0,1.32,0,.64.64,0,0,0,.06-.28h-1.44A.64.64,0,0,0,230.43,232.1Z"/><path class="cls-5" d="M216.69,231.82v.72a.72.72,0,0,0,.51-.21.61.61,0,0,0,.15-.23.64.64,0,0,0,.06-.28Z"/><path class="cls-5" d="M245.49,289.42v-.72a.67.67,0,0,0-.28.06.71.71,0,0,0-.38.38.67.67,0,0,0-.06.28Z"/><path class="cls-5" d="M231.09,288.7a.71.71,0,0,0-.66.44.67.67,0,0,0-.06.28h1.44a.67.67,0,0,0-.06-.28A.71.71,0,0,0,231.09,288.7Z"/><path class="cls-5" d="M245.21,275.69a.87.87,0,0,0,.28.05V274.3a.67.67,0,0,0-.28.06.71.71,0,0,0-.44.66A.73.73,0,0,0,245.21,275.69Z"/><path class="cls-5" d="M231.09,274.3a.72.72,0,1,0,.72.72A.72.72,0,0,0,231.09,274.3Z"/><path class="cls-5" d="M223.89,282.94a.72.72,0,1,0-.72-.72A.72.72,0,0,0,223.89,282.94Z"/><path class="cls-5" d="M238.29,282.94a.72.72,0,1,0-.72-.72A.72.72,0,0,0,238.29,282.94Z"/><path class="cls-5" d="M223.89,268.54a.72.72,0,1,0-.72-.72A.72.72,0,0,0,223.89,268.54Z"/><path class="cls-5" d="M238.29,268.54a.72.72,0,1,0-.72-.72A.72.72,0,0,0,238.29,268.54Z"/><path class="cls-5" d="M217.41,289.42a.67.67,0,0,0-.06-.28.83.83,0,0,0-.15-.23.72.72,0,0,0-.51-.21v.72Z"/><path class="cls-5" d="M217.2,274.51a.72.72,0,0,0-.51-.21v1.44a.72.72,0,0,0,.51-1.23Z"/><path class="cls-5" d="M244.77,260.62a.73.73,0,0,0,.44.67.87.87,0,0,0,.28,0v-.72Z"/><path class="cls-5" d="M231.09,261.34a.72.72,0,0,0,.72-.72h-1.44A.72.72,0,0,0,231.09,261.34Z"/><path class="cls-5" d="M216.69,260.62v.72a.72.72,0,0,0,.72-.72Z"/><path class="cls-5" d="M245.49,317.5a.67.67,0,0,0-.28.06.71.71,0,0,0-.38.38.67.67,0,0,0-.06.28h.72Z"/><path class="cls-5" d="M231.75,317.94a.72.72,0,0,0-1.32,0,.67.67,0,0,0-.06.28h1.44A.67.67,0,0,0,231.75,317.94Z"/><path class="cls-5" d="M245.21,304.49a.87.87,0,0,0,.28.05V303.1a.67.67,0,0,0-.28.06.71.71,0,0,0-.44.66A.73.73,0,0,0,245.21,304.49Z"/><path class="cls-5" d="M231.09,304.54a.72.72,0,1,0-.72-.72A.72.72,0,0,0,231.09,304.54Z"/><path class="cls-5" d="M223.89,310.3a.72.72,0,1,0,.72.72A.72.72,0,0,0,223.89,310.3Z"/><path class="cls-5" d="M238.29,311.74a.72.72,0,1,0-.72-.72A.72.72,0,0,0,238.29,311.74Z"/><path class="cls-5" d="M223.89,295.9a.72.72,0,1,0,.72.72A.72.72,0,0,0,223.89,295.9Z"/><path class="cls-5" d="M238.29,297.34a.72.72,0,1,0-.72-.72A.72.72,0,0,0,238.29,297.34Z"/><path class="cls-5" d="M217.41,318.22a.67.67,0,0,0-.06-.28.83.83,0,0,0-.15-.23.72.72,0,0,0-.51-.21v.72Z"/><path class="cls-5" d="M217.2,303.31a.72.72,0,0,0-.51-.21v1.44a.72.72,0,0,0,.51-1.23Z"/><path class="cls-5" d="M244.77,289.42a.64.64,0,0,0,.06.28.76.76,0,0,0,.38.39.87.87,0,0,0,.28.05v-.72Z"/><path class="cls-5" d="M230.43,289.7a.72.72,0,0,0,1.32,0,.64.64,0,0,0,.06-.28h-1.44A.64.64,0,0,0,230.43,289.7Z"/><path class="cls-5" d="M216.69,289.42v.72a.72.72,0,0,0,.51-.21.61.61,0,0,0,.15-.23.64.64,0,0,0,.06-.28Z"/><path class="cls-5" d="M245.49,346.3a.67.67,0,0,0-.28.06.71.71,0,0,0-.44.66h.72Z"/><path class="cls-5" d="M231.09,346.3a.72.72,0,0,0-.72.72h1.44A.72.72,0,0,0,231.09,346.3Z"/><path class="cls-5" d="M245.21,332a.71.71,0,0,0-.44.66.73.73,0,0,0,.44.67.87.87,0,0,0,.28,0V331.9A.67.67,0,0,0,245.21,332Z"/><path class="cls-5" d="M231.09,331.9a.72.72,0,1,0,.72.72A.72.72,0,0,0,231.09,331.9Z"/><path class="cls-5" d="M223.89,339.1a.72.72,0,1,0,.72.72A.72.72,0,0,0,223.89,339.1Z"/><path class="cls-5" d="M238.29,339.1a.72.72,0,1,0,.72.72A.72.72,0,0,0,238.29,339.1Z"/><path class="cls-5" d="M223.89,324.7a.72.72,0,1,0,.72.72A.72.72,0,0,0,223.89,324.7Z"/><path class="cls-5" d="M238.29,324.7a.72.72,0,1,0,.72.72A.72.72,0,0,0,238.29,324.7Z"/><path class="cls-5" d="M217.41,347a.72.72,0,0,0-.72-.72V347Z"/><path class="cls-5" d="M217.2,332.11a.72.72,0,0,0-.51-.21v1.44a.72.72,0,0,0,.51-1.23Z"/><path class="cls-5" d="M244.77,318.22a.73.73,0,0,0,.44.67.87.87,0,0,0,.28.05v-.72Z"/><path class="cls-5" d="M230.37,318.22a.72.72,0,1,0,1.44,0Z"/><path class="cls-5" d="M216.69,318.22v.72a.72.72,0,0,0,.72-.72Z"/><path class="cls-5" d="M245.49,375.1a.67.67,0,0,0-.28.06.71.71,0,0,0-.38.38.67.67,0,0,0-.06.28h.72Z"/><path class="cls-5" d="M231.75,375.54a.72.72,0,0,0-1.32,0,.67.67,0,0,0-.06.28h1.44A.67.67,0,0,0,231.75,375.54Z"/><path class="cls-5" d="M245.21,360.76a.71.71,0,0,0-.44.66.73.73,0,0,0,.44.67.87.87,0,0,0,.28.05V360.7A.67.67,0,0,0,245.21,360.76Z"/><path class="cls-5" d="M231.09,360.7a.72.72,0,1,0,.72.72A.72.72,0,0,0,231.09,360.7Z"/><path class="cls-5" d="M223.89,367.9a.72.72,0,1,0,.72.72A.72.72,0,0,0,223.89,367.9Z"/><path class="cls-5" d="M238.29,367.9a.72.72,0,1,0,.72.72A.72.72,0,0,0,238.29,367.9Z"/><path class="cls-5" d="M223.89,353.5a.72.72,0,1,0,.72.72A.72.72,0,0,0,223.89,353.5Z"/><path class="cls-5" d="M238.29,353.5a.72.72,0,1,0,.72.72A.72.72,0,0,0,238.29,353.5Z"/><path class="cls-5" d="M217.41,375.82a.67.67,0,0,0-.06-.28.7.7,0,0,0-.15-.23.72.72,0,0,0-.51-.21v.72Z"/><path class="cls-5" d="M217.2,360.91a.72.72,0,0,0-.51-.21v1.44a.72.72,0,0,0,.51-1.23Z"/><path class="cls-5" d="M244.77,347a.64.64,0,0,0,.06.28.71.71,0,0,0,.38.38.67.67,0,0,0,.28.06V347Z"/><path class="cls-5" d="M230.37,347a.64.64,0,0,0,.06.28.71.71,0,0,0,1.32,0,.64.64,0,0,0,.06-.28Z"/><path class="cls-5" d="M216.69,347v.72a.72.72,0,0,0,.51-.21.61.61,0,0,0,.15-.23.64.64,0,0,0,.06-.28Z"/><path class="cls-5" d="M245.49,403.9a.67.67,0,0,0-.28.06.71.71,0,0,0-.44.66h.72Z"/><path class="cls-5" d="M231.09,403.9a.72.72,0,0,0-.72.72h1.44A.72.72,0,0,0,231.09,403.9Z"/><path class="cls-5" d="M245.21,389.56a.71.71,0,0,0-.44.66.73.73,0,0,0,.44.67.87.87,0,0,0,.28.05V389.5A.67.67,0,0,0,245.21,389.56Z"/><path class="cls-5" d="M231.09,389.5a.72.72,0,1,0,.72.72A.72.72,0,0,0,231.09,389.5Z"/><path class="cls-5" d="M223.89,396.7a.72.72,0,1,0,.72.72A.72.72,0,0,0,223.89,396.7Z"/><path class="cls-5" d="M238.29,396.7a.72.72,0,1,0,.72.72A.72.72,0,0,0,238.29,396.7Z"/><path class="cls-5" d="M223.89,382.3a.72.72,0,1,0,.72.72A.72.72,0,0,0,223.89,382.3Z"/><path class="cls-5" d="M238.29,382.3a.72.72,0,1,0,.72.72A.72.72,0,0,0,238.29,382.3Z"/><path class="cls-5" d="M217.41,404.62a.72.72,0,0,0-.72-.72v.72Z"/><path class="cls-5" d="M217.2,389.71a.72.72,0,0,0-.51-.21v1.44a.72.72,0,0,0,.51-1.23Z"/><path class="cls-5" d="M244.77,375.82a.7.7,0,0,0,.44.66.67.67,0,0,0,.28.06v-.72Z"/><path class="cls-5" d="M230.37,375.82a.72.72,0,0,0,1.44,0Z"/><path class="cls-5" d="M216.69,375.82v.72a.72.72,0,0,0,.72-.72Z"/><path class="cls-5" d="M245.49,418.3a.67.67,0,0,0-.28.06.71.71,0,0,0-.44.66.7.7,0,0,0,.44.66.67.67,0,0,0,.28.06Z"/><path class="cls-5" d="M231.09,418.3a.72.72,0,1,0,.72.72A.72.72,0,0,0,231.09,418.3Z"/><path class="cls-5" d="M238,425.58h.65a.74.74,0,0,0-.33-.09A.69.69,0,0,0,238,425.58Z"/><path class="cls-5" d="M223.17,411.82a.72.72,0,1,0,.72-.72A.72.72,0,0,0,223.17,411.82Z"/><path class="cls-5" d="M238.29,411.1a.72.72,0,1,0,.72.72A.72.72,0,0,0,238.29,411.1Z"/><path class="cls-5" d="M216.69,418.3v1.44a.72.72,0,1,0,0-1.44Z"/><path class="cls-5" d="M244.77,404.62a.71.71,0,0,0,.44.66.67.67,0,0,0,.28.06v-.72Z"/><path class="cls-5" d="M230.37,404.62a.72.72,0,1,0,1.44,0Z"/><path class="cls-5" d="M216.69,404.62v.72a.72.72,0,0,0,.72-.72Z"/><path class="cls-5" d="M216.69,231.82v-.72a.71.71,0,0,0-.66.44.67.67,0,0,0-.06.28Z"/><path class="cls-5" d="M203,231.82a.67.67,0,0,0-.06-.28.72.72,0,0,0-1.32,0,.67.67,0,0,0-.06.28Z"/><path class="cls-5" d="M216,217.42a.72.72,0,0,0,.72.72V216.7A.72.72,0,0,0,216,217.42Z"/><path class="cls-5" d="M210.21,224.62a.72.72,0,1,0-.72.72A.72.72,0,0,0,210.21,224.62Z"/><path class="cls-5" d="M216.69,260.62v-.72a.71.71,0,0,0-.66.44.67.67,0,0,0-.06.28Z"/><path class="cls-5" d="M203,260.62a.67.67,0,0,0-.06-.28.72.72,0,0,0-1.32,0,.67.67,0,0,0-.06.28Z"/><path class="cls-5" d="M216.69,246.94V245.5a.72.72,0,1,0,0,1.44Z"/><path class="cls-5" d="M202.29,246.94a.72.72,0,1,0-.72-.72A.72.72,0,0,0,202.29,246.94Z"/><path class="cls-5" d="M195.81,253.42a.72.72,0,1,0-.72.72A.72.72,0,0,0,195.81,253.42Z"/><path class="cls-5" d="M209.49,254.14a.72.72,0,1,0-.72-.72A.72.72,0,0,0,209.49,254.14Z"/><path class="cls-5" d="M195.09,239.74a.72.72,0,1,0-.72-.72A.72.72,0,0,0,195.09,239.74Z"/><path class="cls-5" d="M209.49,239.74a.72.72,0,1,0-.72-.72A.72.72,0,0,0,209.49,239.74Z"/><path class="cls-5" d="M188.61,260.62a.67.67,0,0,0-.06-.28.71.71,0,0,0-.66-.44v.72Z"/><path class="cls-5" d="M187.89,245.5v1.44a.72.72,0,0,0,0-1.44Z"/><path class="cls-5" d="M216,231.82a.64.64,0,0,0,.06.28.71.71,0,0,0,.66.44v-.72Z"/><path class="cls-5" d="M201.63,232.1a.72.72,0,0,0,1.32,0,.64.64,0,0,0,.06-.28h-1.44A.64.64,0,0,0,201.63,232.1Z"/><path class="cls-5" d="M216.69,289.42v-.72a.71.71,0,0,0-.66.44.67.67,0,0,0-.06.28Z"/><path class="cls-5" d="M203,289.42a.67.67,0,0,0-.06-.28.72.72,0,0,0-1.32,0,.67.67,0,0,0-.06.28Z"/><path class="cls-5" d="M216,275a.72.72,0,0,0,.72.72V274.3A.72.72,0,0,0,216,275Z"/><path class="cls-5" d="M202.29,274.3a.72.72,0,1,0,.72.72A.72.72,0,0,0,202.29,274.3Z"/><path class="cls-5" d="M195.09,282.94a.72.72,0,1,0-.72-.72A.72.72,0,0,0,195.09,282.94Z"/><path class="cls-5" d="M209.49,282.94a.72.72,0,1,0-.72-.72A.72.72,0,0,0,209.49,282.94Z"/><path class="cls-5" d="M195.09,268.54a.72.72,0,1,0-.72-.72A.72.72,0,0,0,195.09,268.54Z"/><path class="cls-5" d="M209.49,268.54a.72.72,0,1,0-.72-.72A.72.72,0,0,0,209.49,268.54Z"/><path class="cls-5" d="M188.61,289.42a.67.67,0,0,0-.06-.28.71.71,0,0,0-.66-.44v.72Z"/><path class="cls-5" d="M187.89,274.3v1.44a.72.72,0,1,0,0-1.44Z"/><path class="cls-5" d="M216,260.62a.72.72,0,0,0,.72.72v-.72Z"/><path class="cls-5" d="M202.29,261.34a.72.72,0,0,0,.72-.72h-1.44A.72.72,0,0,0,202.29,261.34Z"/><path class="cls-5" d="M187.89,261.34a.72.72,0,0,0,.72-.72h-.72Z"/><path class="cls-5" d="M216.69,317.5a.71.71,0,0,0-.66.44.67.67,0,0,0-.06.28h.72Z"/><path class="cls-5" d="M203,317.94a.72.72,0,0,0-1.32,0,.67.67,0,0,0-.06.28H203A.67.67,0,0,0,203,317.94Z"/><path class="cls-5" d="M216,303.82a.72.72,0,0,0,.72.72V303.1A.72.72,0,0,0,216,303.82Z"/><path class="cls-5" d="M202.29,303.1a.72.72,0,1,0,.72.72A.72.72,0,0,0,202.29,303.1Z"/><path class="cls-5" d="M195.09,311.74a.72.72,0,1,0-.72-.72A.72.72,0,0,0,195.09,311.74Z"/><path class="cls-5" d="M209.49,310.3a.72.72,0,1,0,.72.72A.72.72,0,0,0,209.49,310.3Z"/><path class="cls-5" d="M194.37,296.62a.72.72,0,1,0,.72-.72A.72.72,0,0,0,194.37,296.62Z"/><path class="cls-5" d="M209.49,295.9a.72.72,0,1,0,.72.72A.72.72,0,0,0,209.49,295.9Z"/><path class="cls-5" d="M188.61,318.22a.67.67,0,0,0-.06-.28.71.71,0,0,0-.66-.44v.72Z"/><path class="cls-5" d="M188.61,303.82a.72.72,0,0,0-.72-.72v1.44A.72.72,0,0,0,188.61,303.82Z"/><path class="cls-5" d="M216,289.42a.64.64,0,0,0,.06.28.71.71,0,0,0,.66.44v-.72Z"/><path class="cls-5" d="M201.63,289.7a.72.72,0,0,0,1.32,0,.64.64,0,0,0,.06-.28h-1.44A.64.64,0,0,0,201.63,289.7Z"/><path class="cls-5" d="M187.89,290.14a.71.71,0,0,0,.66-.44.64.64,0,0,0,.06-.28h-.72Z"/><path class="cls-5" d="M216.69,346.3a.72.72,0,0,0-.72.72h.72Z"/><path class="cls-5" d="M202.29,346.3a.72.72,0,0,0-.72.72H203A.72.72,0,0,0,202.29,346.3Z"/><path class="cls-5" d="M216,332.62a.72.72,0,0,0,.72.72V331.9A.72.72,0,0,0,216,332.62Z"/><path class="cls-5" d="M202.29,331.9a.72.72,0,1,0,.72.72A.72.72,0,0,0,202.29,331.9Z"/><path class="cls-5" d="M195.09,339.1a.72.72,0,1,0,.72.72A.72.72,0,0,0,195.09,339.1Z"/><path class="cls-5" d="M209.49,339.1a.72.72,0,1,0,.72.72A.72.72,0,0,0,209.49,339.1Z"/><path class="cls-5" d="M195.09,324.7a.72.72,0,1,0,.72.72A.72.72,0,0,0,195.09,324.7Z"/><path class="cls-5" d="M209.49,324.7a.72.72,0,1,0,.72.72A.72.72,0,0,0,209.49,324.7Z"/><path class="cls-5" d="M188.61,347a.72.72,0,0,0-.72-.72V347Z"/><path class="cls-5" d="M187.89,331.9v1.44a.72.72,0,0,0,0-1.44Z"/><path class="cls-5" d="M216,318.22a.72.72,0,0,0,.72.72v-.72Z"/><path class="cls-5" d="M201.57,318.22a.72.72,0,1,0,1.44,0Z"/><path class="cls-5" d="M187.89,318.22v.72a.72.72,0,0,0,.72-.72Z"/><path class="cls-5" d="M216.69,375.1a.71.71,0,0,0-.66.44.67.67,0,0,0-.06.28h.72Z"/><path class="cls-5" d="M203,375.54a.72.72,0,0,0-1.32,0,.67.67,0,0,0-.06.28H203A.67.67,0,0,0,203,375.54Z"/><path class="cls-5" d="M216,361.42a.72.72,0,0,0,.72.72V360.7A.72.72,0,0,0,216,361.42Z"/><path class="cls-5" d="M202.29,360.7a.72.72,0,1,0,.72.72A.72.72,0,0,0,202.29,360.7Z"/><path class="cls-5" d="M195.09,367.9a.72.72,0,1,0,.72.72A.72.72,0,0,0,195.09,367.9Z"/><path class="cls-5" d="M209.49,367.9a.72.72,0,1,0,.72.72A.72.72,0,0,0,209.49,367.9Z"/><path class="cls-5" d="M195.09,353.5a.72.72,0,1,0,.72.72A.72.72,0,0,0,195.09,353.5Z"/><path class="cls-5" d="M209.49,353.5a.72.72,0,1,0,.72.72A.72.72,0,0,0,209.49,353.5Z"/><path class="cls-5" d="M188.61,375.82a.67.67,0,0,0-.06-.28.71.71,0,0,0-.66-.44v.72Z"/><path class="cls-5" d="M187.89,360.7v1.44a.72.72,0,0,0,0-1.44Z"/><path class="cls-5" d="M216,347a.64.64,0,0,0,.06.28.71.71,0,0,0,.66.44V347Z"/><path class="cls-5" d="M201.57,347a.64.64,0,0,0,.06.28.72.72,0,0,0,1.32,0A.64.64,0,0,0,203,347Z"/><path class="cls-5" d="M187.89,347v.72a.71.71,0,0,0,.66-.44.64.64,0,0,0,.06-.28Z"/><path class="cls-5" d="M216.69,403.9a.72.72,0,0,0-.72.72h.72Z"/><path class="cls-5" d="M202.29,403.9a.72.72,0,0,0-.72.72H203A.72.72,0,0,0,202.29,403.9Z"/><path class="cls-5" d="M216,390.22a.72.72,0,0,0,.72.72V389.5A.72.72,0,0,0,216,390.22Z"/><path class="cls-5" d="M202.29,389.5a.72.72,0,1,0,.72.72A.72.72,0,0,0,202.29,389.5Z"/><path class="cls-5" d="M195.09,396.7a.72.72,0,1,0,.72.72A.72.72,0,0,0,195.09,396.7Z"/><path class="cls-5" d="M209.49,396.7a.72.72,0,1,0,.72.72A.72.72,0,0,0,209.49,396.7Z"/><path class="cls-5" d="M195.09,382.3a.72.72,0,1,0,.72.72A.72.72,0,0,0,195.09,382.3Z"/><path class="cls-5" d="M209.49,382.3a.72.72,0,1,0,.72.72A.72.72,0,0,0,209.49,382.3Z"/><path class="cls-5" d="M188.61,404.62a.72.72,0,0,0-.72-.72v.72Z"/><path class="cls-5" d="M187.89,389.5v1.44a.72.72,0,0,0,0-1.44Z"/><path class="cls-5" d="M216,375.82a.72.72,0,0,0,.72.72v-.72Z"/><path class="cls-5" d="M201.57,375.82a.72.72,0,0,0,1.44,0Z"/><path class="cls-5" d="M187.89,375.82v.72a.72.72,0,0,0,.72-.72Z"/><path class="cls-5" d="M216,419a.72.72,0,0,0,.72.72V418.3A.72.72,0,0,0,216,419Z"/><path class="cls-5" d="M202.29,418.3a.72.72,0,1,0,.72.72A.72.72,0,0,0,202.29,418.3Z"/><path class="cls-5" d="M194.37,411.82a.72.72,0,1,0,.72-.72A.72.72,0,0,0,194.37,411.82Z"/><path class="cls-5" d="M208.77,411.82a.72.72,0,1,0,.72-.72A.72.72,0,0,0,208.77,411.82Z"/><path class="cls-5" d="M216,404.62a.72.72,0,0,0,.72.72v-.72Z"/><path class="cls-5" d="M201.57,404.62a.72.72,0,1,0,1.44,0Z"/><path class="cls-5" d="M187.89,405.34a.72.72,0,0,0,.72-.72h-.72Z"/><path class="cls-5" d="M187.89,260.62v-.72a.7.7,0,0,0-.66.44.67.67,0,0,0-.06.28Z"/><path class="cls-5" d="M187.17,246.22a.72.72,0,0,0,.72.72V245.5A.72.72,0,0,0,187.17,246.22Z"/><path class="cls-5" d="M187.89,288.7a.7.7,0,0,0-.66.44.67.67,0,0,0-.06.28h.72Z"/><path class="cls-5" d="M187.17,275a.72.72,0,0,0,.72.72V274.3A.72.72,0,0,0,187.17,275Z"/><path class="cls-5" d="M181.41,282.22a.72.72,0,1,0-.72.72A.72.72,0,0,0,181.41,282.22Z"/><path class="cls-5" d="M181.41,267.82a.72.72,0,0,0-.72-.72.7.7,0,0,0-.14,0c-.07.44-.13.87-.2,1.31a.65.65,0,0,0,.34.1A.72.72,0,0,0,181.41,267.82Z"/><path class="cls-5" d="M187.17,260.62a.72.72,0,0,0,.72.72v-.72Z"/><path class="cls-5" d="M187.89,317.5a.7.7,0,0,0-.66.44.67.67,0,0,0-.06.28h.72Z"/><path class="cls-5" d="M187.89,304.54V303.1a.72.72,0,0,0,0,1.44Z"/><path class="cls-5" d="M180.69,311.74A.72.72,0,1,0,180,311,.72.72,0,0,0,180.69,311.74Z"/><path class="cls-5" d="M180.69,297.34a.72.72,0,1,0-.72-.72A.72.72,0,0,0,180.69,297.34Z"/><path class="cls-5" d="M187.89,290.14v-.72h-.72a.64.64,0,0,0,.06.28A.7.7,0,0,0,187.89,290.14Z"/><path class="cls-5" d="M187.89,346.3a.72.72,0,0,0-.72.72h.72Z"/><path class="cls-5" d="M173.49,346.3a.68.68,0,0,0-.48.2c0,.17,0,.35,0,.52h1.24A.72.72,0,0,0,173.49,346.3Z"/><path class="cls-5" d="M187.17,332.62a.72.72,0,0,0,.72.72V331.9A.72.72,0,0,0,187.17,332.62Z"/><path class="cls-5" d="M174.21,332.62a.73.73,0,0,0-.27-.55c0,.39-.05.77-.08,1.15A.69.69,0,0,0,174.21,332.62Z"/><path class="cls-5" d="M180.69,339.1a.72.72,0,1,0,.72.72A.72.72,0,0,0,180.69,339.1Z"/><path class="cls-5" d="M180.69,324.7a.72.72,0,1,0,.72.72A.72.72,0,0,0,180.69,324.7Z"/><path class="cls-5" d="M187.17,318.22a.72.72,0,0,0,.72.72v-.72Z"/><path class="cls-5" d="M187.89,375.1a.7.7,0,0,0-.66.44.67.67,0,0,0-.06.28h.72Z"/><path class="cls-5" d="M174.15,375.54a.71.71,0,0,0-.66-.44.7.7,0,0,0-.66.44.67.67,0,0,0-.06.28h1.44A.67.67,0,0,0,174.15,375.54Z"/><path class="cls-5" d="M187.17,361.42a.72.72,0,0,0,.72.72V360.7A.72.72,0,0,0,187.17,361.42Z"/><path class="cls-5" d="M173.49,360.7a.72.72,0,1,0,.72.72A.72.72,0,0,0,173.49,360.7Z"/><path class="cls-5" d="M180.69,367.9a.72.72,0,1,0,.72.72A.72.72,0,0,0,180.69,367.9Z"/><path class="cls-5" d="M180.69,353.5a.72.72,0,1,0,.72.72A.72.72,0,0,0,180.69,353.5Z"/><path class="cls-5" d="M187.17,347a.64.64,0,0,0,.06.28.7.7,0,0,0,.66.44V347Z"/><path class="cls-5" d="M173,347l0,.46a.72.72,0,0,0,.55.26.71.71,0,0,0,.66-.44.64.64,0,0,0,.06-.28Z"/><path class="cls-5" d="M187.89,403.9a.72.72,0,0,0-.72.72h.72Z"/><path class="cls-5" d="M173.49,403.9a.72.72,0,0,0-.72.72h1.44A.72.72,0,0,0,173.49,403.9Z"/><path class="cls-5" d="M187.17,390.22a.72.72,0,0,0,.72.72V389.5A.72.72,0,0,0,187.17,390.22Z"/><path class="cls-5" d="M173.49,389.5a.72.72,0,1,0,.72.72A.72.72,0,0,0,173.49,389.5Z"/><path class="cls-5" d="M180.69,396.7a.72.72,0,1,0,.72.72A.72.72,0,0,0,180.69,396.7Z"/><path class="cls-5" d="M180.69,382.3a.72.72,0,1,0,.72.72A.72.72,0,0,0,180.69,382.3Z"/><path class="cls-5" d="M187.17,375.82a.72.72,0,0,0,.72.72v-.72Z"/><path class="cls-5" d="M172.77,375.82a.72.72,0,0,0,1.44,0Z"/><path class="cls-5" d="M180,411.82a.72.72,0,1,0,.72-.72A.72.72,0,0,0,180,411.82Z"/><path class="cls-5" d="M187.89,405.34v-.72h-.72A.72.72,0,0,0,187.89,405.34Z"/><path class="cls-5" d="M173.49,405.34a.72.72,0,0,0,.72-.72h-1.44A.72.72,0,0,0,173.49,405.34Z"/><path class="cls-6" d="M307,272.71l-2,19.05-14.67-12.67L283,304.42l-22.11-19-15.08,34.38-32.57-9.65L217,341.76l34.67,12,16-34.67,24.66,10.67,6-29.34,14.5,8.49C311.62,295,309.77,282,307,272.71Z"/><path class="cls-4" d="M227.49,309c-3.6,45.28,7.53,104.62,11,121.76-.59.24-21.34,8.08-60.39,8.5,0,0-4.15-.4-4.2-.42-1.86-11-6.39-51.55-5.23-89.22,1.42-46,11.33-100.19,16.29-109.67,4-7.71,13.21-10.49,16.51-11.26"/><path class="cls-5" d="M217.41,289.42a.67.67,0,0,0-.06-.28.83.83,0,0,0-.15-.23.72.72,0,0,0-.51-.21v.72Z"/><path class="cls-5" d="M216.73,275.73l0-.12v.13Z"/><path class="cls-5" d="M223.89,311.74a.72.72,0,1,0-.72-.72A.72.72,0,0,0,223.89,311.74Z"/><path class="cls-5" d="M223.71,297.31l-.37-1.14a.7.7,0,0,0,.37,1.14Z"/><path class="cls-5" d="M217.41,318.22a.67.67,0,0,0-.06-.28.83.83,0,0,0-.15-.23.72.72,0,0,0-.51-.21v.72Z"/><path class="cls-5" d="M217.2,304.33a.72.72,0,0,0-.51-1.23v1.44A.72.72,0,0,0,217.2,304.33Z"/><path class="cls-5" d="M216.69,289.42v.72a.72.72,0,0,0,.51-.21.61.61,0,0,0,.15-.23.64.64,0,0,0,.06-.28Z"/><path class="cls-5" d="M223.89,339.1a.72.72,0,1,0,.72.72A.72.72,0,0,0,223.89,339.1Z"/><path class="cls-5" d="M223.89,324.7a.72.72,0,1,0,.72.72A.72.72,0,0,0,223.89,324.7Z"/><path class="cls-5" d="M217.41,347a.72.72,0,0,0-.72-.72V347Z"/><path class="cls-5" d="M217.2,332.11a.72.72,0,0,0-.51-.21v1.44a.72.72,0,0,0,.51-1.23Z"/><path class="cls-5" d="M216.69,318.22v.72a.72.72,0,0,0,.72-.72Z"/><path class="cls-5" d="M223.89,367.9a.72.72,0,1,0,.72.72A.72.72,0,0,0,223.89,367.9Z"/><path class="cls-5" d="M223.89,353.5a.72.72,0,1,0,.72.72A.72.72,0,0,0,223.89,353.5Z"/><path class="cls-5" d="M217.41,375.82a.67.67,0,0,0-.06-.28.7.7,0,0,0-.15-.23.72.72,0,0,0-.51-.21v.72Z"/><path class="cls-5" d="M217.2,360.91a.72.72,0,0,0-.51-.21v1.44a.72.72,0,0,0,.51-1.23Z"/><path class="cls-5" d="M216.69,347v.72a.72.72,0,0,0,.51-.21.61.61,0,0,0,.15-.23.64.64,0,0,0,.06-.28Z"/><path class="cls-5" d="M231.09,403.9a.72.72,0,0,0-.72.72h1.44A.72.72,0,0,0,231.09,403.9Z"/><path class="cls-5" d="M231.55,389.68a.7.7,0,0,0-.46-.18.72.72,0,0,0,0,1.44.7.7,0,0,0,.59-.33C231.63,390.3,231.59,390,231.55,389.68Z"/><path class="cls-5" d="M223.89,396.7a.72.72,0,1,0,.72.72A.72.72,0,0,0,223.89,396.7Z"/><path class="cls-5" d="M223.89,382.3a.72.72,0,1,0,.72.72A.72.72,0,0,0,223.89,382.3Z"/><path class="cls-5" d="M217.2,404.11a.72.72,0,0,0-.51-.21v.72h.72A.72.72,0,0,0,217.2,404.11Z"/><path class="cls-5" d="M217.2,389.71a.72.72,0,0,0-.51-.21v1.44a.72.72,0,0,0,.51-1.23Z"/><path class="cls-5" d="M216.69,375.82v.72a.72.72,0,0,0,.72-.72Z"/><path class="cls-5" d="M231.09,432.7a.71.71,0,0,0-.66.44.45.45,0,0,0,0,.2l1.26-.35A.71.71,0,0,0,231.09,432.7Z"/><path class="cls-5" d="M231.09,419.74a.72.72,0,1,0-.72-.72A.72.72,0,0,0,231.09,419.74Z"/><path class="cls-5" d="M224.61,426.22a.72.72,0,1,0-.72.72A.72.72,0,0,0,224.61,426.22Z"/><path class="cls-5" d="M237.59,426.11s0,.07,0,.11a.68.68,0,0,0,.12.37C237.66,426.43,237.62,426.27,237.59,426.11Z"/><path class="cls-5" d="M223.89,411.1a.72.72,0,1,0,.72.72A.72.72,0,0,0,223.89,411.1Z"/><path class="cls-5" d="M217.41,433.42a.67.67,0,0,0-.06-.28.7.7,0,0,0-.15-.23.72.72,0,0,0-.51-.21v.72Z"/><path class="cls-5" d="M217.2,418.51a.72.72,0,0,0-.51-.21v1.44a.72.72,0,0,0,.51-1.23Z"/><path class="cls-5" d="M231.09,405.34a.72.72,0,0,0,.72-.72h-1.44A.72.72,0,0,0,231.09,405.34Z"/><path class="cls-5" d="M216.69,404.62v.72a.72.72,0,0,0,.72-.72Z"/><path class="cls-5" d="M216.69,433.42v.72a.72.72,0,0,0,.72-.72Z"/><path class="cls-5" d="M202.28,231.1a.73.73,0,0,0-.65.44.67.67,0,0,0-.06.28h1Z"/><path class="cls-5" d="M203,260.34a.72.72,0,0,0-1.32,0,.67.67,0,0,0-.06.28H203A.67.67,0,0,0,203,260.34Z"/><path class="cls-5" d="M202.29,245.5a.72.72,0,1,0,.72.72A.72.72,0,0,0,202.29,245.5Z"/><path class="cls-5" d="M195.09,254.14a.72.72,0,1,0-.72-.72A.72.72,0,0,0,195.09,254.14Z"/><path class="cls-5" d="M208.77,253.42a.72.72,0,0,0,.72.72.69.69,0,0,0,.24,0l-.44-1.35A.72.72,0,0,0,208.77,253.42Z"/><path class="cls-5" d="M194.37,239a.72.72,0,1,0,.72-.72A.72.72,0,0,0,194.37,239Z"/><path class="cls-5" d="M187.89,259.9v.72h.72a.67.67,0,0,0-.06-.28A.71.71,0,0,0,187.89,259.9Z"/><path class="cls-5" d="M187.89,245.5v1.44a.72.72,0,0,0,0-1.44Z"/><path class="cls-5" d="M202.29,232.54a.72.72,0,0,0,.41-.14l-.18-.58h-1a.64.64,0,0,0,.06.28A.71.71,0,0,0,202.29,232.54Z"/><path class="cls-5" d="M216.69,288.7a.71.71,0,0,0-.66.44.67.67,0,0,0-.06.28h.72Z"/><path class="cls-5" d="M203,289.42a.67.67,0,0,0-.06-.28.72.72,0,0,0-1.32,0,.67.67,0,0,0-.06.28Z"/><path class="cls-5" d="M216,275a.72.72,0,0,0,.72.72v-.13l-.38-1.18A.69.69,0,0,0,216,275Z"/><path class="cls-5" d="M202.29,274.3a.72.72,0,1,0,.72.72A.72.72,0,0,0,202.29,274.3Z"/><path class="cls-5" d="M195.09,282.94a.72.72,0,1,0-.72-.72A.72.72,0,0,0,195.09,282.94Z"/><path class="cls-5" d="M209.49,282.94a.72.72,0,1,0-.72-.72A.72.72,0,0,0,209.49,282.94Z"/><path class="cls-5" d="M195.09,268.54a.72.72,0,1,0-.72-.72A.72.72,0,0,0,195.09,268.54Z"/><path class="cls-5" d="M208.77,267.82a.72.72,0,1,0,.72-.72A.72.72,0,0,0,208.77,267.82Z"/><path class="cls-5" d="M188.61,289.42a.67.67,0,0,0-.06-.28.71.71,0,0,0-.66-.44v.72Z"/><path class="cls-5" d="M187.89,274.3v1.44a.72.72,0,1,0,0-1.44Z"/><path class="cls-5" d="M202.29,261.34a.72.72,0,0,0,.72-.72h-1.44A.72.72,0,0,0,202.29,261.34Z"/><path class="cls-5" d="M187.89,261.34a.72.72,0,0,0,.72-.72h-.72Z"/><path class="cls-5" d="M216.69,318.22v-.72a.71.71,0,0,0-.66.44.67.67,0,0,0-.06.28Z"/><path class="cls-5" d="M203,318.22a.67.67,0,0,0-.06-.28.72.72,0,0,0-1.32,0,.67.67,0,0,0-.06.28Z"/><path class="cls-5" d="M216.69,304.54V303.1a.72.72,0,1,0,0,1.44Z"/><path class="cls-5" d="M202.29,304.54a.72.72,0,1,0-.72-.72A.72.72,0,0,0,202.29,304.54Z"/><path class="cls-5" d="M195.09,311.74a.72.72,0,1,0-.72-.72A.72.72,0,0,0,195.09,311.74Z"/><path class="cls-5" d="M209.49,311.74a.72.72,0,1,0-.72-.72A.72.72,0,0,0,209.49,311.74Z"/><path class="cls-5" d="M195.09,297.34a.72.72,0,1,0-.72-.72A.72.72,0,0,0,195.09,297.34Z"/><path class="cls-5" d="M209.49,297.34a.72.72,0,1,0-.72-.72A.72.72,0,0,0,209.49,297.34Z"/><path class="cls-5" d="M188.61,318.22a.67.67,0,0,0-.06-.28.71.71,0,0,0-.66-.44v.72Z"/><path class="cls-5" d="M188.61,303.82a.72.72,0,0,0-.72-.72v1.44A.72.72,0,0,0,188.61,303.82Z"/><path class="cls-5" d="M216.69,290.14v-.72H216a.64.64,0,0,0,.06.28A.71.71,0,0,0,216.69,290.14Z"/><path class="cls-5" d="M201.63,289.7a.72.72,0,0,0,1.32,0,.64.64,0,0,0,.06-.28h-1.44A.64.64,0,0,0,201.63,289.7Z"/><path class="cls-5" d="M187.89,290.14a.71.71,0,0,0,.66-.44.64.64,0,0,0,.06-.28h-.72Z"/><path class="cls-5" d="M216.69,346.3a.72.72,0,0,0-.72.72h.72Z"/><path class="cls-5" d="M202.29,346.3a.72.72,0,0,0-.72.72H203A.72.72,0,0,0,202.29,346.3Z"/><path class="cls-5" d="M216,332.62a.72.72,0,0,0,.72.72V331.9A.72.72,0,0,0,216,332.62Z"/><path class="cls-5" d="M202.29,331.9a.72.72,0,1,0,.72.72A.72.72,0,0,0,202.29,331.9Z"/><path class="cls-5" d="M195.09,339.1a.72.72,0,1,0,.72.72A.72.72,0,0,0,195.09,339.1Z"/><path class="cls-5" d="M209.49,339.1a.72.72,0,1,0,.72.72A.72.72,0,0,0,209.49,339.1Z"/><path class="cls-5" d="M195.09,324.7a.72.72,0,1,0,.72.72A.72.72,0,0,0,195.09,324.7Z"/><path class="cls-5" d="M209.49,324.7a.72.72,0,1,0,.72.72A.72.72,0,0,0,209.49,324.7Z"/><path class="cls-5" d="M187.89,346.3V347h.72A.72.72,0,0,0,187.89,346.3Z"/><path class="cls-5" d="M187.89,331.9v1.44a.72.72,0,0,0,0-1.44Z"/><path class="cls-5" d="M216,318.22a.72.72,0,0,0,.72.72v-.72Z"/><path class="cls-5" d="M202.29,318.94a.72.72,0,0,0,.72-.72h-1.44A.72.72,0,0,0,202.29,318.94Z"/><path class="cls-5" d="M187.89,318.94a.72.72,0,0,0,.72-.72h-.72Z"/><path class="cls-5" d="M216.69,375.1a.71.71,0,0,0-.66.44.67.67,0,0,0-.06.28h.72Z"/><path class="cls-5" d="M202.29,375.1a.71.71,0,0,0-.66.44.67.67,0,0,0-.06.28H203a.67.67,0,0,0-.06-.28A.71.71,0,0,0,202.29,375.1Z"/><path class="cls-5" d="M216,361.42a.72.72,0,0,0,.72.72V360.7A.72.72,0,0,0,216,361.42Z"/><path class="cls-5" d="M202.29,360.7a.72.72,0,1,0,.72.72A.72.72,0,0,0,202.29,360.7Z"/><path class="cls-5" d="M195.81,368.62a.72.72,0,1,0-.72.72A.72.72,0,0,0,195.81,368.62Z"/><path class="cls-5" d="M209.49,367.9a.72.72,0,1,0,.72.72A.72.72,0,0,0,209.49,367.9Z"/><path class="cls-5" d="M195.09,353.5a.72.72,0,1,0,.72.72A.72.72,0,0,0,195.09,353.5Z"/><path class="cls-5" d="M209.49,353.5a.72.72,0,1,0,.72.72A.72.72,0,0,0,209.49,353.5Z"/><path class="cls-5" d="M188.61,375.82a.67.67,0,0,0-.06-.28.71.71,0,0,0-.66-.44v.72Z"/><path class="cls-5" d="M187.89,360.7v1.44a.72.72,0,0,0,0-1.44Z"/><path class="cls-5" d="M216,347a.64.64,0,0,0,.06.28.71.71,0,0,0,.66.44V347Z"/><path class="cls-5" d="M201.57,347a.64.64,0,0,0,.06.28.72.72,0,0,0,1.32,0A.64.64,0,0,0,203,347Z"/><path class="cls-5" d="M187.89,347.74a.71.71,0,0,0,.66-.44.64.64,0,0,0,.06-.28h-.72Z"/><path class="cls-5" d="M216.69,403.9a.72.72,0,0,0-.72.72h.72Z"/><path class="cls-5" d="M202.29,403.9a.72.72,0,0,0-.72.72H203A.72.72,0,0,0,202.29,403.9Z"/><path class="cls-5" d="M216,390.22a.72.72,0,0,0,.72.72V389.5A.72.72,0,0,0,216,390.22Z"/><path class="cls-5" d="M202.29,389.5a.72.72,0,1,0,.72.72A.72.72,0,0,0,202.29,389.5Z"/><path class="cls-5" d="M195.09,396.7a.72.72,0,1,0,.72.72A.72.72,0,0,0,195.09,396.7Z"/><path class="cls-5" d="M210.21,397.42a.72.72,0,1,0-.72.72A.72.72,0,0,0,210.21,397.42Z"/><path class="cls-5" d="M195.09,382.3a.72.72,0,1,0,.72.72A.72.72,0,0,0,195.09,382.3Z"/><path class="cls-5" d="M209.49,382.3a.72.72,0,1,0,.72.72A.72.72,0,0,0,209.49,382.3Z"/><path class="cls-5" d="M188.61,404.62a.72.72,0,0,0-.72-.72v.72Z"/><path class="cls-5" d="M187.89,389.5v1.44a.72.72,0,0,0,0-1.44Z"/><path class="cls-5" d="M216,375.82a.72.72,0,0,0,.72.72v-.72Z"/><path class="cls-5" d="M202.29,376.54a.72.72,0,0,0,.72-.72h-1.44A.72.72,0,0,0,202.29,376.54Z"/><path class="cls-5" d="M187.89,376.54a.72.72,0,0,0,.72-.72h-.72Z"/><path class="cls-5" d="M216.69,432.7a.71.71,0,0,0-.66.44.67.67,0,0,0-.06.28h.72Z"/><path class="cls-5" d="M203,433.14a.72.72,0,0,0-1.32,0,.67.67,0,0,0-.06.28H203A.67.67,0,0,0,203,433.14Z"/><path class="cls-5" d="M216,419a.72.72,0,0,0,.72.72V418.3A.72.72,0,0,0,216,419Z"/><path class="cls-5" d="M202.29,418.3a.72.72,0,1,0,.72.72A.72.72,0,0,0,202.29,418.3Z"/><path class="cls-5" d="M195.09,425.5a.72.72,0,1,0,.72.72A.72.72,0,0,0,195.09,425.5Z"/><path class="cls-5" d="M209.49,425.5a.72.72,0,1,0,.72.72A.72.72,0,0,0,209.49,425.5Z"/><path class="cls-5" d="M195.09,411.1a.72.72,0,1,0,.72.72A.72.72,0,0,0,195.09,411.1Z"/><path class="cls-5" d="M209.49,411.1a.72.72,0,1,0,.72.72A.72.72,0,0,0,209.49,411.1Z"/><path class="cls-5" d="M188.61,433.42a.67.67,0,0,0-.06-.28.71.71,0,0,0-.66-.44v.72Z"/><path class="cls-5" d="M187.89,418.3v1.44a.72.72,0,0,0,0-1.44Z"/><path class="cls-5" d="M216,404.62a.72.72,0,0,0,.72.72v-.72Z"/><path class="cls-5" d="M201.57,404.62a.72.72,0,1,0,1.44,0Z"/><path class="cls-5" d="M187.89,405.34a.72.72,0,0,0,.72-.72h-.72Z"/><path class="cls-5" d="M216.69,434.14v-.72H216A.72.72,0,0,0,216.69,434.14Z"/><path class="cls-5" d="M202.29,434.14a.72.72,0,0,0,.72-.72h-1.44A.72.72,0,0,0,202.29,434.14Z"/><path class="cls-5" d="M187.89,434.14a.72.72,0,0,0,.72-.72h-.72Z"/><path class="cls-5" d="M187.89,259.9a.7.7,0,0,0-.66.44.67.67,0,0,0-.06.28h.72Z"/><path class="cls-5" d="M187.17,246.22a.72.72,0,0,0,.72.72V245.5A.72.72,0,0,0,187.17,246.22Z"/><path class="cls-5" d="M181.41,253.42a.72.72,0,0,0-.43-.65c-.1.45-.21.9-.32,1.37h0A.72.72,0,0,0,181.41,253.42Z"/><path class="cls-5" d="M187.89,288.7a.7.7,0,0,0-.66.44.67.67,0,0,0-.06.28h.72Z"/><path class="cls-5" d="M187.17,275a.72.72,0,0,0,.72.72V274.3A.72.72,0,0,0,187.17,275Z"/><path class="cls-5" d="M180.69,282.94a.72.72,0,1,0-.72-.72A.72.72,0,0,0,180.69,282.94Z"/><path class="cls-5" d="M180,267.82a.72.72,0,1,0,.72-.72A.72.72,0,0,0,180,267.82Z"/><path class="cls-5" d="M187.17,260.62a.72.72,0,0,0,.72.72v-.72Z"/><path class="cls-5" d="M187.89,318.22v-.72a.7.7,0,0,0-.66.44.67.67,0,0,0-.06.28Z"/><path class="cls-5" d="M174.15,317.94a.71.71,0,0,0-.66-.44.7.7,0,0,0-.66.44.67.67,0,0,0-.06.28h1.44A.67.67,0,0,0,174.15,317.94Z"/><path class="cls-5" d="M187.89,304.54V303.1a.72.72,0,0,0,0,1.44Z"/><path class="cls-5" d="M173.49,303.1a.72.72,0,1,0,.72.72A.72.72,0,0,0,173.49,303.1Z"/><path class="cls-5" d="M180.69,311.74A.72.72,0,1,0,180,311,.72.72,0,0,0,180.69,311.74Z"/><path class="cls-5" d="M180.69,297.34a.72.72,0,1,0-.72-.72A.72.72,0,0,0,180.69,297.34Z"/><path class="cls-5" d="M187.89,290.14v-.72h-.72a.64.64,0,0,0,.06.28A.7.7,0,0,0,187.89,290.14Z"/><path class="cls-5" d="M187.89,346.3a.72.72,0,0,0-.72.72h.72Z"/><path class="cls-5" d="M173.49,346.3a.72.72,0,0,0-.72.72h1.44A.72.72,0,0,0,173.49,346.3Z"/><path class="cls-5" d="M187.17,332.62a.72.72,0,0,0,.72.72V331.9A.72.72,0,0,0,187.17,332.62Z"/><path class="cls-5" d="M173.49,331.9a.72.72,0,1,0,.72.72A.72.72,0,0,0,173.49,331.9Z"/><path class="cls-5" d="M180.69,339.1a.72.72,0,1,0,.72.72A.72.72,0,0,0,180.69,339.1Z"/><path class="cls-5" d="M180.69,324.7a.72.72,0,1,0,.72.72A.72.72,0,0,0,180.69,324.7Z"/><path class="cls-5" d="M187.17,318.22a.72.72,0,0,0,.72.72v-.72Z"/><path class="cls-5" d="M172.77,318.22a.72.72,0,0,0,1.44,0Z"/><path class="cls-5" d="M187.89,375.1a.7.7,0,0,0-.66.44.67.67,0,0,0-.06.28h.72Z"/><path class="cls-5" d="M174.15,375.54a.71.71,0,0,0-.66-.44.7.7,0,0,0-.66.44.67.67,0,0,0-.06.28h1.44A.67.67,0,0,0,174.15,375.54Z"/><path class="cls-5" d="M187.17,361.42a.72.72,0,0,0,.72.72V360.7A.72.72,0,0,0,187.17,361.42Z"/><path class="cls-5" d="M173.49,360.7a.72.72,0,1,0,.72.72A.72.72,0,0,0,173.49,360.7Z"/><path class="cls-5" d="M180.69,367.9a.72.72,0,1,0,.72.72A.72.72,0,0,0,180.69,367.9Z"/><path class="cls-5" d="M180.69,353.5a.72.72,0,1,0,.72.72A.72.72,0,0,0,180.69,353.5Z"/><path class="cls-5" d="M187.17,347a.64.64,0,0,0,.06.28.7.7,0,0,0,.66.44V347Z"/><path class="cls-5" d="M172.77,347a.64.64,0,0,0,.06.28.7.7,0,0,0,.66.44.71.71,0,0,0,.66-.44.64.64,0,0,0,.06-.28Z"/><path class="cls-5" d="M187.89,403.9a.72.72,0,0,0-.72.72h.72Z"/><path class="cls-5" d="M173.49,403.9a.72.72,0,0,0-.72.72h1.44A.72.72,0,0,0,173.49,403.9Z"/><path class="cls-5" d="M187.17,390.22a.72.72,0,0,0,.72.72V389.5A.72.72,0,0,0,187.17,390.22Z"/><path class="cls-5" d="M173.49,389.5a.72.72,0,1,0,.72.72A.72.72,0,0,0,173.49,389.5Z"/><path class="cls-5" d="M180.69,396.7a.72.72,0,1,0,.72.72A.72.72,0,0,0,180.69,396.7Z"/><path class="cls-5" d="M180.69,382.3a.72.72,0,1,0,.72.72A.72.72,0,0,0,180.69,382.3Z"/><path class="cls-5" d="M187.89,376.54v-.72h-.72A.72.72,0,0,0,187.89,376.54Z"/><path class="cls-5" d="M172.77,375.82a.72.72,0,0,0,1.44,0Z"/><path class="cls-5" d="M187.89,432.7a.7.7,0,0,0-.66.44.67.67,0,0,0-.06.28h.72Z"/><path class="cls-5" d="M187.17,419a.72.72,0,0,0,.72.72V418.3A.72.72,0,0,0,187.17,419Z"/><path class="cls-5" d="M174.21,419a.72.72,0,1,0-.72.72A.72.72,0,0,0,174.21,419Z"/><path class="cls-5" d="M180.69,426.94a.72.72,0,1,0-.72-.72A.72.72,0,0,0,180.69,426.94Z"/><path class="cls-5" d="M180,411.82a.72.72,0,1,0,.72-.72A.72.72,0,0,0,180,411.82Z"/><path class="cls-5" d="M187.89,405.34v-.72h-.72A.72.72,0,0,0,187.89,405.34Z"/><path class="cls-5" d="M173.49,405.34a.72.72,0,0,0,.72-.72h-1.44A.72.72,0,0,0,173.49,405.34Z"/><path class="cls-5" d="M187.89,434.14v-.72h-.72A.72.72,0,0,0,187.89,434.14Z"/><path class="cls-7" d="M301.21,258.61C289.55,235.06,275,220.92,275,220.92l-42-17.5-1.55-.54-2.4,1.58c1.14.84,28.33,20.94,45.95,43,18,22.5,29.5,40,29.5,40Z"/><path class="cls-6" d="M275,247.42c18,22.5,29.5,40,29.5,40l-3.31-28.81q-1.47-3-3-5.73l-.4,16.74c-6.7-17.8-40.49-47.7-40.49-47.7l-25.86-19s.23,1.48.64,3.88C239.86,212.73,260.63,229.43,275,247.42Z"/><path class="cls-7" d="M300.84,100.65s11.87,12.78,11.41,18.71-3.19,9.58-1.82,11.86,21.45,15.52,19.62,21.45a14,14,0,0,1-6.85,8.22s2.29,32.4-2.73,34.69-30.13,1.36-30.13,1.36l-10.95,20.54-47.92-14.6s5-15.52,5-21-24.19-42-28.3-52.48,15.06-27.84,33.32-35.6S300.84,100.65,300.84,100.65Z"/><polygon class="cls-6" points="290.34 196.94 267.69 189.43 281.08 214.31 290.34 196.94"/><path class="cls-6" d="M253,153.42c3.33,1.34,15.33,1.34,14-3.33s-12-8-8-14.67,17.33-8.66,15.33-16-12.66-9.33-4.66-12,43.33,2,53.33-1.33,6.67-10-2-13.33-12-3.34-12-3.34,30,3.34,20.67-8-43.34-18-55.34-17.33-20,2-20,2,9.34-5.33.67-5.33-33,15.11-43.63,35.78-13.72,23.19-5,41.07c8.21,16.89,21.84,36.3,27.84,37S253,153.42,253,153.42Z"/><path class="cls-7" d="M259.69,158.09s-7.34-10-14.67-8-6.67,14,2,21.33,17.33-.66,17.33-.66"/><path class="cls-8" d="M244.28,161s-3.62-4.53-.3-6.94S254.53,158,254.53,158s-3.92,1.51-2.11,3.92a4.63,4.63,0,0,0,4.83,1.51"/><line class="cls-9" x1="288.06" y1="128.03" x2="304.38" y2="129.77"/><line class="cls-8" x1="304.04" y1="134.88" x2="295.36" y2="134.88"/><path class="cls-6" d="M296.25,135.11s-.61,3.44,1.84,4.17,2.7-4.17,2.7-4.17Z"/><path class="cls-8" d="M311.69,168.09s2-4,7.33-1.33"/><polygon class="cls-7" points="230.35 187.43 287.02 212.43 274.57 236.78 225.02 204.43 230.35 187.43"/></svg>