<svg xmlns="http://www.w3.org/2000/svg" viewBox="0 0 500 500"><defs><style>.cls-1,.cls-4{fill:#92e3a9;}.cls-2,.cls-7{fill:#fff;}.cls-2{opacity:0.7;}.cls-3,.cls-8,.cls-9{fill:none;}.cls-3,.cls-4,.cls-6,.cls-7,.cls-8,.cls-9{stroke:#263238;}.cls-3{stroke-miterlimit:10;}.cls-4,.cls-6,.cls-7,.cls-8,.cls-9{stroke-linecap:round;stroke-linejoin:round;}.cls-5,.cls-6{fill:#263238;}.cls-9{stroke-width:4px;}</style></defs><g id="Background_Simple" data-name="Background Simple"><path class="cls-1" d="M391.43,80.89c-91.65-63.44-222.59-31-305.83,31.51a167.32,167.32,0,0,0-27.69,26.1c-14.29,16.83-25.79,36.93-28.75,59.09-8.67,64.94,55.66,66.77,59.51,95.82S35.19,325,79.22,380.5c73.16,92.27,227.12,93,316.38,25.11A214,214,0,0,0,437.54,363C498.21,281.58,474.94,138.7,391.43,80.89Z"/><path class="cls-2" d="M391.43,80.89c-91.65-63.44-222.59-31-305.83,31.51a167.32,167.32,0,0,0-27.69,26.1c-14.29,16.83-25.79,36.93-28.75,59.09-8.67,64.94,55.66,66.77,59.51,95.82S35.19,325,79.22,380.5c73.16,92.27,227.12,93,316.38,25.11A214,214,0,0,0,437.54,363C498.21,281.58,474.94,138.7,391.43,80.89Z"/><line class="cls-3" x1="63.73" y1="178.38" x2="63.73" y2="184.66"/><line class="cls-3" x1="63.73" y1="192.29" x2="63.73" y2="198.56"/><line class="cls-3" x1="53.64" y1="188.47" x2="59.92" y2="188.47"/><line class="cls-3" x1="67.54" y1="188.47" x2="73.82" y2="188.47"/><line class="cls-3" x1="431.73" y1="254.38" x2="431.73" y2="260.66"/><line class="cls-3" x1="431.73" y1="268.29" x2="431.73" y2="274.56"/><line class="cls-3" x1="421.64" y1="264.47" x2="427.92" y2="264.47"/><line class="cls-3" x1="435.54" y1="264.47" x2="441.82" y2="264.47"/><line class="cls-3" x1="99.73" y1="260.38" x2="99.73" y2="266.66"/><line class="cls-3" x1="99.73" y1="274.29" x2="99.73" y2="280.56"/><line class="cls-3" x1="89.64" y1="270.47" x2="95.92" y2="270.47"/><line class="cls-3" x1="103.54" y1="270.47" x2="109.82" y2="270.47"/><line class="cls-3" x1="271.73" y1="57.38" x2="271.73" y2="63.66"/><line class="cls-3" x1="271.73" y1="71.29" x2="271.73" y2="77.56"/><line class="cls-3" x1="261.64" y1="67.47" x2="267.92" y2="67.47"/><line class="cls-3" x1="275.54" y1="67.47" x2="281.82" y2="67.47"/><circle class="cls-3" cx="399.54" cy="243.47" r="4"/><circle class="cls-3" cx="88.54" cy="338.47" r="4"/><circle class="cls-3" cx="256.54" cy="167.47" r="4"/><circle class="cls-3" cx="409.54" cy="376.47" r="4"/><circle class="cls-3" cx="121.54" cy="233.47" r="4"/><circle class="cls-3" cx="100.54" cy="113.47" r="4"/><circle class="cls-3" cx="356.54" cy="68.47" r="4"/></g><g id="Character_1" data-name="Character 1"><path class="cls-4" d="M194.41,411.75a209.66,209.66,0,0,0,33.91,16.81c15.13,6.33,34.1,10.57,57.09,10.57,52.22,0,6.52-203,6.52-203L266.7,222.78,205.84,239.6s-18.31,11.38-24.74,52,5.44,114.08,5.44,114.08A73.21,73.21,0,0,0,194.41,411.75Z"/><path class="cls-5" d="M300.88,293.53a.63.63,0,0,0-.06-.27.71.71,0,0,0-.66-.44v.71Z"/><path class="cls-5" d="M300.16,278.57V280a.65.65,0,0,0,.29-.07c-.07-.45-.15-.9-.23-1.35Z"/><path class="cls-5" d="M300.88,322a.63.63,0,0,0-.06-.27.71.71,0,0,0-.66-.44V322Z"/><path class="cls-5" d="M300.88,307.78a.71.71,0,0,0-.72-.71v1.43A.72.72,0,0,0,300.88,307.78Z"/><path class="cls-5" d="M300.16,294.25a.71.71,0,0,0,.66-.44.64.64,0,0,0,.06-.28h-.72Z"/><path class="cls-5" d="M306.58,343.41a.71.71,0,1,0,.71-.71A.71.71,0,0,0,306.58,343.41Z"/><path class="cls-5" d="M307.29,328.45a.71.71,0,1,0,0,1.42.76.76,0,0,0,.27-.05l-.15-1.35Z"/><path class="cls-5" d="M300.88,350.54a.72.72,0,0,0-.72-.72v.72Z"/><path class="cls-5" d="M300.16,335.57V337a.72.72,0,1,0,0-1.43Z"/><path class="cls-5" d="M300.16,322v.72a.72.72,0,0,0,.72-.72Z"/><path class="cls-5" d="M307.29,371.2a.71.71,0,1,0,.71.71A.71.71,0,0,0,307.29,371.2Z"/><path class="cls-5" d="M307.29,357a.71.71,0,1,0,.71.71A.71.71,0,0,0,307.29,357Z"/><path class="cls-5" d="M300.16,378.32V379h.72a.64.64,0,0,0-.06-.28A.71.71,0,0,0,300.16,378.32Z"/><path class="cls-5" d="M300.16,364.07v1.43a.72.72,0,1,0,0-1.43Z"/><path class="cls-5" d="M300.16,350.54v.71a.71.71,0,0,0,.66-.44.63.63,0,0,0,.06-.27Z"/><path class="cls-5" d="M308,400.41a.71.71,0,1,0-.71.71A.71.71,0,0,0,308,400.41Z"/><path class="cls-5" d="M307.29,385.45a.71.71,0,1,0,.71.71A.71.71,0,0,0,307.29,385.45Z"/><path class="cls-5" d="M300.88,407.54a.72.72,0,0,0-.72-.72v.72Z"/><path class="cls-5" d="M300.88,393.29a.72.72,0,0,0-.72-.72V394A.71.71,0,0,0,300.88,393.29Z"/><path class="cls-5" d="M300.16,379.75a.71.71,0,0,0,.72-.71h-.72Z"/><path class="cls-5" d="M306.58,414.66a.71.71,0,0,0,.13.4c.09-.34.18-.68.26-1A.71.71,0,0,0,306.58,414.66Z"/><path class="cls-5" d="M300.88,421.79a.72.72,0,0,0-.72-.72v1.43A.71.71,0,0,0,300.88,421.79Z"/><path class="cls-5" d="M300.16,407.54v.71a.71.71,0,0,0,.72-.71Z"/><path class="cls-5" d="M286.63,236.53a.6.6,0,0,0-.06-.27.71.71,0,0,0-.66-.44.7.7,0,0,0-.65.44.6.6,0,0,0-.06.27Z"/><path class="cls-5" d="M278.79,230.12a.7.7,0,0,0,.68-.58l-1.19-.63a.69.69,0,0,0-.2.5A.71.71,0,0,0,278.79,230.12Z"/><path class="cls-5" d="M272.37,236.53a.7.7,0,0,0-.2-.5.72.72,0,0,0-.51-.21v.71Z"/><path class="cls-5" d="M286.63,265a.6.6,0,0,0-.06-.27.71.71,0,0,0-.66-.44.7.7,0,0,0-.65.44.6.6,0,0,0-.06.27Z"/><path class="cls-5" d="M285.91,251.5a.72.72,0,1,0-.71-.72A.72.72,0,0,0,285.91,251.5Z"/><path class="cls-5" d="M278.79,258.62a.71.71,0,1,0,0-1.42.71.71,0,1,0,0,1.42Z"/><path class="cls-5" d="M293,258.62a.71.71,0,1,0,0-1.42.71.71,0,1,0,0,1.42Z"/><path class="cls-5" d="M278.79,244.37a.71.71,0,0,0,0-1.42.71.71,0,0,0,0,1.42Z"/><path class="cls-5" d="M292.33,243.66a.71.71,0,0,0,.71.71.7.7,0,0,0,.6-.35c-.07-.32-.14-.63-.2-.94a.7.7,0,0,0-1.11.58Z"/><path class="cls-5" d="M272.37,265a.7.7,0,0,0-.2-.5.72.72,0,0,0-.51-.21V265Z"/><path class="cls-5" d="M272.17,251.29a.74.74,0,0,0,0-1,.72.72,0,0,0-.51-.21v1.43A.72.72,0,0,0,272.17,251.29Z"/><path class="cls-5" d="M285.26,236.81a.7.7,0,0,0,.65.44.71.71,0,0,0,.66-.44.67.67,0,0,0,.06-.28H285.2A.67.67,0,0,0,285.26,236.81Z"/><path class="cls-5" d="M271.66,236.53v.72a.72.72,0,0,0,.51-.21,1.14,1.14,0,0,0,.15-.23.87.87,0,0,0,.05-.28Z"/><path class="cls-5" d="M300.16,293.53v-.71a.63.63,0,0,0-.27.06.71.71,0,0,0-.38.38.63.63,0,0,0-.06.27Z"/><path class="cls-5" d="M286.63,293.53a.63.63,0,0,0-.06-.27.71.71,0,0,0-.66-.44.7.7,0,0,0-.65.44.63.63,0,0,0-.06.27Z"/><path class="cls-5" d="M299.89,278.63a.7.7,0,0,0-.44.65.71.71,0,0,0,.44.66.63.63,0,0,0,.27.06v-1.43A.63.63,0,0,0,299.89,278.63Z"/><path class="cls-5" d="M285.91,278.57a.72.72,0,1,0,.72.71A.71.71,0,0,0,285.91,278.57Z"/><path class="cls-5" d="M278.79,287.12a.71.71,0,1,0,0-1.42.71.71,0,1,0,0,1.42Z"/><path class="cls-5" d="M293,287.12a.71.71,0,1,0,0-1.42.71.71,0,1,0,0,1.42Z"/><path class="cls-5" d="M278.79,272.87a.71.71,0,1,0,0-1.42.71.71,0,1,0,0,1.42Z"/><path class="cls-5" d="M293,272.87a.71.71,0,1,0,0-1.42.71.71,0,1,0,0,1.42Z"/><path class="cls-5" d="M272.37,293.53a.81.81,0,0,0-.05-.27.76.76,0,0,0-.15-.23.72.72,0,0,0-.51-.21v.71Z"/><path class="cls-5" d="M272.17,278.78a.72.72,0,0,0-.51-.21V280a.72.72,0,0,0,.51-.21.74.74,0,0,0,0-1Z"/><path class="cls-5" d="M285.91,265.75a.72.72,0,0,0,.72-.72H285.2A.71.71,0,0,0,285.91,265.75Z"/><path class="cls-5" d="M271.66,265v.72a.72.72,0,0,0,.51-.21.75.75,0,0,0,.2-.51Z"/><path class="cls-5" d="M300.16,321.32a.63.63,0,0,0-.27.06.71.71,0,0,0-.38.38.63.63,0,0,0-.06.27h.71Z"/><path class="cls-5" d="M286.63,322a.63.63,0,0,0-.06-.27.71.71,0,0,0-.66-.44.7.7,0,0,0-.65.44.63.63,0,0,0-.06.27Z"/><path class="cls-5" d="M299.89,308.44a.63.63,0,0,0,.27.06v-1.43a.63.63,0,0,0-.27.06.71.71,0,0,0,0,1.31Z"/><path class="cls-5" d="M285.91,308.5a.72.72,0,1,0-.71-.72A.72.72,0,0,0,285.91,308.5Z"/><path class="cls-5" d="M278.79,315.62a.71.71,0,1,0-.71-.71A.71.71,0,0,0,278.79,315.62Z"/><path class="cls-5" d="M293,315.62a.71.71,0,1,0-.71-.71A.71.71,0,0,0,293,315.62Z"/><path class="cls-5" d="M278.79,301.37a.71.71,0,1,0-.71-.71A.71.71,0,0,0,278.79,301.37Z"/><path class="cls-5" d="M293,301.37a.71.71,0,1,0-.71-.71A.71.71,0,0,0,293,301.37Z"/><path class="cls-5" d="M272.37,322a.81.81,0,0,0-.05-.27.91.91,0,0,0-.15-.23.72.72,0,0,0-.51-.21V322Z"/><path class="cls-5" d="M272.17,308.29a.74.74,0,0,0,0-1,.72.72,0,0,0-.51-.21v1.43A.72.72,0,0,0,272.17,308.29Z"/><path class="cls-5" d="M299.45,293.53a.64.64,0,0,0,.06.28.71.71,0,0,0,.38.38.63.63,0,0,0,.27.06v-.72Z"/><path class="cls-5" d="M285.26,293.81a.7.7,0,0,0,.65.44.71.71,0,0,0,.66-.44.64.64,0,0,0,.06-.28H285.2A.64.64,0,0,0,285.26,293.81Z"/><path class="cls-5" d="M271.66,293.53v.72a.72.72,0,0,0,.51-.21.91.91,0,0,0,.15-.23.82.82,0,0,0,.05-.28Z"/><path class="cls-5" d="M300.16,349.82a.63.63,0,0,0-.27.06.71.71,0,0,0-.44.66h.71Z"/><path class="cls-5" d="M285.91,349.82a.71.71,0,0,0-.71.72h1.43A.72.72,0,0,0,285.91,349.82Z"/><path class="cls-5" d="M299.89,335.63a.71.71,0,0,0,0,1.31.63.63,0,0,0,.27.06v-1.43A.63.63,0,0,0,299.89,335.63Z"/><path class="cls-5" d="M285.91,335.57a.72.72,0,1,0,.72.71A.71.71,0,0,0,285.91,335.57Z"/><path class="cls-5" d="M278.79,342.7a.71.71,0,1,0,.71.71A.71.71,0,0,0,278.79,342.7Z"/><path class="cls-5" d="M293,342.7a.71.71,0,1,0,.71.71A.71.71,0,0,0,293,342.7Z"/><path class="cls-5" d="M278.79,328.45a.71.71,0,1,0,.71.71A.71.71,0,0,0,278.79,328.45Z"/><path class="cls-5" d="M293,328.45a.71.71,0,1,0,.71.71A.71.71,0,0,0,293,328.45Z"/><path class="cls-5" d="M272.37,350.54a.75.75,0,0,0-.2-.51.72.72,0,0,0-.51-.21v.72Z"/><path class="cls-5" d="M272.17,335.78a.72.72,0,0,0-.51-.21V337a.72.72,0,0,0,.51-.21.74.74,0,0,0,0-1Z"/><path class="cls-5" d="M299.45,322a.71.71,0,0,0,.44.66.63.63,0,0,0,.27.06V322Z"/><path class="cls-5" d="M285.91,322.75a.72.72,0,0,0,.72-.72H285.2A.71.71,0,0,0,285.91,322.75Z"/><path class="cls-5" d="M271.66,322v.72a.72.72,0,0,0,.51-.21.75.75,0,0,0,.2-.51Z"/><path class="cls-5" d="M300.16,378.32a.63.63,0,0,0-.27.06.71.71,0,0,0-.38.38.64.64,0,0,0-.06.28h.71Z"/><path class="cls-5" d="M286.57,378.76a.71.71,0,0,0-.66-.44.7.7,0,0,0-.65.44.64.64,0,0,0-.06.28h1.43A.64.64,0,0,0,286.57,378.76Z"/><path class="cls-5" d="M299.89,364.13a.71.71,0,0,0,0,1.31.63.63,0,0,0,.27.06v-1.43A.63.63,0,0,0,299.89,364.13Z"/><path class="cls-5" d="M285.91,364.07a.72.72,0,1,0,.72.72A.71.71,0,0,0,285.91,364.07Z"/><path class="cls-5" d="M278.79,371.2a.71.71,0,1,0,.71.71A.71.71,0,0,0,278.79,371.2Z"/><path class="cls-5" d="M293,371.2a.71.71,0,1,0,.71.71A.71.71,0,0,0,293,371.2Z"/><path class="cls-5" d="M278.79,357a.71.71,0,1,0,.71.71A.71.71,0,0,0,278.79,357Z"/><path class="cls-5" d="M293,357a.71.71,0,1,0,.71.71A.71.71,0,0,0,293,357Z"/><path class="cls-5" d="M272.37,379a.82.82,0,0,0-.05-.28.91.91,0,0,0-.15-.23.72.72,0,0,0-.51-.21V379Z"/><path class="cls-5" d="M272.17,364.28a.72.72,0,0,0-.51-.21v1.43a.72.72,0,0,0,.51-.21.74.74,0,0,0,0-1Z"/><path class="cls-5" d="M299.45,350.54a.63.63,0,0,0,.06.27.71.71,0,0,0,.38.38.63.63,0,0,0,.27.06v-.71Z"/><path class="cls-5" d="M285.2,350.54a.63.63,0,0,0,.06.27.7.7,0,0,0,.65.44.71.71,0,0,0,.66-.44.63.63,0,0,0,.06-.27Z"/><path class="cls-5" d="M271.66,350.54v.71a.72.72,0,0,0,.51-.21.91.91,0,0,0,.15-.23.81.81,0,0,0,.05-.27Z"/><path class="cls-5" d="M300.16,406.82a.63.63,0,0,0-.27.06.71.71,0,0,0-.44.66h.71Z"/><path class="cls-5" d="M285.91,406.82a.71.71,0,0,0-.71.72h1.43A.72.72,0,0,0,285.91,406.82Z"/><path class="cls-5" d="M299.89,393.94a.63.63,0,0,0,.27.06v-1.43a.63.63,0,0,0-.27.06.71.71,0,0,0,0,1.31Z"/><path class="cls-5" d="M285.91,392.57a.72.72,0,1,0,.72.72A.71.71,0,0,0,285.91,392.57Z"/><path class="cls-5" d="M278.79,399.7a.71.71,0,1,0,.71.71A.71.71,0,0,0,278.79,399.7Z"/><path class="cls-5" d="M293,399.7a.71.71,0,1,0,.71.71A.71.71,0,0,0,293,399.7Z"/><path class="cls-5" d="M278.79,385.45a.71.71,0,1,0,.71.71A.71.71,0,0,0,278.79,385.45Z"/><path class="cls-5" d="M293,385.45a.71.71,0,1,0,.71.71A.71.71,0,0,0,293,385.45Z"/><path class="cls-5" d="M272.37,407.54a.75.75,0,0,0-.2-.51.72.72,0,0,0-.51-.21v.72Z"/><path class="cls-5" d="M272.17,392.78a.72.72,0,0,0-.51-.21V394a.72.72,0,0,0,.51-.21.74.74,0,0,0,0-1Z"/><path class="cls-5" d="M299.45,379a.71.71,0,0,0,.44.65.63.63,0,0,0,.27.06V379Z"/><path class="cls-5" d="M285.2,379a.72.72,0,0,0,1.43,0Z"/><path class="cls-5" d="M271.66,379v.71a.72.72,0,0,0,.51-.21.75.75,0,0,0,.2-.5Z"/><path class="cls-5" d="M285.91,435.33a.69.69,0,0,0-.65.43.67.67,0,0,0-.06.28h1.43a.67.67,0,0,0-.06-.28A.7.7,0,0,0,285.91,435.33Z"/><path class="cls-5" d="M300.16,421.07a.63.63,0,0,0-.27.06.71.71,0,0,0-.44.66.7.7,0,0,0,.44.65.63.63,0,0,0,.27.06Z"/><path class="cls-5" d="M285.91,421.07a.72.72,0,1,0,.72.72A.71.71,0,0,0,285.91,421.07Z"/><path class="cls-5" d="M278.79,428.2a.71.71,0,1,0,.71.71A.71.71,0,0,0,278.79,428.2Z"/><path class="cls-5" d="M293.75,428.91a.71.71,0,0,0-1.42,0,.71.71,0,0,0,1.42,0Z"/><path class="cls-5" d="M278.79,414a.71.71,0,1,0,.71.71A.71.71,0,0,0,278.79,414Z"/><path class="cls-5" d="M292.33,414.66A.71.71,0,1,0,293,414,.71.71,0,0,0,292.33,414.66Z"/><path class="cls-5" d="M272.37,436a.87.87,0,0,0-.05-.28.91.91,0,0,0-.15-.23.75.75,0,0,0-.51-.2V436Z"/><path class="cls-5" d="M272.17,421.28a.72.72,0,0,0-.51-.21v1.43a.72.72,0,0,0,.51-.21.74.74,0,0,0,0-1Z"/><path class="cls-5" d="M299.45,407.54a.71.71,0,0,0,.44.65.63.63,0,0,0,.27.06v-.71Z"/><path class="cls-5" d="M285.2,407.54a.72.72,0,0,0,1.43,0Z"/><path class="cls-5" d="M271.66,407.54v.71a.72.72,0,0,0,.51-.21.75.75,0,0,0,.2-.5Z"/><path class="cls-5" d="M285.91,436.75a.71.71,0,0,0,.72-.71H285.2A.71.71,0,0,0,285.91,436.75Z"/><path class="cls-5" d="M271.66,436v.71a.72.72,0,0,0,.51-.21.75.75,0,0,0,.2-.5Z"/><path class="cls-5" d="M271.66,235.82a.7.7,0,0,0-.65.44.6.6,0,0,0-.06.27h.71Z"/><path class="cls-5" d="M258.12,236.53a.76.76,0,0,0-.05-.27.71.71,0,0,0-.66-.44.7.7,0,0,0-.65.44.6.6,0,0,0-.06.27Z"/><path class="cls-5" d="M251,229.41a.72.72,0,0,0-1.43,0,.72.72,0,0,0,1.43,0Z"/><path class="cls-5" d="M265.25,229.41a.72.72,0,0,0-1.43,0,.72.72,0,0,0,1.43,0Z"/><path class="cls-5" d="M243.87,236.53a.76.76,0,0,0-.05-.27.71.71,0,0,0-.66-.44v.71Z"/><path class="cls-5" d="M271.66,265v-.71a.7.7,0,0,0-.65.44.6.6,0,0,0-.06.27Z"/><path class="cls-5" d="M258.12,265a.76.76,0,0,0-.05-.27.71.71,0,0,0-.66-.44.7.7,0,0,0-.65.44.6.6,0,0,0-.06.27Z"/><path class="cls-5" d="M271.66,251.5v-1.43a.72.72,0,0,0,0,1.43Z"/><path class="cls-5" d="M257.41,251.5a.72.72,0,1,0-.71-.72A.71.71,0,0,0,257.41,251.5Z"/><path class="cls-5" d="M250.29,258.62a.71.71,0,1,0-.72-.71A.71.71,0,0,0,250.29,258.62Z"/><path class="cls-5" d="M264.54,258.62a.71.71,0,1,0-.72-.71A.71.71,0,0,0,264.54,258.62Z"/><path class="cls-5" d="M250.29,244.37a.71.71,0,1,0-.72-.71A.71.71,0,0,0,250.29,244.37Z"/><path class="cls-5" d="M264.54,244.37a.71.71,0,1,0-.72-.71A.71.71,0,0,0,264.54,244.37Z"/><path class="cls-5" d="M243.87,265a.76.76,0,0,0-.05-.27.71.71,0,0,0-.66-.44V265Z"/><path class="cls-5" d="M243.87,250.78a.71.71,0,0,0-.71-.71v1.43A.71.71,0,0,0,243.87,250.78Z"/><path class="cls-5" d="M271.66,237.25v-.72H271a.67.67,0,0,0,.06.28A.7.7,0,0,0,271.66,237.25Z"/><path class="cls-5" d="M256.76,236.81a.7.7,0,0,0,.65.44.71.71,0,0,0,.66-.44.87.87,0,0,0,.05-.28H256.7A.67.67,0,0,0,256.76,236.81Z"/><path class="cls-5" d="M243.16,237.25a.71.71,0,0,0,.66-.44.87.87,0,0,0,.05-.28h-.71Z"/><path class="cls-5" d="M271.66,293.53v-.71a.7.7,0,0,0-.65.44.63.63,0,0,0-.06.27Z"/><path class="cls-5" d="M258.12,293.53a.81.81,0,0,0-.05-.27.71.71,0,0,0-.66-.44.7.7,0,0,0-.65.44.63.63,0,0,0-.06.27Z"/><path class="cls-5" d="M271,279.28a.71.71,0,0,0,.71.72v-1.43A.71.71,0,0,0,271,279.28Z"/><path class="cls-5" d="M257.41,278.57a.72.72,0,1,0,.71.71A.71.71,0,0,0,257.41,278.57Z"/><path class="cls-5" d="M250.29,287.12a.71.71,0,1,0-.72-.71A.71.71,0,0,0,250.29,287.12Z"/><path class="cls-5" d="M264.54,287.12a.71.71,0,1,0-.72-.71A.71.71,0,0,0,264.54,287.12Z"/><path class="cls-5" d="M250.29,272.87a.71.71,0,1,0-.72-.71A.71.71,0,0,0,250.29,272.87Z"/><path class="cls-5" d="M264.54,272.87a.71.71,0,1,0-.72-.71A.71.71,0,0,0,264.54,272.87Z"/><path class="cls-5" d="M243.87,293.53a.81.81,0,0,0-.05-.27.71.71,0,0,0-.66-.44v.71Z"/><path class="cls-5" d="M243.16,278.57V280a.72.72,0,0,0,0-1.43Z"/><path class="cls-5" d="M271,265a.71.71,0,0,0,.71.72V265Z"/><path class="cls-5" d="M257.41,265.75a.71.71,0,0,0,.71-.72H256.7A.71.71,0,0,0,257.41,265.75Z"/><path class="cls-5" d="M243.16,265.75a.71.71,0,0,0,.71-.72h-.71Z"/><path class="cls-5" d="M271.66,322v-.71a.7.7,0,0,0-.65.44.63.63,0,0,0-.06.27Z"/><path class="cls-5" d="M258.07,321.76a.71.71,0,0,0-.66-.44.7.7,0,0,0-.65.44.63.63,0,0,0-.06.27h1.42A.81.81,0,0,0,258.07,321.76Z"/><path class="cls-5" d="M271.66,308.5v-1.43a.72.72,0,0,0,0,1.43Z"/><path class="cls-5" d="M257.41,307.07a.72.72,0,1,0,.71.71A.71.71,0,0,0,257.41,307.07Z"/><path class="cls-5" d="M250.29,315.62a.71.71,0,1,0-.72-.71A.71.71,0,0,0,250.29,315.62Z"/><path class="cls-5" d="M264.54,315.62a.71.71,0,1,0-.72-.71A.71.71,0,0,0,264.54,315.62Z"/><path class="cls-5" d="M249.57,300.66a.72.72,0,1,0,.72-.71A.71.71,0,0,0,249.57,300.66Z"/><path class="cls-5" d="M264.54,301.37a.71.71,0,1,0-.72-.71A.71.71,0,0,0,264.54,301.37Z"/><path class="cls-5" d="M243.87,322a.81.81,0,0,0-.05-.27.71.71,0,0,0-.66-.44V322Z"/><path class="cls-5" d="M243.87,307.78a.71.71,0,0,0-.71-.71v1.43A.71.71,0,0,0,243.87,307.78Z"/><path class="cls-5" d="M271,293.53a.64.64,0,0,0,.06.28.7.7,0,0,0,.65.44v-.72Z"/><path class="cls-5" d="M256.76,293.81a.7.7,0,0,0,.65.44.71.71,0,0,0,.66-.44.82.82,0,0,0,.05-.28H256.7A.64.64,0,0,0,256.76,293.81Z"/><path class="cls-5" d="M243.16,294.25a.71.71,0,0,0,.66-.44.82.82,0,0,0,.05-.28h-.71Z"/><path class="cls-5" d="M271.66,349.82a.71.71,0,0,0-.71.72h.71Z"/><path class="cls-5" d="M257.41,349.82a.71.71,0,0,0-.71.72h1.42A.71.71,0,0,0,257.41,349.82Z"/><path class="cls-5" d="M271,336.28a.71.71,0,0,0,.71.72v-1.43A.71.71,0,0,0,271,336.28Z"/><path class="cls-5" d="M257.41,335.57a.72.72,0,1,0,.71.71A.71.71,0,0,0,257.41,335.57Z"/><path class="cls-5" d="M250.29,342.7a.71.71,0,1,0,.71.71A.71.71,0,0,0,250.29,342.7Z"/><circle class="cls-5" cx="264.54" cy="343.41" r="0.71"/><path class="cls-5" d="M250.29,328.45a.71.71,0,1,0,.71.71A.71.71,0,0,0,250.29,328.45Z"/><path class="cls-5" d="M264.54,328.45a.71.71,0,1,0,.71.71A.71.71,0,0,0,264.54,328.45Z"/><path class="cls-5" d="M243.87,350.54a.71.71,0,0,0-.71-.72v.72Z"/><path class="cls-5" d="M243.16,335.57V337a.72.72,0,0,0,0-1.43Z"/><path class="cls-5" d="M271,322a.71.71,0,0,0,.71.72V322Z"/><path class="cls-5" d="M257.41,322.75a.71.71,0,0,0,.71-.72H256.7A.71.71,0,0,0,257.41,322.75Z"/><path class="cls-5" d="M243.16,322.75a.71.71,0,0,0,.71-.72h-.71Z"/><path class="cls-5" d="M271.66,378.32a.7.7,0,0,0-.65.44.64.64,0,0,0-.06.28h.71Z"/><path class="cls-5" d="M258.07,378.76a.71.71,0,0,0-.66-.44.7.7,0,0,0-.65.44.64.64,0,0,0-.06.28h1.42A.82.82,0,0,0,258.07,378.76Z"/><path class="cls-5" d="M271,364.79a.71.71,0,0,0,.71.71v-1.43A.71.71,0,0,0,271,364.79Z"/><path class="cls-5" d="M257.41,364.07a.72.72,0,0,0,0,1.43.72.72,0,0,0,0-1.43Z"/><path class="cls-5" d="M250.29,371.2a.71.71,0,1,0,.71.71A.71.71,0,0,0,250.29,371.2Z"/><path class="cls-5" d="M264.54,371.2a.71.71,0,1,0,.71.71A.71.71,0,0,0,264.54,371.2Z"/><path class="cls-5" d="M250.29,357a.71.71,0,1,0,.71.71A.71.71,0,0,0,250.29,357Z"/><path class="cls-5" d="M264.54,357a.71.71,0,1,0,.71.71A.71.71,0,0,0,264.54,357Z"/><path class="cls-5" d="M243.16,378.32V379h.71a.82.82,0,0,0-.05-.28A.71.71,0,0,0,243.16,378.32Z"/><path class="cls-5" d="M243.16,364.07v1.43a.72.72,0,0,0,0-1.43Z"/><path class="cls-5" d="M271.66,351.25v-.71H271a.63.63,0,0,0,.06.27A.7.7,0,0,0,271.66,351.25Z"/><path class="cls-5" d="M256.7,350.54a.63.63,0,0,0,.06.27.7.7,0,0,0,.65.44.71.71,0,0,0,.66-.44.81.81,0,0,0,.05-.27Z"/><path class="cls-5" d="M243.16,350.54v.71a.71.71,0,0,0,.66-.44.81.81,0,0,0,.05-.27Z"/><path class="cls-5" d="M271.66,406.82a.71.71,0,0,0-.71.72h.71Z"/><path class="cls-5" d="M257.41,406.82a.71.71,0,0,0-.71.72h1.42A.71.71,0,0,0,257.41,406.82Z"/><path class="cls-5" d="M271,393.29a.71.71,0,0,0,.71.71v-1.43A.71.71,0,0,0,271,393.29Z"/><path class="cls-5" d="M257.41,392.57a.72.72,0,0,0,0,1.43.72.72,0,0,0,0-1.43Z"/><path class="cls-5" d="M251,400.41a.72.72,0,1,0-.71.71A.71.71,0,0,0,251,400.41Z"/><path class="cls-5" d="M264.54,399.7a.71.71,0,1,0,0,1.42.71.71,0,1,0,0-1.42Z"/><path class="cls-5" d="M250.29,385.45a.71.71,0,1,0,.71.71A.71.71,0,0,0,250.29,385.45Z"/><path class="cls-5" d="M264.54,385.45a.71.71,0,1,0,.71.71A.71.71,0,0,0,264.54,385.45Z"/><path class="cls-5" d="M243.87,407.54a.71.71,0,0,0-.71-.72v.72Z"/><path class="cls-5" d="M243.16,392.57V394a.72.72,0,0,0,0-1.43Z"/><path class="cls-5" d="M271.66,379.75V379H271A.71.71,0,0,0,271.66,379.75Z"/><path class="cls-5" d="M256.7,379a.71.71,0,0,0,1.42,0Z"/><path class="cls-5" d="M243.16,379.75a.71.71,0,0,0,.71-.71h-.71Z"/><path class="cls-5" d="M271.66,435.33a.69.69,0,0,0-.65.43.67.67,0,0,0-.06.28h.71Z"/><path class="cls-5" d="M257.41,435.33a.68.68,0,0,0-.55.28l1.22.19a.08.08,0,0,1,0,0A.7.7,0,0,0,257.41,435.33Z"/><path class="cls-5" d="M271,421.79a.71.71,0,0,0,.71.71v-1.43A.71.71,0,0,0,271,421.79Z"/><path class="cls-5" d="M257.41,421.07a.72.72,0,0,0,0,1.43.72.72,0,0,0,0-1.43Z"/><path class="cls-5" d="M250.29,428.2a.71.71,0,1,0,0,1.42.71.71,0,0,0,0-1.42Z"/><path class="cls-5" d="M264.54,429.62a.71.71,0,1,0,0-1.42.71.71,0,1,0,0,1.42Z"/><path class="cls-5" d="M250.29,414a.71.71,0,1,0,.71.71A.71.71,0,0,0,250.29,414Z"/><path class="cls-5" d="M263.82,414.66a.72.72,0,1,0,.72-.71A.71.71,0,0,0,263.82,414.66Z"/><path class="cls-5" d="M243.16,421.07v1.43a.72.72,0,0,0,0-1.43Z"/><path class="cls-5" d="M271.66,408.25v-.71H271A.71.71,0,0,0,271.66,408.25Z"/><path class="cls-5" d="M257.41,408.25a.71.71,0,0,0,.71-.71H256.7A.71.71,0,0,0,257.41,408.25Z"/><path class="cls-5" d="M243.16,407.54v.71a.71.71,0,0,0,.71-.71Z"/><path class="cls-5" d="M271.66,436.75V436H271A.71.71,0,0,0,271.66,436.75Z"/><path class="cls-5" d="M243.16,236.53v-.71a.7.7,0,0,0-.65.44.6.6,0,0,0-.06.27Z"/><path class="cls-5" d="M229.62,236.53a.76.76,0,0,0-.05-.27.71.71,0,0,0-.66-.44.72.72,0,0,0-.66.44.76.76,0,0,0-.05.27Z"/><path class="cls-5" d="M243.16,265v-.71a.7.7,0,0,0-.65.44.6.6,0,0,0-.06.27Z"/><path class="cls-5" d="M229.57,264.76a.71.71,0,0,0-.66-.44.72.72,0,0,0-.66.44.76.76,0,0,0-.05.27h1.42A.76.76,0,0,0,229.57,264.76Z"/><path class="cls-5" d="M243.16,251.5v-1.43a.72.72,0,0,0,0,1.43Z"/><path class="cls-5" d="M228.91,250.07a.72.72,0,1,0,.71.71A.71.71,0,0,0,228.91,250.07Z"/><path class="cls-5" d="M221.79,258.62a.71.71,0,1,0-.72-.71A.71.71,0,0,0,221.79,258.62Z"/><path class="cls-5" d="M236,258.62a.71.71,0,1,0-.72-.71A.71.71,0,0,0,236,258.62Z"/><path class="cls-5" d="M221.07,243.66a.72.72,0,0,0,1.43,0,.72.72,0,0,0-1.43,0Z"/><path class="cls-5" d="M236,244.37a.71.71,0,1,0-.72-.71A.71.71,0,0,0,236,244.37Z"/><path class="cls-5" d="M214.66,264.32V265h.71a.76.76,0,0,0-.05-.27A.72.72,0,0,0,214.66,264.32Z"/><path class="cls-5" d="M214.66,250.07v1.43a.72.72,0,0,0,0-1.43Z"/><path class="cls-5" d="M242.45,236.53a.67.67,0,0,0,.06.28.7.7,0,0,0,.65.44v-.72Z"/><path class="cls-5" d="M228.25,236.81a.72.72,0,0,0,.66.44.71.71,0,0,0,.66-.44.87.87,0,0,0,.05-.28H228.2A.87.87,0,0,0,228.25,236.81Z"/><path class="cls-5" d="M214.66,237.16v.09a.7.7,0,0,0,.51-.23Z"/><path class="cls-5" d="M243.16,292.82a.7.7,0,0,0-.65.44.63.63,0,0,0-.06.27h.71Z"/><path class="cls-5" d="M229.62,293.53a.81.81,0,0,0-.05-.27.71.71,0,0,0-.66-.44.72.72,0,0,0-.66.44.81.81,0,0,0-.05.27Z"/><path class="cls-5" d="M242.45,279.28a.71.71,0,0,0,.71.72v-1.43A.71.71,0,0,0,242.45,279.28Z"/><path class="cls-5" d="M228.91,278.57a.72.72,0,1,0,.71.71A.71.71,0,0,0,228.91,278.57Z"/><path class="cls-5" d="M221.79,287.12a.71.71,0,1,0-.72-.71A.71.71,0,0,0,221.79,287.12Z"/><path class="cls-5" d="M236,287.12a.71.71,0,1,0-.72-.71A.71.71,0,0,0,236,287.12Z"/><path class="cls-5" d="M221.79,272.87a.71.71,0,1,0-.72-.71A.71.71,0,0,0,221.79,272.87Z"/><path class="cls-5" d="M235.32,272.16a.72.72,0,0,0,1.43,0,.72.72,0,0,0-1.43,0Z"/><path class="cls-5" d="M214.66,292.82v.71h.71a.81.81,0,0,0-.05-.27A.72.72,0,0,0,214.66,292.82Z"/><path class="cls-5" d="M215.37,279.28a.71.71,0,0,0-.71-.71V280A.71.71,0,0,0,215.37,279.28Z"/><path class="cls-5" d="M242.45,265a.71.71,0,0,0,.71.72V265Z"/><path class="cls-5" d="M228.91,265.75a.71.71,0,0,0,.71-.72H228.2A.71.71,0,0,0,228.91,265.75Z"/><path class="cls-5" d="M214.66,265.75a.71.71,0,0,0,.71-.72h-.71Z"/><path class="cls-5" d="M243.16,322v-.71a.7.7,0,0,0-.65.44.63.63,0,0,0-.06.27Z"/><path class="cls-5" d="M229.62,322a.81.81,0,0,0-.05-.27.71.71,0,0,0-.66-.44.72.72,0,0,0-.66.44.81.81,0,0,0-.05.27Z"/><path class="cls-5" d="M243.16,308.5v-1.43a.72.72,0,0,0,0,1.43Z"/><path class="cls-5" d="M228.91,308.5a.72.72,0,1,0-.71-.72A.71.71,0,0,0,228.91,308.5Z"/><path class="cls-5" d="M221.79,315.62a.71.71,0,1,0-.72-.71A.71.71,0,0,0,221.79,315.62Z"/><path class="cls-5" d="M236,315.62a.71.71,0,1,0-.72-.71A.71.71,0,0,0,236,315.62Z"/><path class="cls-5" d="M221.79,301.37a.71.71,0,1,0-.72-.71A.71.71,0,0,0,221.79,301.37Z"/><path class="cls-5" d="M236,301.37a.71.71,0,1,0-.72-.71A.71.71,0,0,0,236,301.37Z"/><path class="cls-5" d="M214.66,321.32V322h.71a.81.81,0,0,0-.05-.27A.72.72,0,0,0,214.66,321.32Z"/><path class="cls-5" d="M215.37,307.78a.71.71,0,0,0-.71-.71v1.43A.71.71,0,0,0,215.37,307.78Z"/><path class="cls-5" d="M243.16,294.25v-.72h-.71a.64.64,0,0,0,.06.28A.7.7,0,0,0,243.16,294.25Z"/><path class="cls-5" d="M228.25,293.81a.72.72,0,0,0,.66.44.71.71,0,0,0,.66-.44.82.82,0,0,0,.05-.28H228.2A.82.82,0,0,0,228.25,293.81Z"/><path class="cls-5" d="M214.66,294.25a.72.72,0,0,0,.66-.44.82.82,0,0,0,.05-.28h-.71Z"/><path class="cls-5" d="M243.16,349.82a.71.71,0,0,0-.71.72h.71Z"/><path class="cls-5" d="M228.91,349.82a.71.71,0,0,0-.71.72h1.42A.71.71,0,0,0,228.91,349.82Z"/><path class="cls-5" d="M242.45,336.28a.71.71,0,0,0,.71.72v-1.43A.71.71,0,0,0,242.45,336.28Z"/><path class="cls-5" d="M228.91,335.57a.72.72,0,1,0,.71.71A.71.71,0,0,0,228.91,335.57Z"/><path class="cls-5" d="M222.5,343.41a.72.72,0,1,0-.71.71A.71.71,0,0,0,222.5,343.41Z"/><path class="cls-5" d="M236,342.7a.71.71,0,1,0,.71.71A.71.71,0,0,0,236,342.7Z"/><path class="cls-5" d="M221.79,328.45a.71.71,0,1,0,.71.71A.71.71,0,0,0,221.79,328.45Z"/><path class="cls-5" d="M236,328.45a.71.71,0,1,0,.71.71A.71.71,0,0,0,236,328.45Z"/><path class="cls-5" d="M215.37,350.54a.71.71,0,0,0-.71-.72v.72Z"/><path class="cls-5" d="M215.37,336.28a.71.71,0,0,0-.71-.71V337A.71.71,0,0,0,215.37,336.28Z"/><path class="cls-5" d="M242.45,322a.71.71,0,0,0,.71.72V322Z"/><path class="cls-5" d="M228.91,322.75a.71.71,0,0,0,.71-.72H228.2A.71.71,0,0,0,228.91,322.75Z"/><path class="cls-5" d="M214.66,322.75a.71.71,0,0,0,.71-.72h-.71Z"/><path class="cls-5" d="M243.16,378.32a.7.7,0,0,0-.65.44.64.64,0,0,0-.06.28h.71Z"/><path class="cls-5" d="M229.57,378.76a.71.71,0,0,0-.66-.44.72.72,0,0,0-.66.44.82.82,0,0,0-.05.28h1.42A.82.82,0,0,0,229.57,378.76Z"/><path class="cls-5" d="M242.45,364.79a.71.71,0,0,0,.71.71v-1.43A.71.71,0,0,0,242.45,364.79Z"/><path class="cls-5" d="M228.91,365.5a.72.72,0,1,0-.71-.71A.71.71,0,0,0,228.91,365.5Z"/><path class="cls-5" d="M221.79,371.2a.71.71,0,1,0,.71.71A.71.71,0,0,0,221.79,371.2Z"/><path class="cls-5" d="M236.75,371.91a.72.72,0,1,0-.71.71A.71.71,0,0,0,236.75,371.91Z"/><path class="cls-5" d="M221.79,357a.71.71,0,1,0,.71.71A.71.71,0,0,0,221.79,357Z"/><path class="cls-5" d="M236,357a.71.71,0,1,0,.71.71A.71.71,0,0,0,236,357Z"/><path class="cls-5" d="M215.37,379a.82.82,0,0,0-.05-.28.72.72,0,0,0-.66-.44V379Z"/><path class="cls-5" d="M214.66,364.07v1.43a.72.72,0,0,0,0-1.43Z"/><path class="cls-5" d="M242.45,350.54a.63.63,0,0,0,.06.27.7.7,0,0,0,.65.44v-.71Z"/><path class="cls-5" d="M228.25,350.81a.72.72,0,0,0,.66.44.71.71,0,0,0,.66-.44.81.81,0,0,0,.05-.27H228.2A.81.81,0,0,0,228.25,350.81Z"/><path class="cls-5" d="M214.66,350.54v.71a.72.72,0,0,0,.66-.44.81.81,0,0,0,.05-.27Z"/><path class="cls-5" d="M243.16,406.82a.71.71,0,0,0-.71.72h.71Z"/><path class="cls-5" d="M228.91,406.82a.71.71,0,0,0-.71.72h1.42A.71.71,0,0,0,228.91,406.82Z"/><path class="cls-5" d="M242.45,393.29a.71.71,0,0,0,.71.71v-1.43A.71.71,0,0,0,242.45,393.29Z"/><path class="cls-5" d="M228.91,392.57a.72.72,0,1,0,.71.72A.71.71,0,0,0,228.91,392.57Z"/><path class="cls-5" d="M221.79,399.7a.71.71,0,1,0,0,1.42.71.71,0,0,0,0-1.42Z"/><path class="cls-5" d="M236,399.7a.71.71,0,1,0,0,1.42.71.71,0,0,0,0-1.42Z"/><path class="cls-5" d="M221.79,385.45a.71.71,0,1,0,.71.71A.71.71,0,0,0,221.79,385.45Z"/><path class="cls-5" d="M236,385.45a.71.71,0,1,0,.71.71A.71.71,0,0,0,236,385.45Z"/><path class="cls-5" d="M215.37,407.54a.71.71,0,0,0-.71-.72v.72Z"/><path class="cls-5" d="M214.66,392.57V394a.72.72,0,0,0,0-1.43Z"/><path class="cls-5" d="M242.45,379a.71.71,0,0,0,.71.71V379Z"/><path class="cls-5" d="M228.2,379a.71.71,0,1,0,1.42,0Z"/><path class="cls-5" d="M214.66,379v.71a.71.71,0,0,0,.71-.71Z"/><path class="cls-5" d="M242.45,421.79a.71.71,0,0,0,.71.71v-1.43A.71.71,0,0,0,242.45,421.79Z"/><path class="cls-5" d="M228.91,421.07a.72.72,0,1,0,.71.72A.71.71,0,0,0,228.91,421.07Z"/><path class="cls-5" d="M236,428.2a.71.71,0,1,0,0,1.42.71.71,0,0,0,0-1.42Z"/><path class="cls-5" d="M221.07,414.66a.72.72,0,1,0,.72-.71A.71.71,0,0,0,221.07,414.66Z"/><path class="cls-5" d="M236,414a.71.71,0,1,0,.71.71A.71.71,0,0,0,236,414Z"/><path class="cls-5" d="M215.37,421.79a.71.71,0,0,0-.71-.72v1.43A.71.71,0,0,0,215.37,421.79Z"/><path class="cls-5" d="M242.45,407.54a.71.71,0,0,0,.71.71v-.71Z"/><path class="cls-5" d="M228.2,407.54a.71.71,0,1,0,1.42,0Z"/><path class="cls-5" d="M214.66,407.54v.71a.71.71,0,0,0,.71-.71Z"/><path class="cls-5" d="M214.66,264.32a.67.67,0,0,0-.28.06.74.74,0,0,0-.38.38.76.76,0,0,0-.05.27h.71Z"/><path class="cls-5" d="M201.12,265a.76.76,0,0,0-.05-.27.72.72,0,0,0-.66-.44.71.71,0,0,0-.66.44.76.76,0,0,0-.05.27Z"/><path class="cls-5" d="M214.38,250.13a.7.7,0,0,0-.43.65.72.72,0,0,0,.43.66.67.67,0,0,0,.28.06v-1.43A.67.67,0,0,0,214.38,250.13Z"/><path class="cls-5" d="M200.41,250.07a.72.72,0,1,0,.71.71A.71.71,0,0,0,200.41,250.07Z"/><path class="cls-5" d="M194,257.91a.72.72,0,1,0-.72.71A.71.71,0,0,0,194,257.91Z"/><path class="cls-5" d="M207.53,258.62a.71.71,0,1,0,0-1.42.71.71,0,1,0,0,1.42Z"/><path class="cls-5" d="M207.53,244.37a.71.71,0,1,0,0-1.42.71.71,0,0,0,0,1.42Z"/><path class="cls-5" d="M214.49,237.21a1,1,0,0,0,.17,0v-.09Z"/><path class="cls-5" d="M214.66,292.82a.67.67,0,0,0-.28.06.74.74,0,0,0-.38.38.81.81,0,0,0-.05.27h.71Z"/><path class="cls-5" d="M201.07,293.26a.72.72,0,0,0-.66-.44.71.71,0,0,0-.66.44.81.81,0,0,0-.05.27h1.42A.81.81,0,0,0,201.07,293.26Z"/><path class="cls-5" d="M214.38,279.94a.67.67,0,0,0,.28.06v-1.43a.67.67,0,0,0-.28.06.7.7,0,0,0-.43.65A.72.72,0,0,0,214.38,279.94Z"/><path class="cls-5" d="M200.41,278.57a.72.72,0,1,0,.71.71A.71.71,0,0,0,200.41,278.57Z"/><path class="cls-5" d="M193.28,287.12a.71.71,0,1,0,0-1.42.71.71,0,1,0,0,1.42Z"/><path class="cls-5" d="M207.53,287.12a.71.71,0,1,0,0-1.42.71.71,0,1,0,0,1.42Z"/><path class="cls-5" d="M192.57,272.16a.72.72,0,1,0,.71-.71A.71.71,0,0,0,192.57,272.16Z"/><path class="cls-5" d="M207.53,272.87a.71.71,0,1,0,0-1.42.71.71,0,1,0,0,1.42Z"/><path class="cls-5" d="M186.66,293a.69.69,0,0,0-.5-.21v.71h.71a.81.81,0,0,0-.05-.27A.63.63,0,0,0,186.66,293Z"/><path class="cls-5" d="M186.16,278.57V280a.69.69,0,0,0,.5-.21.71.71,0,0,0,0-1A.69.69,0,0,0,186.16,278.57Z"/><path class="cls-5" d="M214,265a.72.72,0,0,0,.43.66.67.67,0,0,0,.28.06V265Z"/><path class="cls-5" d="M200.41,265.75a.71.71,0,0,0,.71-.72H199.7A.71.71,0,0,0,200.41,265.75Z"/><path class="cls-5" d="M214.66,321.32a.67.67,0,0,0-.28.06.74.74,0,0,0-.38.38.81.81,0,0,0-.05.27h.71Z"/><path class="cls-5" d="M201.12,322a.81.81,0,0,0-.05-.27.72.72,0,0,0-.66-.44.71.71,0,0,0-.66.44.81.81,0,0,0-.05.27Z"/><path class="cls-5" d="M214.38,308.44a.67.67,0,0,0,.28.06v-1.43a.67.67,0,0,0-.28.06.71.71,0,0,0,0,1.31Z"/><path class="cls-5" d="M200.41,308.5a.72.72,0,1,0-.71-.72A.71.71,0,0,0,200.41,308.5Z"/><path class="cls-5" d="M193.28,315.62a.71.71,0,1,0-.71-.71A.71.71,0,0,0,193.28,315.62Z"/><path class="cls-5" d="M207.53,315.62a.71.71,0,1,0-.71-.71A.71.71,0,0,0,207.53,315.62Z"/><path class="cls-5" d="M193.28,301.37a.71.71,0,1,0-.71-.71A.71.71,0,0,0,193.28,301.37Z"/><path class="cls-5" d="M206.82,300.66a.72.72,0,1,0,.71-.71A.71.71,0,0,0,206.82,300.66Z"/><path class="cls-5" d="M186.87,322a.81.81,0,0,0-.05-.27.73.73,0,0,0-.16-.23.69.69,0,0,0-.5-.21V322Z"/><path class="cls-5" d="M186.66,308.29a.71.71,0,0,0,0-1,.69.69,0,0,0-.5-.21v1.43A.69.69,0,0,0,186.66,308.29Z"/><path class="cls-5" d="M214,293.53a.82.82,0,0,0,.05.28.74.74,0,0,0,.38.38.67.67,0,0,0,.28.06v-.72Z"/><path class="cls-5" d="M200.41,294.25a.72.72,0,0,0,.66-.44.82.82,0,0,0,.05-.28H199.7a.82.82,0,0,0,.05.28A.71.71,0,0,0,200.41,294.25Z"/><path class="cls-5" d="M186.16,293.53v.72a.69.69,0,0,0,.5-.21.73.73,0,0,0,.16-.23.82.82,0,0,0,.05-.28Z"/><path class="cls-5" d="M214.66,349.82a.67.67,0,0,0-.28.06.72.72,0,0,0-.43.66h.71Z"/><path class="cls-5" d="M200.41,349.82a.71.71,0,0,0-.71.72h1.42A.71.71,0,0,0,200.41,349.82Z"/><path class="cls-5" d="M214.38,336.94a.67.67,0,0,0,.28.06v-1.43a.67.67,0,0,0-.28.06.71.71,0,0,0,0,1.31Z"/><path class="cls-5" d="M200.41,335.57a.72.72,0,1,0,.71.71A.71.71,0,0,0,200.41,335.57Z"/><path class="cls-5" d="M193.28,342.7a.71.71,0,1,0,.72.71A.71.71,0,0,0,193.28,342.7Z"/><path class="cls-5" d="M207.53,344.12a.71.71,0,1,0-.71-.71A.71.71,0,0,0,207.53,344.12Z"/><path class="cls-5" d="M193.28,328.45a.71.71,0,1,0,.72.71A.71.71,0,0,0,193.28,328.45Z"/><path class="cls-5" d="M207.53,329.87a.71.71,0,1,0-.71-.71A.71.71,0,0,0,207.53,329.87Z"/><path class="cls-5" d="M186.87,350.54a.72.72,0,0,0-.21-.51.69.69,0,0,0-.5-.21v.72Z"/><path class="cls-5" d="M186.66,335.78a.69.69,0,0,0-.5-.21V337a.69.69,0,0,0,.5-.21.71.71,0,0,0,0-1Z"/><path class="cls-5" d="M214,322a.72.72,0,0,0,.43.66.67.67,0,0,0,.28.06V322Z"/><path class="cls-5" d="M200.41,322.75a.71.71,0,0,0,.71-.72H199.7A.71.71,0,0,0,200.41,322.75Z"/><path class="cls-5" d="M186.16,322v.72a.69.69,0,0,0,.5-.21.72.72,0,0,0,.21-.51Z"/><path class="cls-5" d="M214.66,378.32a.67.67,0,0,0-.28.06.74.74,0,0,0-.38.38.82.82,0,0,0-.05.28h.71Z"/><path class="cls-5" d="M201.07,378.76a.72.72,0,0,0-.66-.44.71.71,0,0,0-.66.44.82.82,0,0,0-.05.28h1.42A.82.82,0,0,0,201.07,378.76Z"/><path class="cls-5" d="M214.38,364.13a.71.71,0,0,0,0,1.31.67.67,0,0,0,.28.06v-1.43A.67.67,0,0,0,214.38,364.13Z"/><path class="cls-5" d="M200.41,364.07a.72.72,0,1,0,.71.72A.71.71,0,0,0,200.41,364.07Z"/><path class="cls-5" d="M193.28,371.2a.71.71,0,1,0,.72.71A.71.71,0,0,0,193.28,371.2Z"/><path class="cls-5" d="M207.53,371.2a.71.71,0,1,0,.72.71A.71.71,0,0,0,207.53,371.2Z"/><path class="cls-5" d="M193.28,357a.71.71,0,1,0,.72.71A.71.71,0,0,0,193.28,357Z"/><path class="cls-5" d="M207.53,357a.71.71,0,1,0,.72.71A.71.71,0,0,0,207.53,357Z"/><path class="cls-5" d="M186.66,378.53a.69.69,0,0,0-.5-.21V379h.71a.82.82,0,0,0-.05-.28A.73.73,0,0,0,186.66,378.53Z"/><path class="cls-5" d="M186.66,364.28a.69.69,0,0,0-.5-.21v1.43a.69.69,0,0,0,.5-.21.71.71,0,0,0,0-1Z"/><path class="cls-5" d="M214,350.54a.81.81,0,0,0,.05.27.74.74,0,0,0,.38.38.67.67,0,0,0,.28.06v-.71Z"/><path class="cls-5" d="M200.41,351.25a.72.72,0,0,0,.66-.44.81.81,0,0,0,.05-.27H199.7a.81.81,0,0,0,.05.27A.71.71,0,0,0,200.41,351.25Z"/><path class="cls-5" d="M186.16,350.54v.71a.69.69,0,0,0,.5-.21.73.73,0,0,0,.16-.23.81.81,0,0,0,.05-.27Z"/><path class="cls-5" d="M214.66,406.82a.67.67,0,0,0-.28.06.72.72,0,0,0-.43.66h.71Z"/><path class="cls-5" d="M200.41,406.82a.71.71,0,0,0-.71.72h1.42A.71.71,0,0,0,200.41,406.82Z"/><path class="cls-5" d="M214.38,392.63a.71.71,0,0,0,0,1.31.67.67,0,0,0,.28.06v-1.43A.67.67,0,0,0,214.38,392.63Z"/><path class="cls-5" d="M200.41,392.57a.72.72,0,1,0,.71.72A.71.71,0,0,0,200.41,392.57Z"/><path class="cls-5" d="M193.28,401.12a.71.71,0,1,0-.71-.71A.71.71,0,0,0,193.28,401.12Z"/><path class="cls-5" d="M207.53,399.7a.71.71,0,1,0,.72.71A.71.71,0,0,0,207.53,399.7Z"/><path class="cls-5" d="M192.57,386.16a.72.72,0,1,0,.71-.71A.71.71,0,0,0,192.57,386.16Z"/><path class="cls-5" d="M207.53,385.45a.71.71,0,1,0,.72.71A.71.71,0,0,0,207.53,385.45Z"/><path class="cls-5" d="M186.66,393.79a.71.71,0,0,0,0-1,.69.69,0,0,0-.5-.21V394A.69.69,0,0,0,186.66,393.79Z"/><path class="cls-5" d="M214,379a.72.72,0,0,0,.43.65.67.67,0,0,0,.28.06V379Z"/><path class="cls-5" d="M200.41,379.75a.71.71,0,0,0,.71-.71H199.7A.71.71,0,0,0,200.41,379.75Z"/><path class="cls-5" d="M186.16,379v.71a.69.69,0,0,0,.5-.21.71.71,0,0,0,.21-.5Z"/><path class="cls-5" d="M214.66,421.07a.67.67,0,0,0-.28.06.72.72,0,0,0-.43.66.7.7,0,0,0,.43.65.67.67,0,0,0,.28.06Z"/><path class="cls-5" d="M206.82,414.66a.72.72,0,1,0,.71-.71A.71.71,0,0,0,206.82,414.66Z"/><path class="cls-5" d="M214,407.54a.72.72,0,0,0,.43.65.67.67,0,0,0,.28.06v-.71Z"/><path class="cls-5" d="M200.41,408.25a.71.71,0,0,0,.71-.71H199.7A.71.71,0,0,0,200.41,408.25Z"/><path class="cls-5" d="M186.16,292.82a.71.71,0,0,0-.66.44.81.81,0,0,0-.05.27h.71Z"/><path class="cls-5" d="M185.45,279.28a.71.71,0,0,0,.71.72v-1.43A.71.71,0,0,0,185.45,279.28Z"/><path class="cls-5" d="M186.16,321.32a.71.71,0,0,0-.66.44.81.81,0,0,0-.05.27h.71Z"/><path class="cls-5" d="M186.16,308.5v-1.43a.72.72,0,0,0,0,1.43Z"/><path class="cls-5" d="M179.75,314.91a.73.73,0,0,0-.48-.67c0,.45,0,.89,0,1.34A.71.71,0,0,0,179.75,314.91Z"/><path class="cls-5" d="M185.45,293.53a.82.82,0,0,0,.05.28.71.71,0,0,0,.66.44v-.72Z"/><path class="cls-5" d="M186.16,349.82a.71.71,0,0,0-.71.72h.71Z"/><path class="cls-5" d="M185.45,336.28a.71.71,0,0,0,.71.72v-1.43A.71.71,0,0,0,185.45,336.28Z"/><path class="cls-5" d="M179.27,328.5c0,.44,0,.88,0,1.32a.73.73,0,0,0,.44-.66A.69.69,0,0,0,179.27,328.5Z"/><path class="cls-5" d="M186.16,322.75V322h-.71A.71.71,0,0,0,186.16,322.75Z"/><path class="cls-5" d="M186.16,378.32a.71.71,0,0,0-.66.44.82.82,0,0,0-.05.28h.71Z"/><path class="cls-5" d="M185.45,364.79a.71.71,0,0,0,.71.71v-1.43A.71.71,0,0,0,185.45,364.79Z"/><path class="cls-5" d="M185.45,350.54a.81.81,0,0,0,.05.27.71.71,0,0,0,.66.44v-.71Z"/><path class="cls-5" d="M186.16,392.57a.72.72,0,0,0,0,1.43Z"/><path class="cls-5" d="M185.45,379a.71.71,0,0,0,.71.71V379Z"/><path class="cls-6" d="M242,289.25l-26.39,13.19L210.37,282l-19.13,9.24-5.13-20.53a128.83,128.83,0,0,0-5,20.86c-.08.48-.15,1-.22,1.47l7.06,23.27,11.87-8.58L210.37,342l21.11-13.86,9.9,36.29,34.31-11.22.65-29-21.11,4.62Z"/><path class="cls-4" d="M259.06,312.89c3.56,44.77-10.88,104.27-14.35,121.29A229.44,229.44,0,0,0,272,440.51a205.17,205.17,0,0,0,38.72,2.38c.05,0,2.29-15,2.33-15,1.84-10.85,5.36-37.53,4.21-74.81-1.4-45.55-11.22-99.15-16.12-108.53-4-7.62-13.08-10.37-16.34-11.14"/><path class="cls-5" d="M300.16,264.32V265h.72a.6.6,0,0,0-.06-.27A.71.71,0,0,0,300.16,264.32Z"/><path class="cls-5" d="M300.16,250.07v1.43a.72.72,0,1,0,0-1.43Z"/><path class="cls-5" d="M308,286.41a.71.71,0,1,0-.71.71A.71.71,0,0,0,308,286.41Z"/><path class="cls-5" d="M306.58,272.16a.71.71,0,1,0,.71-.71A.71.71,0,0,0,306.58,272.16Z"/><path class="cls-5" d="M300.88,293.53a.63.63,0,0,0-.06-.27.71.71,0,0,0-.66-.44v.71Z"/><path class="cls-5" d="M300.88,279.28a.71.71,0,0,0-.72-.71V280A.72.72,0,0,0,300.88,279.28Z"/><path class="cls-5" d="M300.16,265.75a.72.72,0,0,0,.72-.72h-.72Z"/><path class="cls-5" d="M315.07,321.76a.71.71,0,0,0-1.31,0,.63.63,0,0,0-.06.27h1.43A.63.63,0,0,0,315.07,321.76Z"/><path class="cls-5" d="M308,314.91a.71.71,0,1,0-.71.71A.71.71,0,0,0,308,314.91Z"/><path class="cls-5" d="M307.29,300a.71.71,0,1,0,.71.71A.71.71,0,0,0,307.29,300Z"/><path class="cls-5" d="M300.88,322a.63.63,0,0,0-.06-.27.71.71,0,0,0-.66-.44V322Z"/><path class="cls-5" d="M300.88,307.78a.71.71,0,0,0-.72-.71v1.43A.72.72,0,0,0,300.88,307.78Z"/><path class="cls-5" d="M300.16,294.25a.71.71,0,0,0,.66-.44.64.64,0,0,0,.06-.28h-.72Z"/><path class="cls-5" d="M314.41,349.82a.71.71,0,0,0-.71.72h1.43A.72.72,0,0,0,314.41,349.82Z"/><path class="cls-5" d="M314.41,335.57a.72.72,0,1,0,.72.71A.71.71,0,0,0,314.41,335.57Z"/><path class="cls-5" d="M307.29,342.7a.71.71,0,1,0,.71.71A.71.71,0,0,0,307.29,342.7Z"/><path class="cls-5" d="M307.29,328.45a.71.71,0,1,0,.71.71A.71.71,0,0,0,307.29,328.45Z"/><path class="cls-5" d="M300.16,349.82v.72h.72A.72.72,0,0,0,300.16,349.82Z"/><path class="cls-5" d="M300.16,335.57V337a.72.72,0,1,0,0-1.43Z"/><path class="cls-5" d="M314.41,322.75a.72.72,0,0,0,.72-.72H313.7A.71.71,0,0,0,314.41,322.75Z"/><path class="cls-5" d="M300.16,322.75a.72.72,0,0,0,.72-.72h-.72Z"/><path class="cls-5" d="M314.41,378.32a.71.71,0,0,0-.65.44.64.64,0,0,0-.06.28h1.43a.64.64,0,0,0-.06-.28A.71.71,0,0,0,314.41,378.32Z"/><path class="cls-5" d="M314.41,364.07a.72.72,0,1,0,.72.72A.71.71,0,0,0,314.41,364.07Z"/><path class="cls-5" d="M308,371.91a.71.71,0,1,0-.71.71A.71.71,0,0,0,308,371.91Z"/><path class="cls-5" d="M307.29,357a.71.71,0,1,0,.71.71A.71.71,0,0,0,307.29,357Z"/><path class="cls-5" d="M300.88,379a.64.64,0,0,0-.06-.28.71.71,0,0,0-.66-.44V379Z"/><path class="cls-5" d="M300.88,364.79a.72.72,0,0,0-.72-.72v1.43A.71.71,0,0,0,300.88,364.79Z"/><path class="cls-5" d="M313.7,350.54a.63.63,0,0,0,.06.27.71.71,0,0,0,1.31,0,.63.63,0,0,0,.06-.27Z"/><path class="cls-5" d="M300.16,351.25a.71.71,0,0,0,.66-.44.63.63,0,0,0,.06-.27h-.72Z"/><path class="cls-5" d="M314.41,406.82a.71.71,0,0,0-.71.72h1.43A.72.72,0,0,0,314.41,406.82Z"/><path class="cls-5" d="M314.41,392.57a.72.72,0,1,0,.72.72A.71.71,0,0,0,314.41,392.57Z"/><path class="cls-5" d="M307.29,399.7a.71.71,0,1,0,.71.71A.71.71,0,0,0,307.29,399.7Z"/><path class="cls-5" d="M307.29,385.45a.71.71,0,1,0,.71.71A.71.71,0,0,0,307.29,385.45Z"/><path class="cls-5" d="M300.88,407.54a.72.72,0,0,0-.72-.72v.72Z"/><path class="cls-5" d="M300.16,392.57V394a.72.72,0,1,0,0-1.43Z"/><path class="cls-5" d="M314.41,379.75a.71.71,0,0,0,.72-.71H313.7A.71.71,0,0,0,314.41,379.75Z"/><path class="cls-5" d="M300.16,379v.71a.71.71,0,0,0,.72-.71Z"/><path class="cls-5" d="M308,428.91a.71.71,0,1,0-.71.71A.71.71,0,0,0,308,428.91Z"/><path class="cls-5" d="M306.58,414.66a.71.71,0,1,0,.71-.71A.71.71,0,0,0,306.58,414.66Z"/><path class="cls-5" d="M300.16,435.33V436h.72a.67.67,0,0,0-.06-.28A.7.7,0,0,0,300.16,435.33Z"/><path class="cls-5" d="M300.16,421.07v1.43a.72.72,0,1,0,0-1.43Z"/><path class="cls-5" d="M314.41,408.25a.71.71,0,0,0,.72-.71H313.7A.71.71,0,0,0,314.41,408.25Z"/><path class="cls-5" d="M300.16,407.54v.71a.71.71,0,0,0,.72-.71Z"/><path class="cls-5" d="M300.16,436.75a.71.71,0,0,0,.72-.71h-.72Z"/><path class="cls-5" d="M286.63,236.53a.6.6,0,0,0-.06-.27.71.71,0,0,0-.66-.44.7.7,0,0,0-.65.44.6.6,0,0,0-.06.27Z"/><path class="cls-5" d="M300.16,264.32a.63.63,0,0,0-.27.06.71.71,0,0,0-.38.38.6.6,0,0,0-.06.27h.71Z"/><path class="cls-5" d="M286.57,264.76a.71.71,0,0,0-.66-.44.7.7,0,0,0-.65.44.6.6,0,0,0-.06.27h1.43A.6.6,0,0,0,286.57,264.76Z"/><path class="cls-5" d="M299.89,250.13a.7.7,0,0,0-.44.65.71.71,0,0,0,.44.66.63.63,0,0,0,.27.06v-1.43A.63.63,0,0,0,299.89,250.13Z"/><path class="cls-5" d="M285.91,250.07a.72.72,0,1,0,.72.71A.71.71,0,0,0,285.91,250.07Z"/><path class="cls-5" d="M278.79,257.2a.71.71,0,1,0,0,1.42.71.71,0,1,0,0-1.42Z"/><path class="cls-5" d="M293.75,257.91a.71.71,0,1,0-.71.71A.71.71,0,0,0,293.75,257.91Z"/><path class="cls-5" d="M292.33,243.66A.71.71,0,1,0,293,243,.71.71,0,0,0,292.33,243.66Z"/><path class="cls-5" d="M285.26,236.81a.7.7,0,0,0,.65.44.71.71,0,0,0,.66-.44.67.67,0,0,0,.06-.28H285.2A.67.67,0,0,0,285.26,236.81Z"/><path class="cls-5" d="M300.16,292.82a.63.63,0,0,0-.27.06.71.71,0,0,0-.38.38.63.63,0,0,0-.06.27h.71Z"/><path class="cls-5" d="M286.63,293.53a.63.63,0,0,0-.06-.27.71.71,0,0,0-.66-.44.7.7,0,0,0-.65.44.63.63,0,0,0-.06.27Z"/><path class="cls-5" d="M299.89,279.94a.63.63,0,0,0,.27.06v-1.43a.63.63,0,0,0-.27.06.7.7,0,0,0-.44.65A.71.71,0,0,0,299.89,279.94Z"/><path class="cls-5" d="M285.91,278.57a.72.72,0,1,0,.72.71A.71.71,0,0,0,285.91,278.57Z"/><path class="cls-5" d="M278.79,287.12a.71.71,0,1,0,0-1.42.71.71,0,1,0,0,1.42Z"/><path class="cls-5" d="M293,287.12a.71.71,0,1,0,0-1.42.71.71,0,1,0,0,1.42Z"/><path class="cls-5" d="M278.79,272.87a.71.71,0,1,0,0-1.42.71.71,0,1,0,0,1.42Z"/><path class="cls-5" d="M292.33,272.16a.71.71,0,1,0,.71-.71A.71.71,0,0,0,292.33,272.16Z"/><path class="cls-5" d="M272.17,293a.72.72,0,0,0-.51-.21v.71h.71a.81.81,0,0,0-.05-.27A.76.76,0,0,0,272.17,293Z"/><path class="cls-5" d="M271.66,278.57V280a.72.72,0,0,0,.51-.21.74.74,0,0,0,0-1A.72.72,0,0,0,271.66,278.57Z"/><path class="cls-5" d="M299.45,265a.71.71,0,0,0,.44.66.63.63,0,0,0,.27.06V265Z"/><path class="cls-5" d="M285.91,265.75a.72.72,0,0,0,.72-.72H285.2A.71.71,0,0,0,285.91,265.75Z"/><path class="cls-5" d="M300.16,322v-.71a.63.63,0,0,0-.27.06.71.71,0,0,0-.38.38.63.63,0,0,0-.06.27Z"/><path class="cls-5" d="M286.63,322a.63.63,0,0,0-.06-.27.71.71,0,0,0-.66-.44.7.7,0,0,0-.65.44.63.63,0,0,0-.06.27Z"/><path class="cls-5" d="M299.89,308.44a.63.63,0,0,0,.27.06v-1.43a.63.63,0,0,0-.27.06.71.71,0,0,0,0,1.31Z"/><path class="cls-5" d="M285.91,308.5a.72.72,0,1,0-.71-.72A.72.72,0,0,0,285.91,308.5Z"/><path class="cls-5" d="M278.79,315.62a.71.71,0,1,0-.71-.71A.71.71,0,0,0,278.79,315.62Z"/><path class="cls-5" d="M293,315.62a.71.71,0,1,0-.71-.71A.71.71,0,0,0,293,315.62Z"/><path class="cls-5" d="M278.79,301.37a.71.71,0,1,0-.71-.71A.71.71,0,0,0,278.79,301.37Z"/><path class="cls-5" d="M293,301.37a.71.71,0,1,0-.71-.71A.71.71,0,0,0,293,301.37Z"/><path class="cls-5" d="M272.37,322a.81.81,0,0,0-.05-.27.91.91,0,0,0-.15-.23.72.72,0,0,0-.51-.21V322Z"/><path class="cls-5" d="M272.17,308.29a.74.74,0,0,0,0-1,.72.72,0,0,0-.51-.21v1.43A.72.72,0,0,0,272.17,308.29Z"/><path class="cls-5" d="M299.89,294.19a.63.63,0,0,0,.27.06v-.72h-.71a.64.64,0,0,0,.06.28A.71.71,0,0,0,299.89,294.19Z"/><path class="cls-5" d="M285.26,293.81a.7.7,0,0,0,.65.44.71.71,0,0,0,.66-.44.64.64,0,0,0,.06-.28H285.2A.64.64,0,0,0,285.26,293.81Z"/><path class="cls-5" d="M271.66,293.53v.72a.72.72,0,0,0,.51-.21.91.91,0,0,0,.15-.23.82.82,0,0,0,.05-.28Z"/><path class="cls-5" d="M300.16,349.82a.63.63,0,0,0-.27.06.71.71,0,0,0-.44.66h.71Z"/><path class="cls-5" d="M285.91,349.82a.71.71,0,0,0-.71.72h1.43A.72.72,0,0,0,285.91,349.82Z"/><path class="cls-5" d="M299.89,335.63a.71.71,0,0,0,0,1.31.63.63,0,0,0,.27.06v-1.43A.63.63,0,0,0,299.89,335.63Z"/><path class="cls-5" d="M285.91,335.57a.72.72,0,1,0,.72.71A.71.71,0,0,0,285.91,335.57Z"/><path class="cls-5" d="M278.79,344.12a.71.71,0,1,0-.71-.71A.71.71,0,0,0,278.79,344.12Z"/><path class="cls-5" d="M293,344.12a.71.71,0,1,0-.71-.71A.71.71,0,0,0,293,344.12Z"/><path class="cls-5" d="M278.79,329.87a.71.71,0,1,0-.71-.71A.71.71,0,0,0,278.79,329.87Z"/><path class="cls-5" d="M293,329.87a.71.71,0,1,0-.71-.71A.71.71,0,0,0,293,329.87Z"/><path class="cls-5" d="M272.37,350.54a.75.75,0,0,0-.2-.51.72.72,0,0,0-.51-.21v.72Z"/><path class="cls-5" d="M272.17,335.78a.72.72,0,0,0-.51-.21V337a.72.72,0,0,0,.51-.21.74.74,0,0,0,0-1Z"/><path class="cls-5" d="M299.45,322a.71.71,0,0,0,.44.66.63.63,0,0,0,.27.06V322Z"/><path class="cls-5" d="M285.91,322.75a.72.72,0,0,0,.72-.72H285.2A.71.71,0,0,0,285.91,322.75Z"/><path class="cls-5" d="M271.66,322v.72a.72.72,0,0,0,.51-.21.75.75,0,0,0,.2-.51Z"/><path class="cls-5" d="M300.16,378.32a.63.63,0,0,0-.27.06.71.71,0,0,0-.38.38.64.64,0,0,0-.06.28h.71Z"/><path class="cls-5" d="M286.57,378.76a.71.71,0,0,0-.66-.44.7.7,0,0,0-.65.44.64.64,0,0,0-.06.28h1.43A.64.64,0,0,0,286.57,378.76Z"/><path class="cls-5" d="M299.89,365.44a.63.63,0,0,0,.27.06v-1.43a.63.63,0,0,0-.27.06.71.71,0,0,0,0,1.31Z"/><path class="cls-5" d="M285.91,364.07a.72.72,0,1,0,.72.72A.71.71,0,0,0,285.91,364.07Z"/><path class="cls-5" d="M278.79,371.2a.71.71,0,1,0,.71.71A.71.71,0,0,0,278.79,371.2Z"/><path class="cls-5" d="M293,371.2a.71.71,0,1,0,.71.71A.71.71,0,0,0,293,371.2Z"/><path class="cls-5" d="M278.79,357a.71.71,0,1,0,.71.71A.71.71,0,0,0,278.79,357Z"/><path class="cls-5" d="M293,357a.71.71,0,1,0,.71.71A.71.71,0,0,0,293,357Z"/><path class="cls-5" d="M272.37,379a.82.82,0,0,0-.05-.28.91.91,0,0,0-.15-.23.72.72,0,0,0-.51-.21V379Z"/><path class="cls-5" d="M272.17,364.28a.72.72,0,0,0-.51-.21v1.43a.72.72,0,0,0,.51-.21.74.74,0,0,0,0-1Z"/><path class="cls-5" d="M299.45,350.54a.63.63,0,0,0,.06.27.71.71,0,0,0,.38.38.63.63,0,0,0,.27.06v-.71Z"/><path class="cls-5" d="M285.2,350.54a.63.63,0,0,0,.06.27.7.7,0,0,0,.65.44.71.71,0,0,0,.66-.44.63.63,0,0,0,.06-.27Z"/><path class="cls-5" d="M271.66,350.54v.71a.72.72,0,0,0,.51-.21.91.91,0,0,0,.15-.23.81.81,0,0,0,.05-.27Z"/><path class="cls-5" d="M300.16,406.82a.63.63,0,0,0-.27.06.71.71,0,0,0-.44.66h.71Z"/><path class="cls-5" d="M285.91,406.82a.71.71,0,0,0-.71.72h1.43A.72.72,0,0,0,285.91,406.82Z"/><path class="cls-5" d="M299.89,392.63a.71.71,0,0,0,0,1.31.63.63,0,0,0,.27.06v-1.43A.63.63,0,0,0,299.89,392.63Z"/><path class="cls-5" d="M285.91,392.57a.72.72,0,1,0,.72.72A.71.71,0,0,0,285.91,392.57Z"/><path class="cls-5" d="M278.79,399.7a.71.71,0,1,0,.71.71A.71.71,0,0,0,278.79,399.7Z"/><path class="cls-5" d="M293,399.7a.71.71,0,1,0,.71.71A.71.71,0,0,0,293,399.7Z"/><path class="cls-5" d="M278.79,385.45a.71.71,0,1,0,.71.71A.71.71,0,0,0,278.79,385.45Z"/><path class="cls-5" d="M293,385.45a.71.71,0,1,0,.71.71A.71.71,0,0,0,293,385.45Z"/><path class="cls-5" d="M272.37,407.54a.75.75,0,0,0-.2-.51.72.72,0,0,0-.51-.21v.72Z"/><path class="cls-5" d="M272.17,392.78a.72.72,0,0,0-.51-.21V394a.72.72,0,0,0,.51-.21.74.74,0,0,0,0-1Z"/><path class="cls-5" d="M299.45,379a.71.71,0,0,0,.44.65.63.63,0,0,0,.27.06V379Z"/><path class="cls-5" d="M285.2,379a.72.72,0,0,0,1.43,0Z"/><path class="cls-5" d="M271.66,379v.71a.72.72,0,0,0,.51-.21.75.75,0,0,0,.2-.5Z"/><path class="cls-5" d="M300.16,435.33a.81.81,0,0,0-.27.05.71.71,0,0,0-.38.38.67.67,0,0,0-.06.28h.71Z"/><path class="cls-5" d="M286.57,435.76a.7.7,0,0,0-.66-.43.69.69,0,0,0-.65.43.67.67,0,0,0-.06.28h1.43A.67.67,0,0,0,286.57,435.76Z"/><path class="cls-5" d="M299.89,421.13a.71.71,0,0,0-.44.66.7.7,0,0,0,.44.65.63.63,0,0,0,.27.06v-1.43A.63.63,0,0,0,299.89,421.13Z"/><path class="cls-5" d="M285.91,421.07a.72.72,0,1,0,.72.72A.71.71,0,0,0,285.91,421.07Z"/><path class="cls-5" d="M278.79,428.2a.71.71,0,1,0,.71.71A.71.71,0,0,0,278.79,428.2Z"/><path class="cls-5" d="M293,428.2a.71.71,0,1,0,.71.71A.71.71,0,0,0,293,428.2Z"/><path class="cls-5" d="M278.79,414a.71.71,0,1,0,.71.71A.71.71,0,0,0,278.79,414Z"/><path class="cls-5" d="M293,414a.71.71,0,1,0,.71.71A.71.71,0,0,0,293,414Z"/><path class="cls-5" d="M272.17,435.53a.75.75,0,0,0-.51-.2V436h.71a.87.87,0,0,0-.05-.28A.91.91,0,0,0,272.17,435.53Z"/><path class="cls-5" d="M272.17,421.28a.72.72,0,0,0-.51-.21v1.43a.72.72,0,0,0,.51-.21.74.74,0,0,0,0-1Z"/><path class="cls-5" d="M299.45,407.54a.71.71,0,0,0,.44.65.63.63,0,0,0,.27.06v-.71Z"/><path class="cls-5" d="M285.2,407.54a.72.72,0,0,0,1.43,0Z"/><path class="cls-5" d="M271.66,407.54v.71a.72.72,0,0,0,.51-.21.75.75,0,0,0,.2-.5Z"/><path class="cls-5" d="M299.45,436a.7.7,0,0,0,.44.65.63.63,0,0,0,.27.06V436Z"/><path class="cls-5" d="M285.91,436.75a.71.71,0,0,0,.72-.71H285.2A.71.71,0,0,0,285.91,436.75Z"/><path class="cls-5" d="M271.66,436v.71a.72.72,0,0,0,.51-.21.75.75,0,0,0,.2-.5Z"/><path class="cls-5" d="M271.66,292.82a.7.7,0,0,0-.65.44.63.63,0,0,0-.06.27h.71Z"/><path class="cls-5" d="M271,279.28a.71.71,0,0,0,.71.72v-1.43A.71.71,0,0,0,271,279.28Z"/><path class="cls-5" d="M271.66,321.32a.7.7,0,0,0-.65.44.63.63,0,0,0-.06.27h.71Z"/><path class="cls-5" d="M271.66,308.5v-1.43a.72.72,0,0,0,0,1.43Z"/><path class="cls-5" d="M265.25,314.91a.72.72,0,1,0-.71.71A.71.71,0,0,0,265.25,314.91Z"/><path class="cls-5" d="M264.54,300a.71.71,0,1,0,.71.71A.71.71,0,0,0,264.54,300Z"/><path class="cls-5" d="M271,293.53a.64.64,0,0,0,.06.28.7.7,0,0,0,.65.44v-.72Z"/><path class="cls-5" d="M271.66,349.82a.71.71,0,0,0-.71.72h.71Z"/><path class="cls-5" d="M271,336.28a.71.71,0,0,0,.71.72v-1.43A.71.71,0,0,0,271,336.28Z"/><circle class="cls-5" cx="264.54" cy="343.41" r="0.71"/><path class="cls-5" d="M264.54,328.45a.71.71,0,1,0,.71.71A.71.71,0,0,0,264.54,328.45Z"/><path class="cls-5" d="M271.66,322.75V322H271A.71.71,0,0,0,271.66,322.75Z"/><path class="cls-5" d="M271.66,378.32a.7.7,0,0,0-.65.44.64.64,0,0,0-.06.28h.71Z"/><path class="cls-5" d="M258.07,378.76a.71.71,0,0,0-.66-.44.73.73,0,0,0-.6.35c0,.12,0,.24,0,.37h1.35A.82.82,0,0,0,258.07,378.76Z"/><path class="cls-5" d="M271,364.79a.71.71,0,0,0,.71.71v-1.43A.71.71,0,0,0,271,364.79Z"/><path class="cls-5" d="M264.54,372.62a.71.71,0,1,0-.72-.71A.71.71,0,0,0,264.54,372.62Z"/><path class="cls-5" d="M263.82,357.66a.72.72,0,1,0,.72-.71A.71.71,0,0,0,263.82,357.66Z"/><path class="cls-5" d="M271.66,351.25v-.71H271a.63.63,0,0,0,.06.27A.7.7,0,0,0,271.66,351.25Z"/><path class="cls-5" d="M271.66,406.82a.71.71,0,0,0-.71.72h.71Z"/><path class="cls-5" d="M257.41,406.82a.71.71,0,0,0-.71.72h1.42A.71.71,0,0,0,257.41,406.82Z"/><path class="cls-5" d="M271,393.29a.71.71,0,0,0,.71.71v-1.43A.71.71,0,0,0,271,393.29Z"/><path class="cls-5" d="M257.41,392.57a.72.72,0,0,0,0,1.43.72.72,0,0,0,0-1.43Z"/><path class="cls-5" d="M264.54,399.7a.71.71,0,1,0,0,1.42.71.71,0,1,0,0-1.42Z"/><path class="cls-5" d="M264.54,385.45a.71.71,0,1,0,.71.71A.71.71,0,0,0,264.54,385.45Z"/><path class="cls-5" d="M271,379a.71.71,0,0,0,.71.71V379Z"/><path class="cls-5" d="M257.41,379.75a.71.71,0,0,0,.71-.71h-1.35c0,.07,0,.15,0,.23A.69.69,0,0,0,257.41,379.75Z"/><path class="cls-5" d="M271.66,435.33a.69.69,0,0,0-.65.43.67.67,0,0,0-.06.28h.71Z"/><path class="cls-5" d="M258.07,435.76a.7.7,0,0,0-.66-.43.69.69,0,0,0-.65.43.67.67,0,0,0-.06.28h1.42A.87.87,0,0,0,258.07,435.76Z"/><path class="cls-5" d="M271,421.79a.71.71,0,0,0,.71.71v-1.43A.71.71,0,0,0,271,421.79Z"/><path class="cls-5" d="M257.41,421.07a.72.72,0,0,0,0,1.43.72.72,0,0,0,0-1.43Z"/><path class="cls-5" d="M250.29,428.2a.71.71,0,1,0,0,1.42.71.71,0,0,0,0-1.42Z"/><path class="cls-5" d="M264.54,428.2a.71.71,0,1,0,0,1.42.71.71,0,1,0,0-1.42Z"/><path class="cls-5" d="M264.54,414a.71.71,0,1,0,.71.71A.71.71,0,0,0,264.54,414Z"/><path class="cls-5" d="M271,407.54a.71.71,0,0,0,.71.71v-.71Z"/><path class="cls-5" d="M257.41,408.25a.71.71,0,0,0,.71-.71H256.7A.71.71,0,0,0,257.41,408.25Z"/><path class="cls-5" d="M271,436a.71.71,0,0,0,.71.71V436Z"/><path class="cls-5" d="M256.7,436s0,0,0,0l1.29.33a.71.71,0,0,0,.12-.38Z"/><polygon class="cls-6" points="208.81 241.09 196.44 282.16 267.19 227.73 243.94 218.82 208.81 241.09"/><polygon class="cls-7" points="214.62 240.46 204.75 268.45 255.63 227.09 226.7 228.93 214.62 240.46"/><polygon class="cls-7" points="225.63 220.8 203.36 231.69 194.46 257.42 211.78 242.08 215.24 256.43 228.1 238.61 225.63 220.8"/><path class="cls-6" d="M215.62,89.75s-10,2.17-10.81,10.38-2.16,26,1.3,25.09,16.43-17.73,22.06-26.38S218.65,87.16,215.62,89.75Z"/><path class="cls-7" d="M220.19,201.5l4.45,37.61,37.11-22.27,2.47-32.16S238,200,220.19,201.5Z"/><path class="cls-6" d="M263.75,190.89l0-.45-5.27-2.64c-8.71,4.57-25.64,12.65-38.32,13.7l2.1,17.8c.91-.58,1.87-1.21,2.93-1.9C234.2,211.54,260.27,193.32,263.75,190.89Z"/><path class="cls-7" d="M218.22,101.43s-10.81,16-17.3,32.44a77.7,77.7,0,0,0-4.33,43.26c2.16,12.54,5.19,24.65,11.68,27.25s21.19,1.29,39.36-4.33,23.79-16.44,26.39-19.46l2.59-3s5.19,3.46,14.28-.43,16-17.31,12.54-22.93-13-5.62-13-5.62,8.65-20.33,9.09-32.44-26.39-22.49-41.09-24.66S218.22,101.43,218.22,101.43Z"/><path class="cls-8" d="M297.91,160.89s-.44-5.29-4-5.29-9.27,8.82-9.27,8.82,5.74-1.32,4.86,1.32-8.39,2.65-7.06,4.42"/><path class="cls-8" d="M231.63,126.09s-.87,4.75-2.17,6.92-18.59,14.7-19,17.3,3.9,5.19,9.52,6.92"/><path class="cls-5" d="M253.74,145a.45.45,0,0,1-.4-.25c-1.09-2.2-10.59-5.22-10.85-5.14a1.49,1.49,0,0,1-1.88-.92,1.47,1.47,0,0,1,.9-1.88c.09,0,3.41-3.14,12.63,7.54.16.19,0,.49-.2.6A.46.46,0,0,1,253.74,145Z"/><path class="cls-5" d="M223.84,134.49a1.49,1.49,0,0,1-1.19-.59c-3.22-4.3-9.84-3.48-9.85-3.47a.45.45,0,0,1-.56-.29.44.44,0,0,1,.29-.56c.1,0,8-3.42,12.5,2.54a1.49,1.49,0,0,1-1.19,2.37Z"/><path class="cls-9" d="M249.79,120.46s9.52-.43,12.55,15.14"/><path class="cls-9" d="M232.93,116.57s-10.82-6.06-20.33.43"/><path class="cls-6" d="M208.27,161.55s6.12,3.92,16.93,4.79,22.43-2.62,22.43-2.62-9.95,17.73-22.92,24.22-17.74.43-17.3-6.49S210,164.15,208.27,161.55Z"/><path class="cls-7" d="M225.2,166.34c-10.81-.87-16.93-4.79-16.93-4.79a3.92,3.92,0,0,1,.51,1.56c2.21,2.45,7,6.13,16,7.15,9.44,1.07,15.73-.12,19.78-1.73,1.94-2.85,3-4.81,3-4.81S236,167.2,225.2,166.34Z"/><path class="cls-7" d="M224.71,187.94a35.41,35.41,0,0,0,6.33-4.16,69.08,69.08,0,0,1-8.78,2.59c-6.49,1.37-9.63.59-9-1.57s6.48-2.36,7.07-4.91-5.69-1.18-11.59,2.55a12.62,12.62,0,0,0-1.28.92C207.93,189.39,212.94,193.82,224.71,187.94Z"/><path class="cls-6" d="M225.14,96.67s-19,1.73-12.54,7.36,14.27,4.32,36.33,5.19,38.5,2.16,38.5,2.16-9.52,2.6-10.82,10,5.63,14.27,5.63,16.87-5.63,9.51-4.33,13.41,4.33,5.19,6.06,3.89,4.32-2.6,10.38-6.49,22.49-8.65,25.08-22.49,1.73-26.39-4.32-33.74-9.95-9.52-9.95-9.52S299.54,72.88,274,62.94s-46.72-6.06-39.8,1.73,9.09,8.21,9.09,8.21-24.23-9.51-40.23-1.29S196.16,89.75,225.14,96.67Z"/><polygon class="cls-7" points="213.75 235.15 220.19 254.94 274.62 222.28 265.71 207.94 213.75 235.15"/></g></svg>