<svg xmlns="http://www.w3.org/2000/svg" viewBox="0 0 500 500"><defs><style>.cls-1{isolation:isolate;}.cls-2{fill:#cacaca;mix-blend-mode:multiply;}.cls-3{fill:#fff;}</style></defs><g class="cls-1"><g id="Character_3" data-name="Character 3"><path class="cls-2" d="M437.29,178.19c0,.91.07,1.77.11,2.72,0,1.25.09,2.49.13,3.81.09,2.74.16,5.63.24,8.59,0,1.06.06,2,.08,3.12.07,2.69.12,5.55.17,8.38l-33.24-33.37c5.66.42,10.58.89,14.22,1.45A76.38,76.38,0,0,1,437.29,178.19Zm-76.05-8.5c-.39.2-.68.54-1.08.72s-.73.25-1.08.38a22.49,22.49,0,0,1-8.13,1.63,22.14,22.14,0,0,1-10.5-3Q351.1,169.48,361.24,169.69Z"/><path class="cls-3" d="M351.17,127.2h.27a22.42,22.42,0,0,1,22.37,22.69A22.84,22.84,0,0,1,351,172.42a22.61,22.61,0,0,1,.22-45.22Z"/><path class="cls-3" d="M436.08,156.24c2.8,29.65,4.6,169.71-4.12,202.54-11.67,43-39.7,68.36-83.16,75.32-16.24,2.62-60.1,4.2-103.91,4.2-44.84,0-89.62-1.66-104.67-5.56-42.72-11-68.22-38.87-75-82.13-5-31.77-5.59-179.4,3.58-211.46,12-41.75,39.83-66.25,82.09-73.21C170,62.8,207.48,61.7,245.28,61.7c35.16,0,70.63.95,92,2.12C363.11,65.18,386.79,73.5,406,92,424.33,109.5,433.69,131.43,436.08,156.24ZM399.85,344.41c5.4-33.13,5.41-154,2.32-185-3.38-33.13-23.63-54.91-56.41-60-16.23-2.47-55.3-3.56-94.18-3.56-37.51,0-74.83,1-91.26,2.8-32.85,3.78-54.94,24-60.18,56.72C94.73,190,94.8,319.45,98.84,345.46c4.18,27.08,19.47,45.69,46.48,53.25,14.62,4.09,58.39,5.56,101.31,5.56,39.51,0,78.3-1.24,92.89-2.84,33.15-3.63,55.09-24.05,60.33-57"/><path class="cls-3" d="M250.81,153.52a95.71,95.71,0,0,1,95.76,96.65c-.4,53.24-44,96.5-97.39,96.5A95.62,95.62,0,0,1,153.42,250,97.3,97.3,0,0,1,250.81,153.52Zm-1.41,159a63.07,63.07,0,0,0,63-61.86A61.82,61.82,0,0,0,251,187.55h-.56a63.08,63.08,0,0,0-63,61.87,61.92,61.92,0,0,0,61.39,63.07h.56"/></g></g></svg>