<svg xmlns="http://www.w3.org/2000/svg" viewBox="0 0 500 500"><defs><style>.cls-1{fill:#fff;}</style></defs><g id="Character_3" data-name="Character 3"><path class="cls-1" d="M109.6,64.21A44.29,44.29,0,0,1,154,108.94a45.11,45.11,0,0,1-45.07,44.74,44.39,44.39,0,0,1-44.39-44.74A45.21,45.21,0,0,1,109.6,64.21Z"/><polygon class="cls-1" points="147.35 187.47 145.46 435.79 68.24 435.79 70.13 187.47 147.35 187.47"/><path class="cls-1" d="M343.8,181.43c78.2,0,92.17,51.26,91.66,118.2l-1,136.16H357.37l.92-120.65c.22-28.9-.15-66-39.66-66-40.16,0-46.44,31.35-46.69,63.84L271,435.79H193.78l1.9-248.32h73.95l-.26,34h1.15C281,202,306.25,181.43,343.8,181.43Z"/></g></svg>