<svg xmlns="http://www.w3.org/2000/svg" viewBox="0 0 500 500"><defs><style>.cls-1{fill:#bf5d7f;}.cls-2{fill:#222221;}.cls-3,.cls-5{fill:none;stroke:#222221;stroke-linecap:round;stroke-linejoin:round;}.cls-3{stroke-width:1.53px;}.cls-4{fill:#fff;}.cls-5{stroke-width:1.35px;}</style></defs><g id="Character_3" data-name="Character 3"><path class="cls-1" d="M256,415.53c-25.75,0-40.3-4-47.2-12.89-7.56-9.77-4.12-23-.48-37,2.4-9.27,5.13-19.78,5.13-30.46,0-9.88-1.64-19.21-3.22-28.24-2.8-16-5.22-29.8,3.26-39.89,7.11-8.45,20.22-12.23,42.51-12.23,20.52,0,33.38,3.79,40.45,11.93,8.95,10.29,6.92,24.78,4.56,41.56-1.21,8.6-2.45,17.49-2.45,26.87a221.28,221.28,0,0,0,1.9,25.56c2,17.52,3.74,32.65-5.61,43.13C287.76,411.81,275.42,415.53,256,415.53Z"/><path class="cls-2" d="M256,260.4c60.35,0,37,33.47,37,74.76s20.28,74.77-37,74.77c-73.76,0-37-33.47-37-74.77s-27.44-74.76,37-74.76m0-11.19c-24.09,0-38.53,4.38-46.8,14.23-10.15,12.08-7.39,27.8-4.48,44.44,1.54,8.8,3.13,17.89,3.13,27.28,0,10-2.51,19.67-5,29-3.82,14.71-7.76,29.91,1.48,41.85,8.16,10.56,23.6,15.06,51.62,15.06,21.11,0,34.78-4.31,43-13.55,11-12.35,9.07-29.42,7-47.48a217.65,217.65,0,0,1-1.87-24.93c0-9,1.22-17.68,2.4-26.09,2.44-17.38,4.74-33.8-5.88-46-8.21-9.44-22.41-13.84-44.67-13.84Z"/><path class="cls-1" d="M102.73,311.44c0,10.08-18.6,18.25-41.56,18.25s-41.55-8.17-41.55-18.25,18.6-18.25,41.55-18.25S102.73,301.36,102.73,311.44Z"/><path class="cls-1" d="M480.38,311.44c0,10.08-18.61,18.25-41.56,18.25s-41.56-8.17-41.56-18.25,18.6-18.25,41.56-18.25S480.38,301.36,480.38,311.44Z"/><path class="cls-3" d="M74.1,79.57s-41.1-8.35-51.45,33"/><path class="cls-3" d="M419.2,79.57s41.09-8.35,51.45,33"/><path class="cls-4" d="M97.67,152.7c-39.22-15.93-72.3,44.12-68.63,76,4.9,40.44,68.63,58.82,93.14,27,50.25-61.27-35.54-149.5-82.11-67.4-17.15,31.86-4.9,55.15,24.51,71.08,42.89,24.51,63.72-11,60.05-52.7S80.51,142.9,54.78,178.44c-27,34.31-23.29,68.62,22.06,80.88,18.38,6.13,33.08,1.22,40.44-17.16"/><path class="cls-2" d="M97.86,152a35.11,35.11,0,0,0-20.13-2,43.7,43.7,0,0,0-18,8.73C47.93,168,39.5,181.43,34.07,195.24c-4.84,12.29-8.16,26.7-4.48,39.74s13.64,23.29,25.34,29.62a64.45,64.45,0,0,0,39.61,7.31,46.1,46.1,0,0,0,18.37-6.77c5.93-3.86,10.47-9.33,14.35-15.19a64.26,64.26,0,0,0,10.75-40,65.23,65.23,0,0,0-13.35-34.88c-7.11-9.2-16.94-16.61-28.32-19.5a42.43,42.43,0,0,0-34,6.22,66.74,66.74,0,0,0-16.2,15.83,76.56,76.56,0,0,0-12.78,25.16A44.14,44.14,0,0,0,33,226.22a45.37,45.37,0,0,0,11.63,19.4c6.36,6.5,14.12,11.45,22.13,15.67,7.3,3.86,15.43,6.8,23.78,6.77a29.48,29.48,0,0,0,17.86-5.92,39.08,39.08,0,0,0,11.7-15.63,71.3,71.3,0,0,0,5.35-22.33,87.58,87.58,0,0,0-1.35-26.05c-3.17-14.5-11.89-28.93-25.84-35.22a32.06,32.06,0,0,0-19.09-2.41C71.79,161.88,65.25,166,60,171.17A85.31,85.31,0,0,0,51.23,182a92.7,92.7,0,0,0-7.12,11.52,59.36,59.36,0,0,0-6.82,21.89,37.09,37.09,0,0,0,3.38,19.53,40.6,40.6,0,0,0,14.26,15.68c7.65,5.11,16.53,8.18,25.38,10.48,7.55,2,15.79,2.21,22.93-1.3S115,249.56,118,242.35c.34-.84-1-1.21-1.37-.38-3,7.39-8,14.22-15.59,17.28-7.45,3-15.79,2-23.27-.38a121,121,0,0,1-13.48-4.74,58,58,0,0,1-10.5-6.07A37.35,37.35,0,0,1,41,232.26c-5.5-13.59-1.07-28.68,5.84-40.86a98.89,98.89,0,0,1,7.37-11.1,68,68,0,0,1,8.7-9.93c5.29-4.71,11.84-8.14,18.95-8.85,13.73-1.38,26,7.16,33.17,18.29,9,13.92,10.6,31.45,8.6,47.57-1.63,13.05-6.55,27.81-18.31,35.13a29.22,29.22,0,0,1-18.35,4c-8.66-.84-16.59-4.65-24-8.89-13.64-7.76-26.68-19.27-29.46-35.47-2.92-17,5.91-34.45,16.51-47.16,8.25-9.9,19.44-17.94,32.59-19.13,11.11-1,22,3,30.75,9.77a61.45,61.45,0,0,1,20,28.51A62.14,62.14,0,0,1,134.2,232a66,66,0,0,1-9.56,19.31c-3.91,5.5-8.39,10.37-14.28,13.78-11.25,6.51-25.09,7.36-37.59,4.64-12.83-2.8-25.19-9.43-33.62-19.63a42.34,42.34,0,0,1-8.6-17,48.28,48.28,0,0,1-.37-18.48A94.34,94.34,0,0,1,46.4,175.17c7.71-11,18.61-21.29,32.21-23.85a33.76,33.76,0,0,1,18.87,2.06c.85.34,1.22-1,.38-1.36Z"/><path class="cls-4" d="M400.33,152.7c39.21-15.93,72.3,44.12,68.62,76-4.91,40.44-68.62,58.82-93.14,27-50.24-61.27,35.55-149.5,82.11-67.4,17.16,31.86,4.9,55.15-24.51,71.08-42.89,24.51-63.73-11-60-52.7s44.11-63.72,69.85-28.18c27,34.31,23.28,68.62-22.07,80.88-18.38,6.13-33.08,1.22-40.44-17.16"/><path class="cls-2" d="M400.52,153.38a33.8,33.8,0,0,1,19.62-1.91,42.69,42.69,0,0,1,17.54,8.66c11.32,9,19.49,21.89,24.78,35.21,4.7,11.84,8.08,25.73,4.82,38.38s-12.81,22.88-24.11,29.2a63.34,63.34,0,0,1-38.11,7.8,45.84,45.84,0,0,1-18-6c-5.9-3.54-10.39-8.61-14.28-14.22a62.4,62.4,0,0,1,.35-72.87c6.59-9.17,15.87-16.75,26.75-20.12a40.58,40.58,0,0,1,32.73,4,60.5,60.5,0,0,1,15.88,14,79.23,79.23,0,0,1,13.61,23.83c2.61,7.54,3.77,15.68,2.23,23.58a41.88,41.88,0,0,1-10,19.53c-5.65,6.39-12.71,11.4-20.13,15.53s-15.32,7.83-23.94,8.49a29,29,0,0,1-18.15-4.37c-5.34-3.48-9.27-8.71-12.05-14.38a65.34,65.34,0,0,1-5.86-21.37,89.84,89.84,0,0,1,.52-25.05c2.49-14.5,10.28-29.08,23.63-36.21a31.1,31.1,0,0,1,18.5-3.57c7.16.93,13.67,4.56,18.91,9.42a74.43,74.43,0,0,1,8.66,10.18,97,97,0,0,1,7.1,10.94,61,61,0,0,1,7.56,21.6,36.55,36.55,0,0,1-2.42,19.18A38.1,38.1,0,0,1,443.5,248.6c-7.36,5.21-15.74,8-24.29,10.59-7.46,2.23-15.83,3-23.1-.32s-11.84-9.79-14.71-16.9c-.34-.83-1.71-.47-1.37.38,3,7.43,7.88,14.34,15.36,17.74,7.3,3.32,15.58,2.86,23.15.77,15.37-4.27,32-11.19,39.11-26.63,6.23-13.59,2.5-29-4.23-41.61a95.34,95.34,0,0,0-7.3-11.53,81.32,81.32,0,0,0-8.73-10.5c-5.29-5.09-11.86-9-19.16-10.2-13.92-2.32-26.9,5.38-34.91,16.38-10.07,13.82-12.27,31.73-10.64,48.38,1.35,13.69,5.9,29,17.55,37.43,12.81,9.31,29.28,5.16,42.11-1.85,14.33-7.84,28.74-18.7,32.93-35.36,4.34-17.21-3.71-35.09-14-48.56-8.26-10.82-19.6-20-33.42-22.09-11.42-1.7-22.89,1.75-32.2,8.41A62.35,62.35,0,0,0,364,191.88a63.67,63.67,0,0,0-2,38.88,66.51,66.51,0,0,0,9.26,20c3.94,5.78,8.5,11.09,14.49,14.83,11.38,7.11,25.61,8.32,38.55,5.77,13.28-2.6,26.21-9.29,35.06-19.67a44.16,44.16,0,0,0,9.27-17.43,48.61,48.61,0,0,0,.72-19,94.74,94.74,0,0,0-16.6-40.93c-7.93-11.22-19.13-21.82-33.09-24.39a35.06,35.06,0,0,0-19.5,2.08c-.83.34-.47,1.7.38,1.36Z"/><line class="cls-3" x1="35.56" y1="277.79" x2="35.56" y2="376.46"/><line class="cls-5" x1="54.66" y1="282.47" x2="54.66" y2="358.67"/><line class="cls-5" x1="74.1" y1="282.47" x2="74.1" y2="358.67"/></g></svg>