<svg xmlns="http://www.w3.org/2000/svg" viewBox="0 0 500 500"><defs><style>.cls-1{fill:#bf5d7f;}.cls-2,.cls-6{fill:none;stroke:#222221;stroke-linecap:round;stroke-linejoin:round;}.cls-2{stroke-width:1.53px;}.cls-3{fill:#222221;}.cls-4{fill:#fff;}.cls-5{fill:#68a7dd;}.cls-6{stroke-width:2.48px;}</style></defs><g id="Character_3" data-name="Character 3"><path class="cls-1" d="M102.74,312.63c0,10.08-18.62,18.25-41.57,18.25s-41.55-8.17-41.55-18.25,18.6-18.25,41.55-18.25S102.74,302.55,102.74,312.63Z"/><path class="cls-1" d="M480.38,312.63c0,10.08-18.6,18.25-41.56,18.25s-41.56-8.17-41.56-18.25,18.61-18.25,41.56-18.25S480.38,302.55,480.38,312.63Z"/><path class="cls-2" d="M77.45,98.07s-41.1-8.36-51.45,33"/><path class="cls-2" d="M422.55,98.07s41.09-8.36,51.44,33"/><path class="cls-1" d="M250,397c-23.29,0-41.53-28-41.53-63.69S226.7,269.66,250,269.66s41.55,28,41.55,63.68S273.29,397,250,397Z"/><path class="cls-3" d="M250,275.25c19.86,0,35.95,26,35.95,58.09S269.85,391.43,250,391.43s-35.93-26-35.93-58.09,16.09-58.09,35.93-58.09m0-11.19c-26.42,0-47.12,30.44-47.12,69.28s20.7,69.28,47.12,69.28,47.14-30.43,47.14-69.28S276.42,264.06,250,264.06Z"/><path class="cls-4" d="M277.07,300.87c-3.3,0-7-.32-11-.63-4.88-.38-10.42-.8-16.05-.8s-11.15.42-16,.8c-4,.31-7.73.59-11,.63h-.07a5.6,5.6,0,0,1-4.93-8.25c7.84-14.6,19.53-23,32.06-23s24.23,8.37,32.08,23a5.61,5.61,0,0,1-4.93,8.25Z"/><path class="cls-3" d="M250,275.25c10.85,0,20.56,7.77,27.15,20-7.34-.09-16.81-1.44-27.15-1.44s-19.79,1.35-27.13,1.44c6.59-12.26,16.3-20,27.13-20m0-11.19c-14.66,0-28.14,9.45-37,25.92a11.19,11.19,0,0,0,9.86,16.49H223c3.55-.05,7.36-.34,11.39-.65,5-.39,10.19-.79,15.6-.79s10.6.4,15.62.79c4,.31,7.84.6,11.38.65h.15A11.19,11.19,0,0,0,287,290c-8.86-16.47-22.34-25.92-37-25.92Z"/><rect class="cls-5" x="53.55" y="204.85" width="61.53" height="174.77"/><line class="cls-6" x1="21.44" y1="204.85" x2="136.49" y2="204.85"/><rect class="cls-5" x="384.91" y="204.85" width="61.53" height="174.77"/><line class="cls-6" x1="478.55" y1="204.85" x2="363.5" y2="204.85"/></g></svg>