<svg xmlns="http://www.w3.org/2000/svg" viewBox="0 0 500 500"><defs><style>.cls-1{fill:#222221;}.cls-2{fill:#fff;}.cls-3{fill:#bf5d7f;}.cls-4{fill:none;stroke:#222221;stroke-linecap:round;stroke-linejoin:round;stroke-width:1.53px;}</style></defs><g id="Character_3" data-name="Character 3"><path class="cls-1" d="M134.67,216.41c0,52.09-22.19,94.31-49.56,94.31S35.56,268.5,35.56,216.41,57.75,122.1,85.11,122.1,134.67,164.32,134.67,216.41Z"/><path class="cls-2" d="M123.48,180.3c0,22.43-9.31,40.62-20.78,40.62S81.92,202.73,81.92,180.3s9.31-40.62,20.78-40.62S123.48,157.86,123.48,180.3Z"/><path class="cls-2" d="M74.1,206.22c0,8.12-3.37,14.7-7.52,14.7s-7.52-6.58-7.52-14.7,3.37-14.7,7.52-14.7S74.1,198.1,74.1,206.22Z"/><path class="cls-2" d="M97,242c0,8.11-3.37,14.69-7.52,14.69S81.92,250.1,81.92,242s3.37-14.7,7.52-14.7S97,233.87,97,242Z"/><path class="cls-1" d="M464.43,216.41c0,52.09-22.18,94.31-49.55,94.31s-49.55-42.22-49.55-94.31,22.18-94.31,49.55-94.31S464.43,164.32,464.43,216.41Z"/><path class="cls-2" d="M453.24,180.3c0,22.43-9.3,40.62-20.78,40.62s-20.77-18.19-20.77-40.62,9.3-40.62,20.77-40.62S453.24,157.86,453.24,180.3Z"/><path class="cls-2" d="M403.86,206.22c0,8.12-3.36,14.7-7.51,14.7s-7.53-6.58-7.53-14.7,3.37-14.7,7.53-14.7S403.86,198.1,403.86,206.22Z"/><path class="cls-2" d="M426.72,242c0,8.11-3.37,14.69-7.52,14.69s-7.51-6.58-7.51-14.69,3.36-14.7,7.51-14.7S426.72,233.87,426.72,242Z"/><path class="cls-3" d="M102.73,321.91c0,10.08-18.6,18.25-41.56,18.25S19.62,332,19.62,321.91s18.6-18.25,41.55-18.25S102.73,311.83,102.73,321.91Z"/><path class="cls-3" d="M480.38,321.91c0,10.08-18.61,18.25-41.56,18.25s-41.56-8.17-41.56-18.25,18.6-18.25,41.56-18.25S480.38,311.83,480.38,321.91Z"/><path class="cls-4" d="M74.1,72.25s-41.1-8.35-51.45,33"/><path class="cls-4" d="M419.2,72.25s41.09-8.35,51.45,33"/><path class="cls-2" d="M253.66,423.13c-47.24,0-85.68-33.5-85.68-74.68,0-17.14,6.94-25.47,21.23-25.47,6.86,0,14.94,1.86,24.3,4,12,2.76,25.63,5.9,40.15,5.9s28.14-3.14,40.16-5.9c9.36-2.16,17.44-4,24.3-4,14.28,0,21.22,8.33,21.22,25.47C339.34,389.63,300.91,423.13,253.66,423.13Z"/><path class="cls-1" d="M318.12,328.29c10,0,15.92,4.61,15.92,20.16,0,38.31-36,69.37-80.38,69.37s-80.37-31.06-80.37-69.37c0-15.54,5.92-20.16,15.92-20.16,14.65,0,38.06,9.92,64.45,9.92s49.81-9.92,64.46-9.92m0-10.62h0c-7.46,0-15.82,1.92-25.5,4.15-11.73,2.71-25,5.77-39,5.77s-27.22-3.06-39-5.77c-9.67-2.23-18-4.15-25.49-4.15-9.91,0-26.53,4-26.53,30.78,0,44.1,40.81,80,91,80s91-35.89,91-80c0-26.78-16.62-30.78-26.53-30.78Z"/><path class="cls-3" d="M253.91,423.13c-43.42,0-80-28.31-85.06-65.85a5.31,5.31,0,0,1,7.82-5.36c18.26,10.05,45.59,15.83,75,15.83,32,0,61.73-6.93,79.5-18.53a5.31,5.31,0,0,1,8.19,4.9C336,392.82,298.47,423.13,253.91,423.13Z"/><path class="cls-1" d="M334,353.66c-3.1,35.88-37.77,64.16-80.13,64.16-41.2,0-75.14-26.77-79.8-61.25,18.25,10.05,46.19,16.48,77.53,16.48,34.26,0,64.47-7.68,82.4-19.39m0-10.61a10.61,10.61,0,0,0-5.81,1.73c-16.93,11.06-45.57,17.66-76.59,17.66-28.51,0-54.9-5.53-72.41-15.17A10.61,10.61,0,0,0,163.59,358c5.42,40.16,44.26,70.45,90.32,70.45,47.29,0,87.13-32.45,90.7-73.86A10.6,10.6,0,0,0,334,343.05Z"/></g></svg>