<svg xmlns="http://www.w3.org/2000/svg" xmlns:xlink="http://www.w3.org/1999/xlink" viewBox="0 0 439.62 283"><defs><style>.cls-1{isolation:isolate;}.cls-10,.cls-11,.cls-12,.cls-13,.cls-14,.cls-15,.cls-16,.cls-2,.cls-22,.cls-9{mix-blend-mode:multiply;}.cls-2{opacity:0.8;fill:url(#radial-gradient);}.cls-23,.cls-3{fill:#fff;}.cls-4{fill:url(#Áåçûìÿííûé_ãðàäèåíò_151);}.cls-5{fill:url(#Áåçûìÿííûé_ãðàäèåíò_152);}.cls-6{fill:url(#Áåçûìÿííûé_ãðàäèåíò_152-2);}.cls-7{fill:url(#Áåçûìÿííûé_ãðàäèåíò_152-3);}.cls-8{fill:url(#Áåçûìÿííûé_ãðàäèåíò_152-4);}.cls-11,.cls-15,.cls-9{fill:#f3bac0;}.cls-10,.cls-11,.cls-12,.cls-13,.cls-14,.cls-21,.cls-23,.cls-24,.cls-25,.cls-26,.cls-27,.cls-28,.cls-29,.cls-30,.cls-31,.cls-32,.cls-33,.cls-9{fill-rule:evenodd;}.cls-10,.cls-13,.cls-15,.cls-9{opacity:0.6;}.cls-10{fill:url(#Áåçûìÿííûé_ãðàäèåíò_55);}.cls-11,.cls-12{opacity:0.2;}.cls-12,.cls-14,.cls-16,.cls-22{fill:#d87290;}.cls-13{fill:url(#Áåçûìÿííûé_ãðàäèåíò_409);}.cls-14{opacity:0.3;}.cls-16{opacity:0.5;}.cls-17,.cls-18,.cls-24,.cls-25,.cls-26,.cls-27,.cls-28,.cls-29,.cls-30,.cls-31,.cls-32,.cls-33{mix-blend-mode:screen;}.cls-17{fill:url(#Áåçûìÿííûé_ãðàäèåíò_59);}.cls-18{fill:url(#Áåçûìÿííûé_ãðàäèåíò_59-2);}.cls-19{fill:#f5ffff;}.cls-19,.cls-20{mix-blend-mode:soft-light;opacity:0.97;}.cls-20{fill:#f5ee8f;}.cls-21{fill:#b24d61;}.cls-22{opacity:0.31;}.cls-24,.cls-25,.cls-26,.cls-27,.cls-28,.cls-29,.cls-30,.cls-31,.cls-32,.cls-33{opacity:0.61;}.cls-24{fill:url(#radial-gradient-2);}.cls-25{fill:url(#radial-gradient-3);}.cls-26{fill:url(#radial-gradient-4);}.cls-27{fill:url(#radial-gradient-5);}.cls-28{fill:url(#radial-gradient-6);}.cls-29{fill:url(#radial-gradient-7);}.cls-30{fill:url(#radial-gradient-8);}.cls-31{fill:url(#radial-gradient-9);}.cls-32{fill:url(#radial-gradient-10);}.cls-33{fill:url(#radial-gradient-11);}</style><radialGradient id="radial-gradient" cx="-6821.89" cy="1628.33" r="1098.07" gradientTransform="matrix(-0.93, 0.36, 0.36, 0.93, -6573.03, 1494.45)" gradientUnits="userSpaceOnUse"><stop offset="0.01" stop-color="#e7e5f0"/><stop offset="0.17" stop-color="#e3e0ec"/><stop offset="0.37" stop-color="#d7d1e2"/><stop offset="0.59" stop-color="#c3b8d0"/><stop offset="0.82" stop-color="#a896b7"/><stop offset="1" stop-color="#8e75a0"/></radialGradient><linearGradient id="Áåçûìÿííûé_ãðàäèåíò_151" x1="1504.18" y1="-8022.52" x2="1504.18" y2="-8626.71" gradientTransform="matrix(-0.4, -0.92, -0.92, 0.4, -6882.57, 4903.54)" gradientUnits="userSpaceOnUse"><stop offset="0.02" stop-color="#ffb880"/><stop offset="1" stop-color="#ff8777"/></linearGradient><linearGradient id="Áåçûìÿííûé_ãðàäèåíò_152" x1="1521.47" y1="-8346.59" x2="1611.45" y2="-8436.57" gradientTransform="matrix(-0.4, -0.92, -0.92, 0.4, -6882.57, 4903.54)" gradientUnits="userSpaceOnUse"><stop offset="0" stop-color="#ff8777"/><stop offset="0.98" stop-color="#ffb880"/></linearGradient><linearGradient id="Áåçûìÿííûé_ãðàäèåíò_152-2" x1="1412.52" y1="-8426.04" x2="1412.52" y2="-8552.72" xlink:href="#Áåçûìÿííûé_ãðàäèåíò_152"/><linearGradient id="Áåçûìÿííûé_ãðàäèåíò_152-3" x1="1472.76" y1="-8444.76" x2="1472.76" y2="-8630.36" xlink:href="#Áåçûìÿííûé_ãðàäèåíò_152"/><linearGradient id="Áåçûìÿííûé_ãðàäèåíò_152-4" x1="1527.8" y1="-8439.83" x2="1527.8" y2="-8600.49" xlink:href="#Áåçûìÿííûé_ãðàäèåíò_152"/><linearGradient id="Áåçûìÿííûé_ãðàäèåíò_55" x1="1544.46" y1="-8538.22" x2="1544.46" y2="-8540.16" gradientTransform="matrix(-0.4, -0.92, -0.92, 0.4, -6882.57, 4903.54)" gradientUnits="userSpaceOnUse"><stop offset="0.01" stop-color="#b060f4"/><stop offset="1" stop-color="#ffeadb"/></linearGradient><linearGradient id="Áåçûìÿííûé_ãðàäèåíò_409" x1="-3431.38" y1="-8563.59" x2="-3431.38" y2="-8565.09" gradientTransform="matrix(0.4, 0.92, -0.92, 0.4, -6081.5, 6728.93)" gradientUnits="userSpaceOnUse"><stop offset="0" stop-color="#ffeadb"/><stop offset="0.99" stop-color="#b060f4"/></linearGradient><linearGradient id="Áåçûìÿííûé_ãðàäèåíò_59" x1="-3267.02" y1="-3158.28" x2="-3169.81" y2="-3158.28" gradientTransform="matrix(-0.49, -0.87, -0.87, 0.49, -4174.14, -1115.93)" gradientUnits="userSpaceOnUse"><stop offset="0"/><stop offset="0.04" stop-color="#0c0300"/><stop offset="0.4" stop-color="#6b1f00"/><stop offset="0.69" stop-color="#b03300"/><stop offset="0.89" stop-color="#db3f00"/><stop offset="1" stop-color="#ec4400"/></linearGradient><linearGradient id="Áåçûìÿííûé_ãðàäèåíò_59-2" x1="1320.3" y1="21938.88" x2="1411.08" y2="21938.88" gradientTransform="matrix(0.49, 0.87, 0.42, -0.23, -9534.58, 4074.46)" xlink:href="#Áåçûìÿííûé_ãðàäèåíò_59"/><radialGradient id="radial-gradient-2" cx="5185.58" cy="-1028.53" r="16.74" gradientTransform="translate(-4956.52 658.42) rotate(5.33)" gradientUnits="userSpaceOnUse"><stop offset="0" stop-color="#ff7eff"/><stop offset="0.13" stop-color="#cf66cf"/><stop offset="0.31" stop-color="#914891"/><stop offset="0.48" stop-color="#5d2e5d"/><stop offset="0.64" stop-color="#351a35"/><stop offset="0.78" stop-color="#180c18"/><stop offset="0.91" stop-color="#060306"/><stop offset="1"/></radialGradient><radialGradient id="radial-gradient-3" cx="5185.58" cy="-1028.53" r="7.82" xlink:href="#radial-gradient-2"/><radialGradient id="radial-gradient-4" cx="5066.49" cy="-928.79" r="12.12" xlink:href="#radial-gradient-2"/><radialGradient id="radial-gradient-5" cx="5066.49" cy="-928.79" r="5.66" xlink:href="#radial-gradient-2"/><radialGradient id="radial-gradient-6" cx="5158.93" cy="-964.24" r="8.37" xlink:href="#radial-gradient-2"/><radialGradient id="radial-gradient-7" cx="5158.93" cy="-964.23" r="3.91" xlink:href="#radial-gradient-2"/><radialGradient id="radial-gradient-8" cx="5097.75" cy="-955.57" r="5.22" xlink:href="#radial-gradient-2"/><radialGradient id="radial-gradient-9" cx="5097.75" cy="-955.57" r="2.44" xlink:href="#radial-gradient-2"/><radialGradient id="radial-gradient-10" cx="5068.22" cy="-999.32" r="5.22" xlink:href="#radial-gradient-2"/><radialGradient id="radial-gradient-11" cx="5068.22" cy="-999.32" r="2.44" xlink:href="#radial-gradient-2"/></defs><g class="cls-1"><g id="Layer_1" data-name="Layer 1"><path class="cls-2" d="M407.83,51.29C387.26,56,357.31,73.92,325.07,84l0,0c-45.37,14.09-88.1,28.3-88.1,28.3l-2.25-5.14L235,107l.2.34L282.67,86l11.08-5s1-.19,2.82-.47l-.12-.16c10.22,1.49,74.24-18.59,78.23-36,3.34-14.63-6.93-24.5-10.41-23-9.9,2.34-30,9.27-53.5,17.87l-1.85.71C278.45,51,242.58,65,215.41,75.6l0,0c-10.52,4.16-19.77,7.78-26.85,10.61h0l-14.88,5.93h0l-4-14.14,14.77-10.34s28.47-.67,33.59-3.63S243.47,37.47,241.23,24,230.49-.68,227.41,0c-1.74.38-12.62,10.39-25.64,23l0,.07c-10.32,9.88-21.29,19.72-28.34,23.32l-1.53.74-.35.17-1.34.63-.39.18-1.52.69-.27.12c-11.62,5.23-30.39,12.66-46.37,20.75l-.11.06c-.74.37-1.47.74-2.19,1.12l-.2.11L117,72.05l0,0a132.44,132.44,0,0,0-12.22,7.29l0,0h0a54.09,54.09,0,0,0-8,6.43c-.22.24-.44.47-.65.73l0,0q-.32.38-.63.78c-.2.27-.4.55-.59.83,0,0,0,0,0,0-.21.3-.4.61-.59.92s-.39.64-.57,1a31.74,31.74,0,0,0-2,4.39c-.15.41-.3.81-.43,1.22-.26.77-.51,1.56-.74,2.38a76.54,76.54,0,0,0-2,9.26l0,.17c-.11.72-.21,1.44-.31,2.18,0,0,0,0,0,0h0c-.27,2-.48,4-.65,6.09a1.79,1.79,0,0,0,0,.23s0,0,0,.07c-.14,1.66-.25,3.34-.34,5v.07c0,.05,0,.1,0,.14,0,.68-.07,1.35-.09,2,0,.16,0,.31,0,.46s0,.37,0,.56c0,.54,0,1.08,0,1.62,0,.12,0,.23,0,.35l0,1.28c0,.43,0,.86,0,1.27s0,.8,0,1.2,0,1,0,1.54v.57q0,1.92,0,3.78v.17c0,.19,0,.37,0,.56,0,.39,0,.78,0,1.16,0,.16,0,.32,0,.48s0,.47,0,.71,0,.49,0,.74l0,.8c0,.13,0,.27,0,.4v.09c0,.56,0,1.12.06,1.66,0,.37,0,.76,0,1.12l.06,1.12c0,.11,0,.21,0,.31s0,.33,0,.49,0,.25,0,.38,0,.27,0,.4c0,.56.05,1.13.08,1.67.13,2.39.28,4.49.41,6.24,0,.19,0,.38,0,.56v0c.15,1.94.28,3.36.36,4.15a.91.91,0,0,0,0,.17l.06.55c-.62.4-1.27.76-1.9,1.14-.46.26-.91.54-1.38.79-.64.36-1.3.7-2,1l-1,.52c-.8.39-1.62.77-2.44,1.13l-.65.3c-1.05.45-2.11.89-3.17,1.3l-.93.36c-.27.11-.55.21-.85.31s-.64.24-1,.34l-.59.2-.7.23-.26.08-1.08.34c-.7.21-1.42.43-2.18.64l-1.85.53-1,.28-.63.17-1.4.36-.17,0-1.88.48c-1.55.39-3.15.78-4.81,1.17l-1.83.42-1.18.27L4.64,184.18v76.55c41.92-11.68,116-31,116-31l36.55,20.55c13.93-.3,45-11,69.66-20.28.68-.24,1.3-.51,1.89-.71,18.49-7,33-13.13,33-13.13L315,195.27s13.63.57,25.51-4.25,27.77-12,30.54-14.36c10.94-7.47,4.17-33-4.68-29.43-6.53,2.56-15.56,6.07-25.51,10l0,0-16.41,6.43-4.25,1.66h0L269,185.33,263.28,173l.24-.1.32-.14.16.35,70.07-31.06,2.5-1.11A107.1,107.1,0,0,0,361,135.43c-.8.17-1.62.31-2.45.44.66-.22,1.33-.43,2-.66,0-.06,0-.06.09,0a167.14,167.14,0,0,0,15.72-6.5l0,0c.08,0,.17-.07.25-.12l.4-.2.19-.11c18.24-8.82,28.94-17.61,28.94-17.61,7.23-5.29,2.51-17.25-1-20.82l.14-.11-.17.07-.3-.29c5-2.78,10.91-3.89,14.19-12.67l.09-.11a8.16,8.16,0,0,0,.44-1.45c.34-1.11.64-2.32.91-3.66C423.18,58.1,414.81,49.84,407.83,51.29Z"/><path class="cls-3" d="M426.79,68.63a16.2,16.2,0,0,0-14.56-4.72l-.14,0C403,66,392.68,70.34,381,75.54c3.56-3.48,5.75-7,6.54-10.44,2.79-12.22-2.08-22.75-8.15-27.77-3.47-2.88-7.28-3.86-10.57-2.78-9.08,2.2-26.43,8-53,17.72L314,53C289.87,61.75,262.18,72.41,238,81.83A102.34,102.34,0,0,0,246.54,71c7.77-11.33,11.07-20.93,9.81-28.51-2.08-12.44-9-23.7-14.48-27.41a9.13,9.13,0,0,0-7.19-1.64c-2.27.5-4.23.94-28.45,24.31l-.07.11c-4.7,4.51-18.73,17.93-26.17,21.72l-1.4.68-.32.16L177,61l-.38.18-1.46.66-.25.11c-3.52,1.59-7.83,3.43-12.39,5.37C152.51,71.64,140,77,129,82.53l-.11,0-2.22,1.14-.2.11L124.28,85a137.91,137.91,0,0,0-12.58,7.51l-.1.07a57.92,57.92,0,0,0-8.86,7.21c-.3.3-.61.64-.94,1h0c-.29.34-.57.69-.85,1.06l0,.06c-.26.35-.53.72-.79,1.1h0c-.25.35-.49.73-.75,1.16s-.56,1-.74,1.27a39.4,39.4,0,0,0-2.33,5.18q-.27.7-.51,1.44c-.3.89-.58,1.78-.81,2.62a81.18,81.18,0,0,0-2.1,9.86l0,.23c-.1.64-.18,1.28-.28,1.93l0,.32h0v.08c-.25,1.94-.47,4-.67,6.27l0,.33h0c-.14,1.66-.26,3.39-.35,5.14v.22c0,.68-.07,1.37-.1,2.05v.11c0,.14,0,.27,0,.39l0,.54c0,.55,0,1.1,0,1.65v.37c0,.4,0,.8,0,1.26,0,.31,0,.61,0,.91v.72c0,.24,0,.48,0,.72v.35c0,.44,0,.89,0,1.39v.56c0,1.3,0,2.57,0,3.82v.13h0l0,2.31c0,.2,0,.4,0,.59l.06,2.12c0,.56,0,1.12.06,1.65l0,1.23c0,.35,0,.69,0,1l0,.41c0,.16,0,.31,0,.44l.12,2.43q.17,3.14.41,6.32l0,.56c0,.21,0,.42,0,.61l-1.11.58-.47.24-.43.22c-.72.35-1.46.69-2.2,1l-.57.26c-1,.41-1.92.81-2.88,1.19l-.09,0-.66.26-.18.06-.5.19-.22.07c-.19.08-.39.15-.6.22l-1.59.52-1,.3c-.66.21-1.34.41-2,.61l-1.31.37-2,.55-1.31.34-.22.05-1.51.39-.27.07c-1.49.37-3,.75-4.62,1.12l-.33.07-1.49.35-1,.23-.14,0c-.71.17-1.44.33-2.18.49l-.08,0-3.41.75-.31.07-3.12.66-.32.06c-.74.16-12.78,3.05-40.06,9.6L4.64,197v13.84l12.38-3c18.81-4.52,38.26-9.19,39.68-9.51l.31-.06,3.22-.69.28-.06,3.53-.77c.8-.17,1.57-.35,2.35-.53l1.16-.27,1.51-.35.34-.07c1.66-.4,3.28-.78,4.83-1.17l.27-.07,1.59-.41.2,0,1.43-.37,2.16-.59,1.43-.4,2.31-.69,1-.32,1.21-.4.41-.14c.37-.12.73-.24,1.09-.38l1-.35.1,0,.92-.36c1.12-.43,2.23-.89,3.31-1.36l.53-.24.17-.08c.88-.39,1.75-.79,2.62-1.21l.76-.39.33-.17c.72-.36,1.43-.73,2.13-1.12.42-.23.83-.47,1.23-.71l.64-.37c.58-.34,1.16-.68,1.73-1l3.05-6.5-.05-.53c-.08-.75-.2-2.1-.35-4l0-.54c-.15-2-.28-4-.39-6l-.15-3.17c0-.36,0-.72,0-1.09l0-1c0-.53,0-1.06,0-1.59l-.06-2c0-.25,0-.49,0-.72l0-2.24c0-1.19,0-2.4,0-3.65v-.47c0-.46,0-.94,0-1.42v0c0-.31,0-.63,0-.94v-.73c0-.24,0-.49,0-.66l0-1.32v-.32c0-.52,0-1,0-1.55l0-1,.09-1.92v-.19h0c.09-1.62.19-3.22.32-4.69l0-.34c.18-2.08.38-3.94.61-5.68h0v-.11h0l0-.2c.08-.59.16-1.16.24-1.69l0-.2a68.48,68.48,0,0,1,1.77-8.33c.18-.65.38-1.31.61-2l0-.11c.1-.31.21-.6.34-.94a24.24,24.24,0,0,1,1.51-3.39l0-.09c.09-.16.18-.33.28-.48l.13-.22.27-.43.07-.14.05,0c.12-.18.24-.35.37-.51a5.46,5.46,0,0,1,.36-.45l.12-.15,0,0,.24-.27a45.85,45.85,0,0,1,6.75-5.43l.09-.07a126.36,126.36,0,0,1,11.44-6.81c.68-.37,1.37-.73,2-1.06l.25-.13L135,94.57l.08,0c10.61-5.37,22.35-10.38,32.72-14.81,4.62-2,9-3.83,12.64-5.48l.25-.11,1.54-.7.4-.19L184,72.6l.37-.18,1.65-.8c6.41-3.28,15.51-10.7,29.47-24.08l.07-.11c11.68-11.27,17.65-16.63,20.63-19.16a39.37,39.37,0,0,1,6.85,16.46c.48,2.9-1.22,9.26-7.44,18.42-5.26,7.74-10.69,13.06-12.14,14-3.14,1.28-17.91,2.43-29.91,2.71l-3.7,1.22L175.37,91.28l-2.61,7.35,4,13.92,6.7-1.28,2.26,5.67,14.64-5.83h0l13.87-5.48,12.53-4.95.07,0c27.23-10.67,62.26-24.3,91.78-35l1.88-.72c24.8-9.07,41.79-14.8,50.55-17,1.8,1.63,5.11,6.75,3.4,14.25-.63,2.74-8.07,10.42-31.72,19.81C324.07,89.32,308,92.72,305,92.41L303.49,95l-.37-2.39c-1.86.29-2.94.48-2.94.48l-1.57.49-57.28,25.82-.56-.17-.26.12-3.4,8.83,2.22,5.06,8.28,3.68c.42-.14,42.49-14.11,86.53-27.8l.08,0c16.15-5,31.76-12,45.52-18.22S405.49,79.27,415,77.07a3.12,3.12,0,0,1,2.33,1.12c.85.84,3.51,4.12,2.17,11a29.64,29.64,0,0,1-.73,2.92l-.15.61c0,.16-.07.24-.07.25h0l-.18.3c-1.67,4.46-3.93,5.54-7.69,7.32-1,.49-2.1,1-3.21,1.61l-.16,1.34L407,103l.05,0-.17.13-.59,9.78v.15a13.59,13.59,0,0,1,2.75,8.3c-.12,1.46-.66,1.85-1,2.07l-.28.22c-.1.08-10.22,8.28-27.09,16.45q-.28.14-.57.3h0l-.28.12a154.28,154.28,0,0,1-14.25,5.93,7.78,7.78,0,0,0-1.12.38l0,0c-.36.13-.72.24-1.09.36l-.24.08.08.35a97.09,97.09,0,0,1-20.3,4.36l-2.07.55-71,31.49-.51-.2-.53.24-3.4,9,5.6,12.11,8.56,3.44,50.34-19.73,20.32-7.95h.07l19.5-7.62,4.25-1.66a17.9,17.9,0,0,1,2.33,9.46c-.06,3.39-1,6.06-2.63,7.15l-.63.48.07-.06c-2.07,1.6-14.84,7.63-28.22,13-10.13,4.11-22.18,3.7-22.29,3.7l-2.73.46-52.43,20.54-.17.07c-.14.05-14.28,6-32.09,12.77l-1.11.42-.72.28-.12,0c-30.92,11.7-53.66,18.53-64.54,19.42l-34.25-19.26-5-.64c-3.93,1-86.76,22.62-124.77,33.44v14c32.6-9.41,110.26-29.75,125.54-33.74l33.59,18.88,3.44.87c11.88-.27,35.66-7.12,70.7-20.37l1.06-.4c.22-.09.44-.18.65-.25l.2-.07c17.38-6.58,31.36-12.46,32.57-13l51.12-20c4.1,0,15.76-.39,26.39-4.7.26-.1,25.63-10.35,31.56-15C392,191.76,391,175,386.25,166.08c-3.56-6.65-8.61-8.58-12.78-8.21,3.83-1.47,7.77-3.16,11.95-5.12l.46-.22c.24-.11.47-.23.7-.36,17.47-8.47,28.15-16.88,29.55-18a15.82,15.82,0,0,0,6.25-11.69,25.61,25.61,0,0,0-2.07-11.74,23.22,23.22,0,0,0,10.56-12.51L431,98a16.25,16.25,0,0,0,.72-2.27c.37-1.27.7-2.61,1-4C434.5,82.56,432.35,74.13,426.79,68.63ZM209.29,93.11c-5.22,2.06-9.91,3.91-13.91,5.51h0l-7.73,3.08L187,99.55,196,93.29c4.36-.13,9.65-.35,14.81-.76Zm136,75.29h-.07l-20.32,8-.06,0L285.08,192l60.18-26.67a108.05,108.05,0,0,0,15.47-2.91C356.07,164.19,350.84,166.24,345.32,168.4Zm26-10.11c-.31.1-.61.2-.9.32l-.47.18,3.59-3.65A6.61,6.61,0,0,1,371.28,158.29Z"/><path class="cls-3" d="M375.34,171.11l0,0Z"/><path class="cls-3" d="M386.45,152.24l-.23.1Z"/><path class="cls-3" d="M386.74,152.08l-.09,0Z"/><path class="cls-3" d="M380,140.43l-.19.09Z"/><path class="cls-3" d="M380,140.42h0Z"/><path class="cls-3" d="M373.45,47.16l-.85.29A5,5,0,0,0,373.45,47.16Z"/><path class="cls-4" d="M413.87,75.29c-20.23,4.64-50,17.47-81.68,27.36l0,0c-44.63,13.86-86.66,27.84-86.66,27.84l-2.22-5.06,57.64-26s1-.19,2.78-.46c7.43-1.31,27.71-5.09,35.21-9.74,9.25-5.74,36.76-22.35,40.47-26.28,5.44-5.75-5.19-23.49-8.62-22-9.73,2.31-29.49,9.13-52.63,17.59,0,0-.32.14-.95.37a6.41,6.41,0,0,1-.87.33c-30,10.9-65.26,24.64-92,35.12l0,0c-10.34,4.1-19.44,7.66-26.41,10.44L183.2,110.7l-4-13.91,14.52-10.17s28-.66,33.05-3.57,25.12-26.15,22.91-39.42S239.16,19.38,236.13,20c-1.71.38-12.43,10.22-25.23,22.58l0,.07C200.73,52.4,189.94,62.09,183,65.62c-15.81,7.91-60.87,24-75.42,38.84-.22.23-.44.45-.65.71l0,0c-.21.25-.41.5-.62.77s-.4.54-.59.82c0,0,0,0,0,0a10.61,10.61,0,0,0-.58.9c-.2.31-.38.63-.56,1a29.77,29.77,0,0,0-1.94,4.33c-.15.39-.29.78-.43,1.19-.25.76-.5,1.53-.72,2.34-.4,1.39-.75,2.85-1.07,4.37-.16.75-.3,1.52-.45,2.3s-.3,1.72-.44,2.61c-.11.71-.21,1.42-.31,2.15,0,0,0,0,0,0-.1.82-.2,1.64-.29,2.47,0,.41-.09.83-.13,1.24s-.1.84-.13,1.26-.07.83-.11,1.26c-.14,1.68-.26,3.37-.34,5.07l-.06,1.27c0,.43,0,.87-.06,1.31,0,.83-.06,1.67-.08,2.49,0,.42,0,.85,0,1.26s0,.84,0,1.25,0,.79,0,1.18,0,1,0,1.52c0,1.51,0,3,0,4.45,0,.72,0,1.44,0,2.15,0,.24,0,.47,0,.7l.06,1.91c0,1,.07,1.91.1,2.83l.06,1.27c0,.2,0,.41,0,.62,0,.83.08,1.63.12,2.4.29,5.21.64,9.1.8,10.71a2.3,2.3,0,0,0,0,.28c0,.35,0,.54,0,.54a68.76,68.76,0,0,1-12.3,6.11l-.85.33-.9.33-1,.34c-.63.22-1.3.43-2,.65-.86.27-1.78.54-2.73.81l-1.83.52-3.12.83-2.87.73q-2.68.66-5.57,1.32l-1.15.26-2.32.52L59,191l-3.36.71-.27.05c-.86.18-26.61,6.37-50.7,12.15v76C42.32,269.16,131.11,246,131.11,246l35.95,20.21c13.71-.3,44.25-10.77,68.52-20,.67-.24,1.28-.5,1.86-.7,18.19-6.89,32.42-12.91,32.42-12.91l52.43-20.54s13.41.56,25.1-4.19,27.31-11.75,30-14.12c6-5.22-.26-30.5-4.6-28.94-6.43,2.5-15.31,6-25.09,9.8l0,0c-30.84,12.07-70.7,27.7-70.7,27.7l-5.59-12.11.24-.1L343,158.49a105.43,105.43,0,0,0,24.07-5.44c0-.07,0-.07.08,0a161.87,161.87,0,0,0,15.47-6.4h0a2.09,2.09,0,0,0,.46-.26,1.12,1.12,0,0,0,.37-.16c17.94-8.69,28.47-17.33,28.47-17.33,7.34-5.38,2.15-17.75-1.28-20.8,5.83-3.21,14.06-12.58,14.06-12.58C427.61,88.56,420.74,73.86,413.87,75.29Z"/><path class="cls-5" d="M210.9,42.62l0,.07C200.73,52.4,189.94,62.09,183,65.62c-13.58,6.8-48.74,19.61-67.61,32.51,27.07-3.06,67.81,12.57,67.81,12.57l-4-13.91,14.52-10.17s28-.66,33.05-3.57,25.12-26.15,22.91-39.42S239.16,19.38,236.13,20C234.42,20.42,223.7,30.26,210.9,42.62Z"/><path class="cls-6" d="M277,202.35l-7.14,30.32,52.43-20.54s13.41.56,25.1-4.19,27.07-12.09,30-14.12c10.76-7.35,4.1-32.46-4.6-28.94-6.4,2.58-15.31,6-25.09,9.8l0,0C316.86,186.72,277,202.35,277,202.35Z"/><path class="cls-7" d="M367.19,153a161.87,161.87,0,0,0,15.47-6.4h0a2.09,2.09,0,0,0,.46-.26,1.12,1.12,0,0,0,.37-.16c17.94-8.69,28.47-17.33,28.47-17.33,7.34-5.38,2.15-17.75-1.28-20.8,5.83-3.21,12.74-4.15,15.38-17.6,2.6-13.25-5.64-21.38-12.5-20-20.24,4.65-49.69,22.27-81.41,32.16l0,0c-44.63,13.86-86.66,27.84-86.66,27.84l26.16,59.63L343,158.49a105.43,105.43,0,0,0,24.07-5.44C367.13,153,367.13,153,367.19,153Z"/><path class="cls-8" d="M303.69,99C312.57,101,377,81,381,63.6c3.28-14.39-6.81-24.1-10.24-22.6-9.73,2.31-29.49,9.13-52.63,17.59,0,0-.32.14-.95.37a6.41,6.41,0,0,1-.87.33l-.21.08C286.16,70.26,251,84,224.31,94.41l0,0,19,31,57.64-26A3.26,3.26,0,0,1,303.69,99Z"/><path class="cls-9" d="M172.1,189.12s17.22-42.5,11.1-78.43l14.64-5.84s47.1,72.41,40.41,104.79c0,0-27.78,9-39.54,6S172.1,189.12,172.1,189.12Z"/><path class="cls-10" d="M317.17,59c.63-.23.95-.37.95-.37l-1.82.7A6.41,6.41,0,0,0,317.17,59Z"/><path class="cls-11" d="M224.78,94.62l0,0L240.91,121v0l2.82,4.6,46.74-21.08,10.9-4.91s1-.18,2.78-.46c-.77-1-10.16-13.48-12.13-21.49-1.69-6.88,18-15.49,24.52-18.15Z"/><path class="cls-12" d="M246,130.72l26.15,59.63L341,159.8l2.46-1.09a106.06,106.06,0,0,0,24.08-5.45,35.76,35.76,0,0,1-18.18-.55l-2.87-18.21s55.3-18.55,64.66-26.24c0,0-40.76,16.9-66.62,21.77,0,0-22.29-11.14-12-27.15-9.06,2.82-18,5.64-26.54,8.35C272.65,121.85,246,130.72,246,130.72Z"/><path class="cls-13" d="M383.53,146.17a5.88,5.88,0,0,1-.83.42,14.94,14.94,0,0,0,1.27-.83Z"/><path class="cls-11" d="M277,202.35l-1.49,6.36h0l-5.64,24,52.43-20.54L316.63,199l31.11-24.33,0,0-20.32,8h0Z"/><path class="cls-14" d="M183.2,110.69s7.78,39.47-7.85,69.22c0,0,25.15-27.13,22.49-75.06Z"/><path class="cls-15" d="M106.07,177.41c-4.1-7.85-4.9-37.32-4.63-60.86-6.35,22.34-2.25,60.89-2.25,60.89-.23.15-.48.31-.72.45a70.53,70.53,0,0,1-11.58,5.66c-6.64,2.68-45,11.86-82.25,20.35V207c41-7.62,85.72-16.66,95.68-21.35,3.61-1.71,5.89-3.61,6.22-5.74A4,4,0,0,0,106.07,177.41Z"/><path class="cls-16" d="M101.44,116.55c-6.35,22.34-2.25,60.89-2.25,60.89-.23.15,7.34,2.46,7.34,2.46h0a4,4,0,0,0-.47-2.48C102,169.56,101.17,140.09,101.44,116.55Z"/><path class="cls-17" d="M151.84,211.85c-5.87,4.85-29.49-49.37-27.62-79,1.3-20.62,8.15-21.68,11.92-22.8s27.47,1.52,34.07,18S168.65,198,151.84,211.85Z"/><path class="cls-18" d="M240,134.44c2.48-2.89,22.66,40.87,28.22,63.65,2.95,12.08-10.06,39.33-14.5,27.92C247.35,209.6,232.94,142.71,240,134.44Z"/><path class="cls-19" d="M107.6,155.47s-2.15-23.31-1.56-28,.47-17.33,4.9-20.63,39.88-23,39.88-23S117.24,104.91,112,111.34,107.6,155.47,107.6,155.47Z"/><path class="cls-19" d="M4.64,271.17v4.32c50.27-13.8,115.51-32.93,115.51-32.93S54.72,259.53,4.64,271.17Z"/><path class="cls-19" d="M220.37,242.4s-31.25,15.45-43.28,16.88-27.94-10.56-27.94-10.56,13.62,7.39,30,5.14S220.37,242.4,220.37,242.4Z"/><path class="cls-20" d="M370.1,43.51s2.84,17.22.38,27.74c0,0,7.16-6.17,7.26-13.35S370.1,43.51,370.1,43.51Z"/><path class="cls-19" d="M366.13,73.67S328,90.14,305.27,91.21c0,0,20.53,1,38.32-5S366.13,73.67,366.13,73.67Z"/><path class="cls-20" d="M374.34,168.48s2.22,13.51.29,21.76c0,0,5.37-4.88,5.7-10.48C380.78,172,374.68,166.51,374.34,168.48Z"/><path class="cls-19" d="M371.23,192.13s-29.88,12.92-47.73,13.76c0,0,16.09.8,30-3.91S371.23,192.13,371.23,192.13Z"/><path class="cls-20" d="M415.51,73.72s2.13,17.84.13,28.28c0,0,6.63-5.92,6.48-13.1S415.51,73.72,415.51,73.72Z"/><path class="cls-20" d="M410.8,110.08a19.39,19.39,0,0,1,2,4.4c1.84,6.3-1.89,12.06-1.89,12.06a82.12,82.12,0,0,0-3.3-14.3A17.44,17.44,0,0,0,410.8,110.08Z"/><path class="cls-19" d="M407.8,127.43s-32.58,19.15-53.65,24.66c0,0,19-3.32,35.52-11.93S407.8,127.43,407.8,127.43Z"/><path class="cls-20" d="M236.65,25.94s7.59,12.07,9.89,20.5c0,0,.46-8.66-2-14A12.06,12.06,0,0,0,236.65,25.94Z"/><path class="cls-19" d="M234.2,28.31s-22.12,23.61-28.06,41.31c0,0,3.7-16.77,12.64-28.49S234.2,28.31,234.2,28.31Z"/><path class="cls-19" d="M4.64,208.94v2.52c38.08-7.9,79.25-17.67,97.48-26.19C102.12,185.27,51.94,197.71,4.64,208.94Z"/><path class="cls-21" d="M320.91,138.71l-63,20.13,1.93,4.41C274.94,152.93,297,147.74,320.91,138.71Z"/><path class="cls-14" d="M320.91,138.71l-63,20.13L265,175c3.39-2.31,4.75-11.74,4.75-11.74l79.16-32Z"/><path class="cls-14" d="M234.61,111.3l5.85,9.56,2.81,4.59,57.64-26C273.53,108,244.92,117.57,234.61,111.3Z"/><path class="cls-14" d="M327.35,182.62,277,202.35l-1.49,6.36C288.44,200.78,307.13,191.83,327.35,182.62Z"/><path class="cls-14" d="M268.06,182l3.59,8.18,68.93-30.56C315.22,169.19,291,176.8,268.06,182Z"/><path class="cls-22" d="M182.51,258.81s-25-15.59-44-54.95-17.93-90.08-17.93-90.08c25.29-18.41,62.63-3.08,62.63-3.08l-4-13.91,14.52-10.17s28-.66,33.05-3.57c-9.73.9-23.49-9.82-24.75-12.9s8.22-26,8.83-27.46C200.73,52.4,189.94,62.09,183,65.62c-15.81,7.91-60.87,24-75.42,38.84-.22.23-.44.45-.65.71l0,0c-.21.25-.41.5-.62.77s-.4.54-.59.82c0,0,0,0,0,0a10.61,10.61,0,0,0-.58.9c-.2.31-.38.63-.56,1a29.77,29.77,0,0,0-1.94,4.33c-.15.39-.29.78-.43,1.19-.25.76-.5,1.53-.72,2.34-.4,1.39-.75,2.85-1.07,4.37-.16.75-.3,1.52-.45,2.3s-.3,1.72-.44,2.61c-.1.7-.21,1.42-.31,2.15,0,0,0,0,0,0-.1.82-.2,1.64-.29,2.47,0,.41-.09.83-.13,1.24s-.1.84-.13,1.26-.07.83-.11,1.26c-.14,1.68-.26,3.37-.34,5.07l-.06,1.27c0,.43,0,.87-.06,1.31,0,.83-.06,1.67-.08,2.49,0,.42,0,.85,0,1.26s0,.84,0,1.25,0,.79,0,1.18,0,1,0,1.52c0,1.51,0,3,0,4.45,0,.72,0,1.44,0,2.15,0,.24,0,.47,0,.7l.06,1.91c0,1,.07,1.91.1,2.83l.06,1.27c0,.2,0,.41,0,.62,0,.83.08,1.63.12,2.4.29,5.21.64,9.1.8,10.71a2.3,2.3,0,0,0,0,.28c0,.35,0,.54,0,.54a68.76,68.76,0,0,1-12.3,6.11l-.85.33-.9.33-1,.34c-.63.22-1.3.43-2,.65-.86.27-1.78.54-2.73.81l-1.83.52-3.12.83-2.87.73q-2.68.66-5.57,1.32l-1.15.26-2.32.52L59,191l-3.36.71-.27.05c-.86.18-26.61,6.37-50.7,12.15v76C42.32,269.16,131.11,246,131.11,246l35.95,20.21c13.71-.3,44.25-10.77,68.52-20C217.85,252.65,182.51,258.81,182.51,258.81Z"/><path class="cls-14" d="M246,130.72l10.33,23.56c1-1.34-.83-14.47-.83-14.47l16.16-12.11,34.45-16.47C272.65,121.85,246,130.72,246,130.72Z"/><path class="cls-23" d="M298.17,115.66a4.16,4.16,0,1,0,4.53-3.76A4.15,4.15,0,0,0,298.17,115.66Z"/><path class="cls-24" d="M285.64,114.49a16.74,16.74,0,1,0,18.22-15.11A16.73,16.73,0,0,0,285.64,114.49Z"/><path class="cls-25" d="M294.53,115.32a7.82,7.82,0,1,0,8.51-7.06A7.8,7.8,0,0,0,294.53,115.32Z"/><path class="cls-23" d="M171.47,204a3,3,0,1,0,3.28-2.72A3,3,0,0,0,171.47,204Z"/><path class="cls-26" d="M162.4,203.17a12.12,12.12,0,1,0,13.19-10.95A12.12,12.12,0,0,0,162.4,203.17Z"/><path class="cls-27" d="M168.83,203.77a5.66,5.66,0,1,0,6.16-5.11A5.66,5.66,0,0,0,168.83,203.77Z"/><path class="cls-23" d="M267.73,177.4a2.08,2.08,0,1,0,2.26-1.88A2.08,2.08,0,0,0,267.73,177.4Z"/><path class="cls-28" d="M261.47,176.81a8.37,8.37,0,1,0,9.11-7.55A8.37,8.37,0,0,0,261.47,176.81Z"/><path class="cls-29" d="M265.91,177.23a3.91,3.91,0,1,0,4.25-3.53A3.9,3.9,0,0,0,265.91,177.23Z"/><path class="cls-23" d="M206.79,180.41a1.3,1.3,0,1,0,1.41-1.17A1.3,1.3,0,0,0,206.79,180.41Z"/><path class="cls-30" d="M202.88,180.05a5.22,5.22,0,1,0,5.69-4.72A5.23,5.23,0,0,0,202.88,180.05Z"/><path class="cls-31" d="M205.65,180.31a2.44,2.44,0,1,0,2.66-2.21A2.44,2.44,0,0,0,205.65,180.31Z"/><path class="cls-23" d="M181.46,134.11a1.3,1.3,0,1,0,1.41-1.17A1.29,1.29,0,0,0,181.46,134.11Z"/><path class="cls-32" d="M177.55,133.74a5.22,5.22,0,1,0,5.68-4.71A5.22,5.22,0,0,0,177.55,133.74Z"/><path class="cls-33" d="M180.32,134a2.44,2.44,0,1,0,2.65-2.2A2.44,2.44,0,0,0,180.32,134Z"/></g></g></svg>