<svg id="Background_Simple" data-name="Background Simple" xmlns="http://www.w3.org/2000/svg" viewBox="0 0 500 500"><defs><style>.cls-1,.cls-4{fill:#92e3a9;}.cls-2,.cls-7,.cls-8{fill:#fff;}.cls-2{opacity:0.7;}.cls-10,.cls-3,.cls-9{fill:none;}.cls-10,.cls-3,.cls-4,.cls-6,.cls-7,.cls-9{stroke:#263238;}.cls-3,.cls-8{stroke-miterlimit:10;}.cls-10,.cls-4,.cls-6,.cls-7,.cls-9{stroke-linecap:round;stroke-linejoin:round;}.cls-5,.cls-6{fill:#263238;}.cls-8{stroke:#9c9c9c;opacity:0.48;}.cls-10{stroke-width:4px;}</style></defs><path class="cls-1" d="M391.43,80.89c-91.65-63.44-222.59-31-305.83,31.51a167.32,167.32,0,0,0-27.69,26.1c-14.29,16.83-25.79,36.93-28.75,59.09-8.67,64.94,55.66,66.77,59.51,95.82S35.19,325,79.22,380.5c73.16,92.27,227.12,93,316.38,25.11A214,214,0,0,0,437.54,363C498.21,281.58,474.94,138.7,391.43,80.89Z"/><path class="cls-2" d="M391.43,80.89c-91.65-63.44-222.59-31-305.83,31.51a167.32,167.32,0,0,0-27.69,26.1c-14.29,16.83-25.79,36.93-28.75,59.09-8.67,64.94,55.66,66.77,59.51,95.82S35.19,325,79.22,380.5c73.16,92.27,227.12,93,316.38,25.11A214,214,0,0,0,437.54,363C498.21,281.58,474.94,138.7,391.43,80.89Z"/><line class="cls-3" x1="63.73" y1="178.38" x2="63.73" y2="184.66"/><line class="cls-3" x1="63.73" y1="192.29" x2="63.73" y2="198.56"/><line class="cls-3" x1="53.64" y1="188.47" x2="59.92" y2="188.47"/><line class="cls-3" x1="67.54" y1="188.47" x2="73.82" y2="188.47"/><line class="cls-3" x1="431.73" y1="254.38" x2="431.73" y2="260.66"/><line class="cls-3" x1="431.73" y1="268.29" x2="431.73" y2="274.56"/><line class="cls-3" x1="421.64" y1="264.47" x2="427.92" y2="264.47"/><line class="cls-3" x1="435.54" y1="264.47" x2="441.82" y2="264.47"/><line class="cls-3" x1="99.73" y1="260.38" x2="99.73" y2="266.66"/><line class="cls-3" x1="99.73" y1="274.29" x2="99.73" y2="280.56"/><line class="cls-3" x1="89.64" y1="270.47" x2="95.92" y2="270.47"/><line class="cls-3" x1="103.54" y1="270.47" x2="109.82" y2="270.47"/><line class="cls-3" x1="271.73" y1="57.38" x2="271.73" y2="63.66"/><line class="cls-3" x1="271.73" y1="71.29" x2="271.73" y2="77.56"/><line class="cls-3" x1="261.64" y1="67.47" x2="267.92" y2="67.47"/><line class="cls-3" x1="275.54" y1="67.47" x2="281.82" y2="67.47"/><circle class="cls-3" cx="399.54" cy="243.47" r="4"/><circle class="cls-3" cx="88.54" cy="338.47" r="4"/><circle class="cls-3" cx="256.54" cy="167.47" r="4"/><circle class="cls-3" cx="409.54" cy="376.47" r="4"/><circle class="cls-3" cx="121.54" cy="233.47" r="4"/><circle class="cls-3" cx="100.54" cy="113.47" r="4"/><circle class="cls-3" cx="356.54" cy="68.47" r="4"/><path class="cls-4" d="M160.81,323.43c9.59-4.55,40.9-26.26,40.9-26.26s23.23,49.48,27.77,61.6c1.59,4.24,3.55,10.39,3.66,15.79,34.37,6.76,95.87,5.79,127.58-11.69a10.88,10.88,0,0,0,.55-2.08c0-2-14.14-104.52-26.76-126.23S280,216.89,269.37,216.38s-37.36-1-37.36-1-23.74,10.1-34.84,17.17S145.66,277.48,139.1,282s-11.11,19.7-2,33.33S151.22,328,160.81,323.43Z"/><path class="cls-5" d="M350.33,305.9a.64.64,0,0,0-.06-.28.71.71,0,0,0-.66-.44v.72Z"/><path class="cls-5" d="M350,290.9a.74.74,0,0,0-.38-.12v1.44a.71.71,0,0,0,.57-.31C350.12,291.57,350.05,291.24,350,290.9Z"/><path class="cls-5" d="M356.53,328.16c-.07-.4-.13-.8-.2-1.2a.76.76,0,0,0-.24.54A.72.72,0,0,0,356.53,328.16Z"/><path class="cls-5" d="M349.61,334v.72h.72A.72.72,0,0,0,349.61,334Z"/><path class="cls-5" d="M349.61,319.58V321a.72.72,0,1,0,0-1.44Z"/><path class="cls-5" d="M349.61,305.9v.72a.73.73,0,0,0,.72-.72Z"/><path class="cls-5" d="M357.53,356.3a.72.72,0,1,0-.72.72A.72.72,0,0,0,357.53,356.3Z"/><path class="cls-5" d="M356.81,341.18a.72.72,0,1,0,.72.72A.72.72,0,0,0,356.81,341.18Z"/><path class="cls-5" d="M350.33,363.5a.64.64,0,0,0-.06-.28.71.71,0,0,0-.66-.44v.72Z"/><path class="cls-5" d="M350.33,349.1a.72.72,0,0,0-.72-.72v1.44A.73.73,0,0,0,350.33,349.1Z"/><path class="cls-5" d="M349.61,335.42a.73.73,0,0,0,.72-.72h-.72Z"/><path class="cls-5" d="M349.61,364.22a.73.73,0,0,0,.72-.72h-.72Z"/><path class="cls-5" d="M335.93,248.3a.64.64,0,0,0-.06-.28.71.71,0,0,0-.66-.44.73.73,0,0,0-.67.44.82.82,0,0,0-.05.28Z"/><path class="cls-5" d="M328.73,241.1a.72.72,0,1,0-.72.72A.72.72,0,0,0,328.73,241.1Z"/><path class="cls-5" d="M328,227.42a.7.7,0,0,0,.25,0c-.31-.26-.64-.5-1-.74,0,0,0,.05,0,.07A.72.72,0,0,0,328,227.42Z"/><path class="cls-5" d="M321.53,248.3a.64.64,0,0,0-.06-.28.76.76,0,0,0-.15-.23.72.72,0,0,0-.51-.21v.72Z"/><path class="cls-5" d="M321.32,233.39a.72.72,0,0,0-.51-.21v1.44a.72.72,0,0,0,.51-1.23Z"/><path class="cls-5" d="M335.21,276.38a.72.72,0,0,0-.72.72h1.44A.72.72,0,0,0,335.21,276.38Z"/><path class="cls-5" d="M335.21,262a.72.72,0,1,0,.72.72A.72.72,0,0,0,335.21,262Z"/><path class="cls-5" d="M328,270.62a.72.72,0,1,0-.72-.72A.72.72,0,0,0,328,270.62Z"/><path class="cls-5" d="M342.41,270.62a.72.72,0,1,0-.72-.72A.72.72,0,0,0,342.41,270.62Z"/><path class="cls-5" d="M327.29,255.5a.72.72,0,1,0,.72-.72A.72.72,0,0,0,327.29,255.5Z"/><path class="cls-5" d="M341.69,255.5a.71.71,0,0,0,.54.68l-.33-1.2A.76.76,0,0,0,341.69,255.5Z"/><path class="cls-5" d="M321.53,277.1a.72.72,0,0,0-.72-.72v.72Z"/><path class="cls-5" d="M321.32,262.19a.72.72,0,0,0-.51-.21v1.44a.72.72,0,0,0,.51-1.23Z"/><path class="cls-5" d="M335.21,249a.72.72,0,0,0,.72-.72h-1.44A.72.72,0,0,0,335.21,249Z"/><path class="cls-5" d="M320.81,248.3V249a.72.72,0,0,0,.72-.72Z"/><path class="cls-5" d="M349.61,305.18a.82.82,0,0,0-.28.05.73.73,0,0,0-.38.39.64.64,0,0,0-.06.28h.72Z"/><path class="cls-5" d="M335.87,305.62a.71.71,0,0,0-.66-.44.73.73,0,0,0-.67.44.82.82,0,0,0-.05.28h1.44A.64.64,0,0,0,335.87,305.62Z"/><path class="cls-5" d="M349.33,290.83a.72.72,0,0,0,0,1.33.64.64,0,0,0,.28.06v-1.44A.82.82,0,0,0,349.33,290.83Z"/><path class="cls-5" d="M335.21,292.22a.72.72,0,1,0-.72-.72A.72.72,0,0,0,335.21,292.22Z"/><path class="cls-5" d="M328,299.42a.72.72,0,1,0-.72-.72A.72.72,0,0,0,328,299.42Z"/><path class="cls-5" d="M342.41,299.42a.72.72,0,1,0-.72-.72A.72.72,0,0,0,342.41,299.42Z"/><path class="cls-5" d="M328,285a.72.72,0,1,0-.72-.72A.72.72,0,0,0,328,285Z"/><path class="cls-5" d="M342.41,285a.72.72,0,1,0-.72-.72A.72.72,0,0,0,342.41,285Z"/><path class="cls-5" d="M321.53,305.9a.64.64,0,0,0-.06-.28.76.76,0,0,0-.15-.23.72.72,0,0,0-.51-.21v.72Z"/><path class="cls-5" d="M321.32,292a.72.72,0,0,0-.51-1.23v1.44A.72.72,0,0,0,321.32,292Z"/><path class="cls-5" d="M335.21,277.82a.71.71,0,0,0,.66-.44.67.67,0,0,0,.06-.28h-1.44a.87.87,0,0,0,.05.28A.73.73,0,0,0,335.21,277.82Z"/><path class="cls-5" d="M320.81,277.1v.72a.72.72,0,0,0,.51-.21,1.14,1.14,0,0,0,.15-.23.67.67,0,0,0,.06-.28Z"/><path class="cls-5" d="M349.61,334a.82.82,0,0,0-.28,0,.73.73,0,0,0-.44.67h.72Z"/><path class="cls-5" d="M335.21,334a.72.72,0,0,0-.72.72h1.44A.72.72,0,0,0,335.21,334Z"/><path class="cls-5" d="M349.33,319.63a.72.72,0,0,0,0,1.33.64.64,0,0,0,.28.06v-1.44A.82.82,0,0,0,349.33,319.63Z"/><path class="cls-5" d="M335.21,319.58a.72.72,0,1,0,.72.72A.72.72,0,0,0,335.21,319.58Z"/><path class="cls-5" d="M328,326.78a.72.72,0,1,0,.72.72A.72.72,0,0,0,328,326.78Z"/><path class="cls-5" d="M342.41,326.78a.72.72,0,1,0,.72.72A.72.72,0,0,0,342.41,326.78Z"/><path class="cls-5" d="M328,312.38a.72.72,0,1,0,.72.72A.72.72,0,0,0,328,312.38Z"/><path class="cls-5" d="M342.41,312.38a.72.72,0,1,0,.72.72A.72.72,0,0,0,342.41,312.38Z"/><path class="cls-5" d="M321.53,334.7a.72.72,0,0,0-.72-.72v.72Z"/><path class="cls-5" d="M321.32,319.79a.72.72,0,0,0-.51-.21V321a.72.72,0,0,0,.51-1.23Z"/><path class="cls-5" d="M348.89,305.9a.72.72,0,0,0,.44.66.64.64,0,0,0,.28.06v-.72Z"/><path class="cls-5" d="M334.49,305.9a.72.72,0,1,0,1.44,0Z"/><path class="cls-5" d="M320.81,305.9v.72a.72.72,0,0,0,.72-.72Z"/><path class="cls-5" d="M349.61,362.78a.82.82,0,0,0-.28.05.73.73,0,0,0-.38.39.64.64,0,0,0-.06.28h.72Z"/><path class="cls-5" d="M335.87,363.22a.71.71,0,0,0-.66-.44.73.73,0,0,0-.67.44.82.82,0,0,0-.05.28h1.44A.64.64,0,0,0,335.87,363.22Z"/><path class="cls-5" d="M349.33,349.76a.64.64,0,0,0,.28.06v-1.44a.82.82,0,0,0-.28.05.72.72,0,0,0,0,1.33Z"/><path class="cls-5" d="M335.21,348.38a.72.72,0,1,0,.72.72A.72.72,0,0,0,335.21,348.38Z"/><path class="cls-5" d="M328,355.58a.72.72,0,1,0,.72.72A.72.72,0,0,0,328,355.58Z"/><path class="cls-5" d="M342.41,355.58a.72.72,0,1,0,.72.72A.72.72,0,0,0,342.41,355.58Z"/><path class="cls-5" d="M328,341.18a.72.72,0,1,0,.72.72A.72.72,0,0,0,328,341.18Z"/><path class="cls-5" d="M342.41,341.18a.72.72,0,1,0,.72.72A.72.72,0,0,0,342.41,341.18Z"/><path class="cls-5" d="M321.53,363.5a.64.64,0,0,0-.06-.28.76.76,0,0,0-.15-.23.72.72,0,0,0-.51-.21v.72Z"/><path class="cls-5" d="M321.32,348.59a.72.72,0,0,0-.51-.21v1.44a.72.72,0,0,0,.51-.21.74.74,0,0,0,.21-.51A.72.72,0,0,0,321.32,348.59Z"/><path class="cls-5" d="M348.89,334.7a.72.72,0,0,0,.44.66.64.64,0,0,0,.28.06v-.72Z"/><path class="cls-5" d="M334.49,334.7a.72.72,0,1,0,1.44,0Z"/><path class="cls-5" d="M320.81,334.7v.72a.72.72,0,0,0,.51-.21.75.75,0,0,0,.21-.51Z"/><path class="cls-5" d="M327.29,370.7A.72.72,0,1,0,328,370,.72.72,0,0,0,327.29,370.7Z"/><path class="cls-5" d="M349.61,363.5h-.72a.72.72,0,0,0,.44.66.64.64,0,0,0,.28.06Z"/><path class="cls-5" d="M335.21,364.22a.72.72,0,0,0,.72-.72h-1.44A.72.72,0,0,0,335.21,364.22Z"/><path class="cls-5" d="M320.81,363.5v.72a.72.72,0,0,0,.51-.21.75.75,0,0,0,.21-.51Z"/><path class="cls-5" d="M307.13,219.5a.64.64,0,0,0-.06-.28.71.71,0,0,0-.66-.44.73.73,0,0,0-.67.44.82.82,0,0,0-.05.28Z"/><path class="cls-5" d="M292.73,219.5a.64.64,0,0,0-.06-.28.71.71,0,0,0-.66-.44v.72Z"/><path class="cls-5" d="M320.81,247.58a.73.73,0,0,0-.67.44.82.82,0,0,0-.05.28h.72Z"/><path class="cls-5" d="M306.41,247.58a.73.73,0,0,0-.67.44.82.82,0,0,0-.05.28h1.44a.64.64,0,0,0-.06-.28A.71.71,0,0,0,306.41,247.58Z"/><path class="cls-5" d="M320.09,233.9a.72.72,0,0,0,.72.72v-1.44A.72.72,0,0,0,320.09,233.9Z"/><path class="cls-5" d="M306.41,234.62a.72.72,0,1,0-.72-.72A.72.72,0,0,0,306.41,234.62Z"/><path class="cls-5" d="M299.21,241.82a.72.72,0,1,0-.72-.72A.72.72,0,0,0,299.21,241.82Z"/><path class="cls-5" d="M313.61,241.82a.72.72,0,1,0-.72-.72A.72.72,0,0,0,313.61,241.82Z"/><path class="cls-5" d="M299.21,227.42a.72.72,0,1,0-.72-.72A.72.72,0,0,0,299.21,227.42Z"/><path class="cls-5" d="M312.89,226.7a.72.72,0,1,0,.72-.72A.72.72,0,0,0,312.89,226.7Z"/><path class="cls-5" d="M292.73,248.3a.64.64,0,0,0-.06-.28.71.71,0,0,0-.66-.44v.72Z"/><path class="cls-5" d="M292.73,233.9a.72.72,0,0,0-.72-.72v1.44A.73.73,0,0,0,292.73,233.9Z"/><path class="cls-5" d="M305.74,219.78a.73.73,0,0,0,.67.44.71.71,0,0,0,.66-.44.67.67,0,0,0,.06-.28h-1.44A.87.87,0,0,0,305.74,219.78Z"/><path class="cls-5" d="M292,220.22a.71.71,0,0,0,.66-.44.67.67,0,0,0,.06-.28H292Z"/><path class="cls-5" d="M320.81,276.38a.72.72,0,0,0-.72.72h.72Z"/><path class="cls-5" d="M306.41,276.38a.72.72,0,0,0-.72.72h1.44A.72.72,0,0,0,306.41,276.38Z"/><path class="cls-5" d="M320.09,262.7a.72.72,0,0,0,.72.72V262A.72.72,0,0,0,320.09,262.7Z"/><path class="cls-5" d="M306.41,262a.72.72,0,1,0,.72.72A.72.72,0,0,0,306.41,262Z"/><path class="cls-5" d="M299.21,270.62a.72.72,0,1,0-.72-.72A.72.72,0,0,0,299.21,270.62Z"/><path class="cls-5" d="M313.61,270.62a.72.72,0,1,0-.72-.72A.72.72,0,0,0,313.61,270.62Z"/><path class="cls-5" d="M299.21,256.22a.72.72,0,1,0-.72-.72A.72.72,0,0,0,299.21,256.22Z"/><path class="cls-5" d="M313.61,256.22a.72.72,0,1,0-.72-.72A.72.72,0,0,0,313.61,256.22Z"/><path class="cls-5" d="M292.73,277.1a.72.72,0,0,0-.72-.72v.72Z"/><path class="cls-5" d="M292,262v1.44a.72.72,0,0,0,0-1.44Z"/><path class="cls-5" d="M320.81,249v-.72h-.72A.72.72,0,0,0,320.81,249Z"/><path class="cls-5" d="M306.41,249a.72.72,0,0,0,.72-.72h-1.44A.72.72,0,0,0,306.41,249Z"/><path class="cls-5" d="M292,249a.73.73,0,0,0,.72-.72H292Z"/><path class="cls-5" d="M320.81,305.18a.73.73,0,0,0-.67.44.82.82,0,0,0-.05.28h.72Z"/><path class="cls-5" d="M307.07,305.62a.71.71,0,0,0-.66-.44.73.73,0,0,0-.67.44.82.82,0,0,0-.05.28h1.44A.64.64,0,0,0,307.07,305.62Z"/><path class="cls-5" d="M320.81,292.22v-1.44a.72.72,0,1,0,0,1.44Z"/><path class="cls-5" d="M306.41,292.22a.72.72,0,1,0-.72-.72A.72.72,0,0,0,306.41,292.22Z"/><path class="cls-5" d="M299.21,298a.72.72,0,1,0,.72.72A.72.72,0,0,0,299.21,298Z"/><path class="cls-5" d="M313.61,299.42a.72.72,0,1,0-.72-.72A.72.72,0,0,0,313.61,299.42Z"/><path class="cls-5" d="M299.21,283.58a.72.72,0,1,0,.72.72A.72.72,0,0,0,299.21,283.58Z"/><path class="cls-5" d="M313.61,285a.72.72,0,1,0-.72-.72A.72.72,0,0,0,313.61,285Z"/><path class="cls-5" d="M292.73,305.9a.64.64,0,0,0-.06-.28.71.71,0,0,0-.66-.44v.72Z"/><path class="cls-5" d="M292,290.78v1.44a.72.72,0,0,0,0-1.44Z"/><path class="cls-5" d="M320.81,277.82v-.72h-.72a.87.87,0,0,0,.05.28A.73.73,0,0,0,320.81,277.82Z"/><path class="cls-5" d="M305.74,277.38a.73.73,0,0,0,.67.44.71.71,0,0,0,.66-.44.67.67,0,0,0,.06-.28h-1.44A.87.87,0,0,0,305.74,277.38Z"/><path class="cls-5" d="M292,277.82a.71.71,0,0,0,.66-.44.67.67,0,0,0,.06-.28H292Z"/><path class="cls-5" d="M320.81,334a.72.72,0,0,0-.72.72h.72Z"/><path class="cls-5" d="M306.41,334a.72.72,0,0,0-.72.72h1.44A.72.72,0,0,0,306.41,334Z"/><path class="cls-5" d="M320.09,320.3a.72.72,0,0,0,.72.72v-1.44A.72.72,0,0,0,320.09,320.3Z"/><path class="cls-5" d="M306.41,319.58a.72.72,0,1,0,.72.72A.72.72,0,0,0,306.41,319.58Z"/><path class="cls-5" d="M299.21,326.78a.72.72,0,1,0,.72.72A.72.72,0,0,0,299.21,326.78Z"/><path class="cls-5" d="M313.61,326.78a.72.72,0,1,0,.72.72A.72.72,0,0,0,313.61,326.78Z"/><path class="cls-5" d="M299.21,312.38a.72.72,0,1,0,.72.72A.72.72,0,0,0,299.21,312.38Z"/><path class="cls-5" d="M313.61,312.38a.72.72,0,1,0,.72.72A.72.72,0,0,0,313.61,312.38Z"/><path class="cls-5" d="M292.73,334.7A.72.72,0,0,0,292,334v.72Z"/><path class="cls-5" d="M292,319.58V321a.72.72,0,1,0,0-1.44Z"/><path class="cls-5" d="M320.09,305.9a.72.72,0,0,0,.72.72v-.72Z"/><path class="cls-5" d="M305.69,305.9a.72.72,0,1,0,1.44,0Z"/><path class="cls-5" d="M292,305.9v.72a.73.73,0,0,0,.72-.72Z"/><path class="cls-5" d="M320.81,362.78a.73.73,0,0,0-.67.44.82.82,0,0,0-.05.28h.72Z"/><path class="cls-5" d="M307.07,363.22a.71.71,0,0,0-.66-.44.73.73,0,0,0-.67.44.82.82,0,0,0-.05.28h1.44A.64.64,0,0,0,307.07,363.22Z"/><path class="cls-5" d="M320.09,349.1a.72.72,0,0,0,.72.72v-1.44A.72.72,0,0,0,320.09,349.1Z"/><path class="cls-5" d="M306.41,348.38a.72.72,0,1,0,.72.72A.72.72,0,0,0,306.41,348.38Z"/><path class="cls-5" d="M299.21,355.58a.72.72,0,1,0,.72.72A.72.72,0,0,0,299.21,355.58Z"/><path class="cls-5" d="M313.61,355.58a.72.72,0,1,0,.72.72A.72.72,0,0,0,313.61,355.58Z"/><path class="cls-5" d="M299.21,341.18a.72.72,0,1,0,.72.72A.72.72,0,0,0,299.21,341.18Z"/><path class="cls-5" d="M313.61,341.18a.72.72,0,1,0,.72.72A.72.72,0,0,0,313.61,341.18Z"/><path class="cls-5" d="M292.73,363.5a.64.64,0,0,0-.06-.28.71.71,0,0,0-.66-.44v.72Z"/><path class="cls-5" d="M292,348.38v1.44a.72.72,0,1,0,0-1.44Z"/><path class="cls-5" d="M320.09,334.7a.72.72,0,0,0,.72.72v-.72Z"/><path class="cls-5" d="M305.69,334.7a.72.72,0,1,0,1.44,0Z"/><path class="cls-5" d="M292,334.7v.72a.73.73,0,0,0,.72-.72Z"/><path class="cls-5" d="M298.49,370.7a.72.72,0,1,0,.72-.72A.72.72,0,0,0,298.49,370.7Z"/><path class="cls-5" d="M312.89,370.7a.72.72,0,1,0,.72-.72A.72.72,0,0,0,312.89,370.7Z"/><path class="cls-5" d="M320.81,364.22v-.72h-.72A.72.72,0,0,0,320.81,364.22Z"/><path class="cls-5" d="M306.41,364.22a.72.72,0,0,0,.72-.72h-1.44A.72.72,0,0,0,306.41,364.22Z"/><path class="cls-5" d="M292,364.22a.73.73,0,0,0,.72-.72H292Z"/><path class="cls-5" d="M292,218.78a.73.73,0,0,0-.67.44.82.82,0,0,0,0,.28H292Z"/><path class="cls-5" d="M278.33,219.5a.64.64,0,0,0-.06-.28.71.71,0,0,0-.66-.44.73.73,0,0,0-.67.44.82.82,0,0,0-.05.28Z"/><path class="cls-5" d="M263.93,219.5a.64.64,0,0,0-.06-.28.72.72,0,0,0-.66-.44v.72Z"/><path class="cls-5" d="M292,248.3v-.72a.73.73,0,0,0-.67.44.82.82,0,0,0,0,.28Z"/><path class="cls-5" d="M278.33,248.3a.64.64,0,0,0-.06-.28.71.71,0,0,0-.66-.44.73.73,0,0,0-.67.44.82.82,0,0,0-.05.28Z"/><path class="cls-5" d="M292,234.62v-1.44a.72.72,0,1,0,0,1.44Z"/><path class="cls-5" d="M277.61,234.62a.72.72,0,1,0,0-1.44.72.72,0,1,0,0,1.44Z"/><path class="cls-5" d="M270.41,241.82a.72.72,0,1,0,0-1.44.72.72,0,1,0,0,1.44Z"/><path class="cls-5" d="M284.81,241.82a.72.72,0,1,0-.72-.72A.72.72,0,0,0,284.81,241.82Z"/><path class="cls-5" d="M270.41,227.42a.72.72,0,1,0,0-1.44.72.72,0,1,0,0,1.44Z"/><path class="cls-5" d="M284.81,227.42a.72.72,0,1,0-.72-.72A.72.72,0,0,0,284.81,227.42Z"/><path class="cls-5" d="M263.93,248.3a.64.64,0,0,0-.06-.28.72.72,0,0,0-.66-.44v.72Z"/><path class="cls-5" d="M263.93,233.9a.72.72,0,0,0-.72-.72v1.44A.73.73,0,0,0,263.93,233.9Z"/><path class="cls-5" d="M292,220.22v-.72h-.72a.87.87,0,0,0,0,.28A.73.73,0,0,0,292,220.22Z"/><path class="cls-5" d="M276.94,219.78a.73.73,0,0,0,.67.44.71.71,0,0,0,.66-.44.67.67,0,0,0,.06-.28h-1.44A.87.87,0,0,0,276.94,219.78Z"/><path class="cls-5" d="M263.21,220.22a.72.72,0,0,0,.66-.44.67.67,0,0,0,.06-.28h-.72Z"/><path class="cls-5" d="M292,276.38a.72.72,0,0,0-.72.72H292Z"/><path class="cls-5" d="M277.61,276.38a.72.72,0,0,0-.72.72h1.44A.72.72,0,0,0,277.61,276.38Z"/><path class="cls-5" d="M291.29,262.7a.72.72,0,0,0,.72.72V262A.72.72,0,0,0,291.29,262.7Z"/><path class="cls-5" d="M277.61,262a.72.72,0,0,0,0,1.44.72.72,0,0,0,0-1.44Z"/><path class="cls-5" d="M270.41,270.62a.72.72,0,0,0,0-1.44.72.72,0,1,0,0,1.44Z"/><path class="cls-5" d="M284.81,270.62a.72.72,0,1,0-.72-.72A.72.72,0,0,0,284.81,270.62Z"/><path class="cls-5" d="M270.41,256.22a.72.72,0,0,0,0-1.44.72.72,0,0,0,0,1.44Z"/><path class="cls-5" d="M284.81,256.22a.72.72,0,1,0-.72-.72A.72.72,0,0,0,284.81,256.22Z"/><path class="cls-5" d="M263.93,277.1a.72.72,0,0,0-.72-.72v.72Z"/><path class="cls-5" d="M263.93,262.7a.72.72,0,0,0-.72-.72v1.44A.73.73,0,0,0,263.93,262.7Z"/><path class="cls-5" d="M291.29,248.3a.72.72,0,0,0,.72.72v-.72Z"/><path class="cls-5" d="M277.61,249a.73.73,0,0,0,.72-.72h-1.44A.72.72,0,0,0,277.61,249Z"/><path class="cls-5" d="M263.21,249a.73.73,0,0,0,.72-.72h-.72Z"/><path class="cls-5" d="M292,305.18a.73.73,0,0,0-.67.44.82.82,0,0,0,0,.28H292Z"/><path class="cls-5" d="M278.27,305.62a.71.71,0,0,0-.66-.44.73.73,0,0,0-.67.44.82.82,0,0,0-.05.28h1.44A.64.64,0,0,0,278.27,305.62Z"/><path class="cls-5" d="M291.29,291.5a.72.72,0,0,0,.72.72v-1.44A.72.72,0,0,0,291.29,291.5Z"/><path class="cls-5" d="M277.61,290.78a.72.72,0,0,0,0,1.44.72.72,0,1,0,0-1.44Z"/><path class="cls-5" d="M270.41,298a.72.72,0,0,0,0,1.44.72.72,0,0,0,0-1.44Z"/><path class="cls-5" d="M284.81,298a.72.72,0,1,0,.72.72A.72.72,0,0,0,284.81,298Z"/><path class="cls-5" d="M270.41,283.58a.72.72,0,1,0,0,1.44.72.72,0,1,0,0-1.44Z"/><path class="cls-5" d="M284.81,283.58a.72.72,0,1,0,.72.72A.72.72,0,0,0,284.81,283.58Z"/><path class="cls-5" d="M263.93,305.9a.64.64,0,0,0-.06-.28.72.72,0,0,0-.66-.44v.72Z"/><path class="cls-5" d="M263.21,290.78v1.44a.72.72,0,1,0,0-1.44Z"/><path class="cls-5" d="M292,277.82v-.72h-.72a.87.87,0,0,0,0,.28A.73.73,0,0,0,292,277.82Z"/><path class="cls-5" d="M277.61,277.82a.71.71,0,0,0,.66-.44.67.67,0,0,0,.06-.28h-1.44a.87.87,0,0,0,.05.28A.73.73,0,0,0,277.61,277.82Z"/><path class="cls-5" d="M263.21,277.1v.72a.72.72,0,0,0,.66-.44.67.67,0,0,0,.06-.28Z"/><path class="cls-5" d="M292,334a.72.72,0,0,0-.72.72H292Z"/><path class="cls-5" d="M277.61,334a.72.72,0,0,0-.72.72h1.44A.72.72,0,0,0,277.61,334Z"/><path class="cls-5" d="M291.29,320.3a.72.72,0,0,0,.72.72v-1.44A.72.72,0,0,0,291.29,320.3Z"/><path class="cls-5" d="M277.61,319.58a.72.72,0,1,0,0,1.44.72.72,0,1,0,0-1.44Z"/><path class="cls-5" d="M270.41,326.78a.72.72,0,0,0,0,1.44.72.72,0,1,0,0-1.44Z"/><path class="cls-5" d="M284.81,326.78a.72.72,0,1,0,.72.72A.72.72,0,0,0,284.81,326.78Z"/><path class="cls-5" d="M270.41,312.38a.72.72,0,1,0,0,1.44.72.72,0,1,0,0-1.44Z"/><path class="cls-5" d="M284.81,312.38a.72.72,0,1,0,.72.72A.72.72,0,0,0,284.81,312.38Z"/><path class="cls-5" d="M263.93,334.7a.72.72,0,0,0-.72-.72v.72Z"/><path class="cls-5" d="M263.21,319.58V321a.72.72,0,1,0,0-1.44Z"/><path class="cls-5" d="M291.29,305.9a.72.72,0,0,0,.72.72v-.72Z"/><path class="cls-5" d="M276.89,305.9a.72.72,0,1,0,1.44,0Z"/><path class="cls-5" d="M263.21,305.9v.72a.73.73,0,0,0,.72-.72Z"/><path class="cls-5" d="M292,362.78a.73.73,0,0,0-.67.44.82.82,0,0,0,0,.28H292Z"/><path class="cls-5" d="M278.27,363.22a.71.71,0,0,0-.66-.44.73.73,0,0,0-.67.44.82.82,0,0,0-.05.28h1.44A.64.64,0,0,0,278.27,363.22Z"/><path class="cls-5" d="M291.29,349.1a.72.72,0,0,0,.72.72v-1.44A.72.72,0,0,0,291.29,349.1Z"/><path class="cls-5" d="M277.61,348.38a.72.72,0,1,0,0,1.44.72.72,0,1,0,0-1.44Z"/><path class="cls-5" d="M270.41,355.58a.72.72,0,1,0,0,1.44.72.72,0,1,0,0-1.44Z"/><path class="cls-5" d="M284.81,355.58a.72.72,0,1,0,.72.72A.72.72,0,0,0,284.81,355.58Z"/><path class="cls-5" d="M270.41,341.18a.72.72,0,1,0,0,1.44.72.72,0,1,0,0-1.44Z"/><path class="cls-5" d="M284.81,341.18a.72.72,0,1,0,.72.72A.72.72,0,0,0,284.81,341.18Z"/><path class="cls-5" d="M263.21,362.78v.72h.72a.64.64,0,0,0-.06-.28A.72.72,0,0,0,263.21,362.78Z"/><path class="cls-5" d="M263.21,348.38v1.44a.72.72,0,0,0,0-1.44Z"/><path class="cls-5" d="M291.29,334.7a.72.72,0,0,0,.72.72v-.72Z"/><path class="cls-5" d="M276.89,334.7a.72.72,0,1,0,1.44,0Z"/><path class="cls-5" d="M263.21,334.7v.72a.73.73,0,0,0,.72-.72Z"/><path class="cls-5" d="M277.11,377.38l1,0a.72.72,0,0,0-.47-.18A.69.69,0,0,0,277.11,377.38Z"/><path class="cls-5" d="M270.41,370a.72.72,0,1,0,0,1.44.72.72,0,1,0,0-1.44Z"/><path class="cls-5" d="M284.09,370.7a.72.72,0,1,0,.72-.72A.72.72,0,0,0,284.09,370.7Z"/><path class="cls-5" d="M292,364.22v-.72h-.72A.72.72,0,0,0,292,364.22Z"/><path class="cls-5" d="M277.61,364.22a.73.73,0,0,0,.72-.72h-1.44A.72.72,0,0,0,277.61,364.22Z"/><path class="cls-5" d="M263.21,364.22a.73.73,0,0,0,.72-.72h-.72Z"/><path class="cls-5" d="M263.21,219.5v-.72a.82.82,0,0,0-.28.05.74.74,0,0,0-.39.39.82.82,0,0,0-.05.28Z"/><path class="cls-5" d="M249.53,219.5a.64.64,0,0,0-.06-.28.71.71,0,0,0-.66-.44.73.73,0,0,0-.67.44.82.82,0,0,0,0,.28Z"/><path class="cls-5" d="M235.13,219.5a.64.64,0,0,0-.06-.28.76.76,0,0,0-.15-.23.72.72,0,0,0-.51-.21v.72Z"/><path class="cls-5" d="M263.21,248.3v-.72a.82.82,0,0,0-.28,0,.74.74,0,0,0-.39.39.82.82,0,0,0-.05.28Z"/><path class="cls-5" d="M249.53,248.3a.64.64,0,0,0-.06-.28.71.71,0,0,0-.66-.44.73.73,0,0,0-.67.44.82.82,0,0,0,0,.28Z"/><path class="cls-5" d="M262.93,234.56a.64.64,0,0,0,.28.06v-1.44a.82.82,0,0,0-.28,0,.73.73,0,0,0-.44.67A.71.71,0,0,0,262.93,234.56Z"/><path class="cls-5" d="M248.81,234.62a.72.72,0,1,0,0-1.44.72.72,0,1,0,0,1.44Z"/><path class="cls-5" d="M241.61,241.82a.72.72,0,1,0,0-1.44.72.72,0,1,0,0,1.44Z"/><path class="cls-5" d="M256,241.82a.72.72,0,0,0,0-1.44.72.72,0,0,0,0,1.44Z"/><path class="cls-5" d="M241.61,227.42a.72.72,0,0,0,0-1.44.72.72,0,1,0,0,1.44Z"/><path class="cls-5" d="M256,227.42a.72.72,0,0,0,0-1.44.72.72,0,0,0,0,1.44Z"/><path class="cls-5" d="M235.13,248.3a.64.64,0,0,0-.06-.28.76.76,0,0,0-.15-.23.72.72,0,0,0-.51-.21v.72Z"/><path class="cls-5" d="M234.92,233.39a.72.72,0,0,0-.51-.21v1.44a.72.72,0,0,0,.51-1.23Z"/><path class="cls-5" d="M262.49,219.5a.87.87,0,0,0,.05.28.73.73,0,0,0,.39.38.64.64,0,0,0,.28.06v-.72Z"/><path class="cls-5" d="M248.14,219.78a.73.73,0,0,0,.67.44.71.71,0,0,0,.66-.44.67.67,0,0,0,.06-.28h-1.44A.87.87,0,0,0,248.14,219.78Z"/><path class="cls-5" d="M234.41,219.5v.72a.72.72,0,0,0,.51-.21,1.14,1.14,0,0,0,.15-.23.67.67,0,0,0,.06-.28Z"/><path class="cls-5" d="M263.21,276.38a.82.82,0,0,0-.28.05.73.73,0,0,0-.44.67h.72Z"/><path class="cls-5" d="M248.81,276.38a.72.72,0,0,0-.72.72h1.44A.72.72,0,0,0,248.81,276.38Z"/><path class="cls-5" d="M262.93,263.36a.64.64,0,0,0,.28.06V262a.82.82,0,0,0-.28,0,.72.72,0,0,0,0,1.33Z"/><path class="cls-5" d="M248.81,262a.72.72,0,0,0,0,1.44.72.72,0,0,0,0-1.44Z"/><path class="cls-5" d="M241.61,270.62a.72.72,0,0,0,0-1.44.72.72,0,0,0,0,1.44Z"/><path class="cls-5" d="M256,270.62a.72.72,0,0,0,0-1.44.72.72,0,1,0,0,1.44Z"/><path class="cls-5" d="M240.89,255.5a.72.72,0,1,0,.72-.72A.72.72,0,0,0,240.89,255.5Z"/><path class="cls-5" d="M256,256.22a.72.72,0,0,0,0-1.44.72.72,0,0,0,0,1.44Z"/><path class="cls-5" d="M235.13,277.1a.72.72,0,0,0-.72-.72v.72Z"/><path class="cls-5" d="M234.92,262.19a.72.72,0,0,0-.51-.21v1.44a.72.72,0,0,0,.51-1.23Z"/><path class="cls-5" d="M262.49,248.3a.72.72,0,0,0,.44.66.64.64,0,0,0,.28.06v-.72Z"/><path class="cls-5" d="M248.81,249a.73.73,0,0,0,.72-.72h-1.44A.72.72,0,0,0,248.81,249Z"/><path class="cls-5" d="M234.41,248.3V249a.72.72,0,0,0,.72-.72Z"/><path class="cls-5" d="M263.21,305.18a.82.82,0,0,0-.28.05.74.74,0,0,0-.39.39.82.82,0,0,0-.05.28h.72Z"/><path class="cls-5" d="M249.47,305.62a.71.71,0,0,0-.66-.44.73.73,0,0,0-.67.44.82.82,0,0,0,0,.28h1.44A.64.64,0,0,0,249.47,305.62Z"/><path class="cls-5" d="M262.93,290.83a.72.72,0,0,0,0,1.33.64.64,0,0,0,.28.06v-1.44A.82.82,0,0,0,262.93,290.83Z"/><path class="cls-5" d="M248.81,292.22a.72.72,0,0,0,0-1.44.72.72,0,1,0,0,1.44Z"/><path class="cls-5" d="M241.61,299.42a.72.72,0,1,0,0-1.44.72.72,0,0,0,0,1.44Z"/><path class="cls-5" d="M256,299.42a.72.72,0,0,0,0-1.44.72.72,0,1,0,0,1.44Z"/><path class="cls-5" d="M241.61,285a.72.72,0,0,0,0-1.44.72.72,0,1,0,0,1.44Z"/><path class="cls-5" d="M255.29,284.3a.72.72,0,1,0,.72-.72A.72.72,0,0,0,255.29,284.3Z"/><path class="cls-5" d="M235.13,305.9a.64.64,0,0,0-.06-.28.76.76,0,0,0-.15-.23.72.72,0,0,0-.51-.21v.72Z"/><path class="cls-5" d="M234.92,292a.72.72,0,0,0-.51-1.23v1.44A.72.72,0,0,0,234.92,292Z"/><path class="cls-5" d="M262.49,277.1a.87.87,0,0,0,.05.28.73.73,0,0,0,.39.38.64.64,0,0,0,.28.06v-.72Z"/><path class="cls-5" d="M248.81,277.82a.71.71,0,0,0,.66-.44.67.67,0,0,0,.06-.28h-1.44a.87.87,0,0,0,0,.28A.73.73,0,0,0,248.81,277.82Z"/><path class="cls-5" d="M234.41,277.1v.72a.72.72,0,0,0,.51-.21,1.14,1.14,0,0,0,.15-.23.67.67,0,0,0,.06-.28Z"/><path class="cls-5" d="M263.21,334a.82.82,0,0,0-.28,0,.73.73,0,0,0-.44.67h.72Z"/><path class="cls-5" d="M248.81,334a.72.72,0,0,0-.72.72h1.44A.72.72,0,0,0,248.81,334Z"/><path class="cls-5" d="M262.93,319.63a.72.72,0,0,0,0,1.33.64.64,0,0,0,.28.06v-1.44A.82.82,0,0,0,262.93,319.63Z"/><path class="cls-5" d="M248.81,319.58a.72.72,0,0,0,0,1.44.72.72,0,0,0,0-1.44Z"/><path class="cls-5" d="M241.61,326.78a.72.72,0,0,0,0,1.44.72.72,0,0,0,0-1.44Z"/><path class="cls-5" d="M256,326.78a.72.72,0,1,0,0,1.44.72.72,0,0,0,0-1.44Z"/><path class="cls-5" d="M241.61,312.38a.72.72,0,1,0,0,1.44.72.72,0,0,0,0-1.44Z"/><path class="cls-5" d="M256,312.38a.72.72,0,0,0,0,1.44.72.72,0,1,0,0-1.44Z"/><path class="cls-5" d="M235.13,334.7a.72.72,0,0,0-.72-.72v.72Z"/><path class="cls-5" d="M234.92,319.79a.72.72,0,0,0-.51-.21V321a.72.72,0,0,0,.51-1.23Z"/><path class="cls-5" d="M262.49,305.9a.72.72,0,0,0,.44.66.64.64,0,0,0,.28.06v-.72Z"/><path class="cls-5" d="M248.09,305.9a.72.72,0,0,0,1.44,0Z"/><path class="cls-5" d="M234.41,305.9v.72a.72.72,0,0,0,.72-.72Z"/><path class="cls-5" d="M263.21,362.78a.82.82,0,0,0-.28.05.74.74,0,0,0-.39.39.82.82,0,0,0-.05.28h.72Z"/><path class="cls-5" d="M249.47,363.22a.71.71,0,0,0-.66-.44.73.73,0,0,0-.67.44.82.82,0,0,0,0,.28h1.44A.64.64,0,0,0,249.47,363.22Z"/><path class="cls-5" d="M262.93,348.43a.72.72,0,0,0,0,1.33.64.64,0,0,0,.28.06v-1.44A.82.82,0,0,0,262.93,348.43Z"/><path class="cls-5" d="M248.81,348.38a.72.72,0,0,0,0,1.44.72.72,0,0,0,0-1.44Z"/><path class="cls-5" d="M241.61,355.58a.72.72,0,1,0,0,1.44.72.72,0,0,0,0-1.44Z"/><path class="cls-5" d="M256,355.58a.72.72,0,0,0,0,1.44.72.72,0,0,0,0-1.44Z"/><path class="cls-5" d="M241.61,341.18a.72.72,0,1,0,0,1.44.72.72,0,1,0,0-1.44Z"/><path class="cls-5" d="M256,341.18a.72.72,0,1,0,0,1.44.72.72,0,0,0,0-1.44Z"/><path class="cls-5" d="M235.13,363.5a.64.64,0,0,0-.06-.28.76.76,0,0,0-.15-.23.72.72,0,0,0-.51-.21v.72Z"/><path class="cls-5" d="M234.92,348.59a.72.72,0,0,0-.51-.21v1.44a.72.72,0,0,0,.51-.21.74.74,0,0,0,.21-.51A.72.72,0,0,0,234.92,348.59Z"/><path class="cls-5" d="M262.49,334.7a.72.72,0,0,0,.44.66.64.64,0,0,0,.28.06v-.72Z"/><path class="cls-5" d="M248.09,334.7a.72.72,0,0,0,1.44,0Z"/><path class="cls-5" d="M234.41,334.7v.72a.72.72,0,0,0,.51-.21.75.75,0,0,0,.21-.51Z"/><path class="cls-5" d="M240.89,370.7a.72.72,0,1,0,.72-.72A.72.72,0,0,0,240.89,370.7Z"/><path class="cls-5" d="M255.29,370.7A.72.72,0,1,0,256,370,.72.72,0,0,0,255.29,370.7Z"/><path class="cls-5" d="M262.49,363.5a.72.72,0,0,0,.44.66.64.64,0,0,0,.28.06v-.72Z"/><path class="cls-5" d="M248.81,364.22a.73.73,0,0,0,.72-.72h-1.44A.72.72,0,0,0,248.81,364.22Z"/><path class="cls-5" d="M234.41,363.5v.72a.72.72,0,0,0,.51-.21.75.75,0,0,0,.21-.51Z"/><path class="cls-5" d="M234.41,218.78a.73.73,0,0,0-.67.44.82.82,0,0,0-.05.28h.72Z"/><path class="cls-5" d="M234.41,247.58a.73.73,0,0,0-.67.44.82.82,0,0,0-.05.28h.72Z"/><path class="cls-5" d="M220,247.58a.73.73,0,0,0-.67.44.82.82,0,0,0-.05.28h1.44a.64.64,0,0,0-.06-.28A.71.71,0,0,0,220,247.58Z"/><path class="cls-5" d="M233.69,233.9a.72.72,0,0,0,.72.72v-1.44A.72.72,0,0,0,233.69,233.9Z"/><path class="cls-5" d="M220,233.18a.72.72,0,1,0,0,1.44.72.72,0,1,0,0-1.44Z"/><path class="cls-5" d="M212.81,241.82a.72.72,0,1,0,0-1.44.72.72,0,1,0,0,1.44Z"/><circle class="cls-5" cx="227.21" cy="241.1" r="0.72"/><path class="cls-5" d="M212.81,227.42a.72.72,0,0,0,0-1.44.72.72,0,0,0,0,1.44Z"/><path class="cls-5" d="M226.49,226.7a.72.72,0,1,0,.72-.72A.72.72,0,0,0,226.49,226.7Z"/><path class="cls-5" d="M206.33,248.3a.64.64,0,0,0-.06-.28.72.72,0,0,0-.66-.44v.72Z"/><path class="cls-5" d="M205.61,233.18v1.44a.72.72,0,1,0,0-1.44Z"/><path class="cls-5" d="M234.41,220.22v-.72h-.72a.87.87,0,0,0,.05.28A.73.73,0,0,0,234.41,220.22Z"/><path class="cls-5" d="M234.41,276.38a.72.72,0,0,0-.72.72h.72Z"/><path class="cls-5" d="M220,276.38a.72.72,0,0,0-.72.72h1.44A.72.72,0,0,0,220,276.38Z"/><path class="cls-5" d="M233.69,262.7a.72.72,0,0,0,.72.72V262A.72.72,0,0,0,233.69,262.7Z"/><path class="cls-5" d="M220,262a.72.72,0,0,0,0,1.44.72.72,0,0,0,0-1.44Z"/><path class="cls-5" d="M212.81,270.62a.72.72,0,0,0,0-1.44.72.72,0,0,0,0,1.44Z"/><circle class="cls-5" cx="227.21" cy="269.9" r="0.72"/><path class="cls-5" d="M212.81,256.22a.72.72,0,1,0,0-1.44.72.72,0,0,0,0,1.44Z"/><path class="cls-5" d="M227.21,256.22a.72.72,0,0,0,0-1.44.72.72,0,0,0,0,1.44Z"/><path class="cls-5" d="M206.33,277.1a.72.72,0,0,0-.72-.72v.72Z"/><path class="cls-5" d="M205.61,262v1.44a.72.72,0,0,0,0-1.44Z"/><path class="cls-5" d="M234.41,249v-.72h-.72A.72.72,0,0,0,234.41,249Z"/><path class="cls-5" d="M220,249a.73.73,0,0,0,.72-.72h-1.44A.72.72,0,0,0,220,249Z"/><path class="cls-5" d="M205.61,249a.73.73,0,0,0,.72-.72h-.72Z"/><path class="cls-5" d="M234.41,305.18a.73.73,0,0,0-.67.44.82.82,0,0,0-.05.28h.72Z"/><path class="cls-5" d="M220.67,305.62a.71.71,0,0,0-.66-.44.73.73,0,0,0-.67.44.82.82,0,0,0-.05.28h1.44A.64.64,0,0,0,220.67,305.62Z"/><path class="cls-5" d="M234.41,292.22v-1.44a.72.72,0,1,0,0,1.44Z"/><path class="cls-5" d="M220,290.78a.72.72,0,0,0,0,1.44.72.72,0,1,0,0-1.44Z"/><path class="cls-5" d="M212.81,298a.72.72,0,0,0,0,1.44.72.72,0,0,0,0-1.44Z"/><path class="cls-5" d="M227.21,299.42a.72.72,0,1,0,0-1.44.72.72,0,1,0,0,1.44Z"/><path class="cls-5" d="M212.81,283.58a.72.72,0,1,0,0,1.44.72.72,0,1,0,0-1.44Z"/><path class="cls-5" d="M227.21,285a.72.72,0,1,0,0-1.44.72.72,0,1,0,0,1.44Z"/><path class="cls-5" d="M205.61,305.18v.34c.06.12.11.25.17.38h.55a.64.64,0,0,0-.06-.28A.72.72,0,0,0,205.61,305.18Z"/><path class="cls-5" d="M205.61,290.78v1.44a.72.72,0,1,0,0-1.44Z"/><path class="cls-5" d="M234.41,277.82v-.72h-.72a.87.87,0,0,0,.05.28A.73.73,0,0,0,234.41,277.82Z"/><path class="cls-5" d="M219.34,277.38a.73.73,0,0,0,.67.44.71.71,0,0,0,.66-.44.67.67,0,0,0,.06-.28h-1.44A.87.87,0,0,0,219.34,277.38Z"/><path class="cls-5" d="M205.61,277.1v.72a.72.72,0,0,0,.66-.44.67.67,0,0,0,.06-.28Z"/><path class="cls-5" d="M234.41,334a.72.72,0,0,0-.72.72h.72Z"/><path class="cls-5" d="M220,334a.72.72,0,0,0-.72.72h1.44A.72.72,0,0,0,220,334Z"/><path class="cls-5" d="M233.69,320.3a.72.72,0,0,0,.72.72v-1.44A.72.72,0,0,0,233.69,320.3Z"/><path class="cls-5" d="M220,319.58a.72.72,0,0,0,0,1.44.72.72,0,0,0,0-1.44Z"/><path class="cls-5" d="M227.21,326.78a.72.72,0,1,0,0,1.44.72.72,0,0,0,0-1.44Z"/><path class="cls-5" d="M212.81,312.38a.72.72,0,0,0,0,1.44.72.72,0,0,0,0-1.44Z"/><path class="cls-5" d="M227.21,312.38a.72.72,0,0,0,0,1.44.72.72,0,0,0,0-1.44Z"/><path class="cls-5" d="M233.69,305.9a.72.72,0,0,0,.72.72v-.72Z"/><path class="cls-5" d="M220,306.62a.73.73,0,0,0,.72-.72h-1.44A.72.72,0,0,0,220,306.62Z"/><path class="cls-5" d="M206,306.45a.69.69,0,0,0,.29-.55h-.55C205.87,306.08,206,306.27,206,306.45Z"/><path class="cls-5" d="M234.41,362.78a.73.73,0,0,0-.67.44.82.82,0,0,0-.05.28h.72Z"/><path class="cls-5" d="M233.69,349.1a.72.72,0,0,0,.72.72v-1.44A.72.72,0,0,0,233.69,349.1Z"/><path class="cls-5" d="M226.49,341.9a.72.72,0,1,0,.72-.72A.72.72,0,0,0,226.49,341.9Z"/><path class="cls-5" d="M233.69,334.7a.72.72,0,0,0,.72.72v-.72Z"/><path class="cls-5" d="M220,335.42a.73.73,0,0,0,.72-.72h-1.44A.72.72,0,0,0,220,335.42Z"/><path class="cls-5" d="M234.41,364.22v-.72h-.72A.72.72,0,0,0,234.41,364.22Z"/><path class="cls-5" d="M205.61,248.3v-.72a.73.73,0,0,0-.67.44.82.82,0,0,0-.05.28Z"/><path class="cls-5" d="M191.93,248.3a.64.64,0,0,0-.06-.28.72.72,0,0,0-1.33,0,.82.82,0,0,0,0,.28Z"/><path class="cls-5" d="M204.89,233.9a.72.72,0,0,0,.72.72v-1.44A.72.72,0,0,0,204.89,233.9Z"/><circle class="cls-5" cx="198.41" cy="241.1" r="0.72"/><path class="cls-5" d="M205.61,276.38a.72.72,0,0,0-.72.72h.72Z"/><path class="cls-5" d="M191.21,276.38a.72.72,0,0,0-.72.72h1.44A.72.72,0,0,0,191.21,276.38Z"/><path class="cls-5" d="M204.89,262.7a.72.72,0,0,0,.72.72V262A.72.72,0,0,0,204.89,262.7Z"/><path class="cls-5" d="M191.21,262a.72.72,0,0,0,0,1.44.72.72,0,0,0,0-1.44Z"/><path class="cls-5" d="M184,270.62a.72.72,0,0,0,0-1.44.72.72,0,0,0,0,1.44Z"/><circle class="cls-5" cx="198.41" cy="269.9" r="0.72"/><path class="cls-5" d="M183.29,255.5a.72.72,0,1,0,.72-.72A.72.72,0,0,0,183.29,255.5Z"/><path class="cls-5" d="M198.41,256.22a.72.72,0,1,0,0-1.44.72.72,0,0,0,0,1.44Z"/><path class="cls-5" d="M176.81,276.38v.72h.72A.72.72,0,0,0,176.81,276.38Z"/><path class="cls-5" d="M176.81,262v1.44a.72.72,0,0,0,0-1.44Z"/><path class="cls-5" d="M204.89,248.3a.72.72,0,0,0,.72.72v-.72Z"/><path class="cls-5" d="M191.21,249a.73.73,0,0,0,.72-.72h-1.44A.72.72,0,0,0,191.21,249Z"/><path class="cls-5" d="M177.49,248.5l-.57.49A.7.7,0,0,0,177.49,248.5Z"/><path class="cls-5" d="M205.46,305.21l.15.31v-.34Z"/><path class="cls-5" d="M204.89,291.5a.72.72,0,0,0,.72.72v-1.44A.72.72,0,0,0,204.89,291.5Z"/><path class="cls-5" d="M191.21,292.22a.72.72,0,1,0,0-1.44.72.72,0,0,0,0,1.44Z"/><path class="cls-5" d="M184.73,298.7a.72.72,0,1,0-.72.72A.72.72,0,0,0,184.73,298.7Z"/><path class="cls-5" d="M198.41,298a.72.72,0,0,0,0,1.44l.06,0,.58-.4a.61.61,0,0,0,.08-.3A.72.72,0,0,0,198.41,298Z"/><path class="cls-5" d="M184,283.58a.72.72,0,1,0,0,1.44.72.72,0,1,0,0-1.44Z"/><path class="cls-5" d="M197.69,284.3a.72.72,0,1,0,.72-.72A.72.72,0,0,0,197.69,284.3Z"/><path class="cls-5" d="M177.53,305.9a.64.64,0,0,0-.06-.28.72.72,0,0,0-.66-.44v.72Z"/><path class="cls-5" d="M177.53,291.5a.72.72,0,0,0-.72-.72v1.44A.73.73,0,0,0,177.53,291.5Z"/><path class="cls-5" d="M204.89,277.1a.87.87,0,0,0,.05.28.73.73,0,0,0,.67.44v-.72Z"/><path class="cls-5" d="M191.21,277.82a.72.72,0,0,0,.66-.44.67.67,0,0,0,.06-.28h-1.44a.87.87,0,0,0,0,.28A.73.73,0,0,0,191.21,277.82Z"/><path class="cls-5" d="M176.81,277.82a.72.72,0,0,0,.66-.44.67.67,0,0,0,.06-.28h-.72Z"/><path class="cls-5" d="M176.81,306.62a.73.73,0,0,0,.72-.72h-.72Z"/><path class="cls-5" d="M176.81,276.38a.82.82,0,0,0-.28.05.73.73,0,0,0-.44.67h.72Z"/><path class="cls-5" d="M162.41,276.38a.72.72,0,0,0-.72.72h1.44A.72.72,0,0,0,162.41,276.38Z"/><path class="cls-5" d="M176.53,262a.72.72,0,0,0,0,1.33.64.64,0,0,0,.28.06V262A.82.82,0,0,0,176.53,262Z"/><path class="cls-5" d="M162.41,263.42a.72.72,0,0,0,0-1.44.75.75,0,0,0-.26,0l-.37.33a.75.75,0,0,0-.09.34A.72.72,0,0,0,162.41,263.42Z"/><path class="cls-5" d="M155.93,269.9a.72.72,0,1,0-.72.72A.72.72,0,0,0,155.93,269.9Z"/><path class="cls-5" d="M170.33,269.9a.72.72,0,1,0-.72.72A.72.72,0,0,0,170.33,269.9Z"/><path class="cls-5" d="M169.61,256.22a.73.73,0,0,0,.72-.72.7.7,0,0,0-.23-.52l-1.06.94A.72.72,0,0,0,169.61,256.22Z"/><path class="cls-5" d="M148.73,277.1a.72.72,0,0,0-.21-.51.75.75,0,0,0-.51-.21v.72Z"/><path class="cls-5" d="M176.81,305.18a.82.82,0,0,0-.28.05.74.74,0,0,0-.39.39.82.82,0,0,0,0,.28h.72Z"/><path class="cls-5" d="M163.07,305.62a.72.72,0,0,0-1.33,0,.82.82,0,0,0-.05.28h1.44A.64.64,0,0,0,163.07,305.62Z"/><path class="cls-5" d="M176.53,292.16a.64.64,0,0,0,.28.06v-1.44a.82.82,0,0,0-.28.05.72.72,0,0,0,0,1.33Z"/><path class="cls-5" d="M162.41,290.78a.72.72,0,0,0,0,1.44.72.72,0,1,0,0-1.44Z"/><path class="cls-5" d="M155.21,298a.72.72,0,0,0,0,1.44.72.72,0,0,0,0-1.44Z"/><path class="cls-5" d="M169.61,298a.72.72,0,1,0,0,1.44.72.72,0,0,0,0-1.44Z"/><path class="cls-5" d="M155.21,283.58a.72.72,0,1,0,0,1.44.72.72,0,1,0,0-1.44Z"/><path class="cls-5" d="M169.61,283.58a.72.72,0,0,0,0,1.44.72.72,0,1,0,0-1.44Z"/><path class="cls-5" d="M148.73,305.9a.64.64,0,0,0-.06-.28.76.76,0,0,0-.15-.23.75.75,0,0,0-.51-.21v.72Z"/><path class="cls-5" d="M148.52,291a.75.75,0,0,0-.51-.21v1.44a.75.75,0,0,0,.51-.21.72.72,0,0,0,0-1Z"/><path class="cls-5" d="M176.09,277.1a.87.87,0,0,0,0,.28.73.73,0,0,0,.39.38.64.64,0,0,0,.28.06v-.72Z"/><path class="cls-5" d="M162.41,277.82a.72.72,0,0,0,.66-.44.67.67,0,0,0,.06-.28h-1.44a.87.87,0,0,0,.05.28A.73.73,0,0,0,162.41,277.82Z"/><path class="cls-5" d="M148,277.1v.72a.75.75,0,0,0,.51-.21,1.14,1.14,0,0,0,.15-.23.67.67,0,0,0,.06-.28Z"/><path class="cls-5" d="M162.41,319.58a.72.72,0,1,0,0,1.44.72.72,0,1,0,0-1.44Z"/><path class="cls-5" d="M154.49,313.1a.72.72,0,1,0,.72-.72A.72.72,0,0,0,154.49,313.1Z"/><path class="cls-5" d="M168.89,313.1a.72.72,0,1,0,.72-.72A.72.72,0,0,0,168.89,313.1Z"/><path class="cls-5" d="M148,319.58V321a.75.75,0,0,0,.51-.21.72.72,0,0,0,0-1A.75.75,0,0,0,148,319.58Z"/><path class="cls-5" d="M176.81,305.9h-.72a.72.72,0,0,0,.44.66.64.64,0,0,0,.28.06Z"/><path class="cls-5" d="M161.69,305.9a.72.72,0,1,0,1.44,0Z"/><path class="cls-5" d="M148,305.9v.72a.75.75,0,0,0,.51-.21.72.72,0,0,0,.21-.51Z"/><path class="cls-5" d="M148,276.38a.72.72,0,0,0-.72.72H148Z"/><path class="cls-5" d="M148,305.18a.73.73,0,0,0-.67.44.82.82,0,0,0-.05.28H148Z"/><path class="cls-5" d="M134.27,305.62a.72.72,0,0,0-1.33,0,.82.82,0,0,0-.05.28h1.44A.64.64,0,0,0,134.27,305.62Z"/><path class="cls-5" d="M147.29,291.5a.72.72,0,0,0,.72.72v-1.44A.72.72,0,0,0,147.29,291.5Z"/><path class="cls-5" d="M133.61,292.22a.72.72,0,1,0,0-1.44.7.7,0,0,0-.41.14c-.09.28-.18.57-.26.86A.73.73,0,0,0,133.61,292.22Z"/><path class="cls-5" d="M140.81,298a.72.72,0,0,0,0,1.44.72.72,0,0,0,0-1.44Z"/><path class="cls-5" d="M140.81,283.58a.72.72,0,1,0,0,1.44.72.72,0,1,0,0-1.44Z"/><path class="cls-5" d="M148,277.82v-.72h-.72a.87.87,0,0,0,.05.28A.73.73,0,0,0,148,277.82Z"/><path class="cls-5" d="M147.29,320.3a.72.72,0,0,0,.72.72v-1.44A.72.72,0,0,0,147.29,320.3Z"/><path class="cls-5" d="M140.09,313.1a.72.72,0,1,0,.72-.72A.72.72,0,0,0,140.09,313.1Z"/><path class="cls-5" d="M147.29,305.9a.72.72,0,0,0,.72.72v-.72Z"/><path class="cls-5" d="M133.61,306.62a.73.73,0,0,0,.72-.72h-1.44A.72.72,0,0,0,133.61,306.62Z"/><path class="cls-6" d="M308.17,315.52,287,301.17,269.21,332.6l-26.65-31.43L228.89,320.3l-19.13-26-6.13,6.95c3.3,7.06,10.25,22,16.23,35.25L234.36,349l8.88-19.13,31.38,32.07,19.85-33.69,23.26,13.24,19.14-13.67L326.62,295.7Z"/><polygon class="cls-6" points="201.71 297.17 194.42 286.2 194.02 302.36 201.71 297.17"/><path class="cls-4" d="M312.79,283.54s8.59,34.33,10.1,48.47,20.2,30.3,31.81,33.83,25.25,0,25.75-4-1.51-8.58-7.07-33.32-10.09-50.5-17.67-75.74-12.12-30.8-29.28-34.84S301.69,224,301.69,224"/><path class="cls-5" d="M378.41,362.78v.72h.72a.64.64,0,0,0-.06-.28A.71.71,0,0,0,378.41,362.78Z"/><path class="cls-5" d="M378.41,349.82h0l0-.12Z"/><path class="cls-5" d="M378.41,364.22a.58.58,0,0,0,.18,0c.14-.1.28-.19.4-.29a.69.69,0,0,0,.14-.39h-.72Z"/><path class="cls-5" d="M350.33,248.3a.64.64,0,0,0-.06-.28.71.71,0,0,0-.66-.44v.72Z"/><path class="cls-5" d="M356.09,269.9a.72.72,0,1,0,.72-.72A.72.72,0,0,0,356.09,269.9Z"/><path class="cls-5" d="M356.09,255.5a.71.71,0,0,0,.63.7l-.36-1.25A.7.7,0,0,0,356.09,255.5Z"/><path class="cls-5" d="M349.61,276.38v.72h.72A.72.72,0,0,0,349.61,276.38Z"/><path class="cls-5" d="M350.33,262.7a.72.72,0,0,0-.72-.72v1.44A.73.73,0,0,0,350.33,262.7Z"/><path class="cls-5" d="M349.61,249a.73.73,0,0,0,.72-.72h-.72Z"/><path class="cls-5" d="M364.67,305.62a.71.71,0,0,0-.66-.44.7.7,0,0,0-.66.44.64.64,0,0,0-.06.28h1.44A.64.64,0,0,0,364.67,305.62Z"/><path class="cls-5" d="M364,290.78a.72.72,0,1,0,.72.72A.72.72,0,0,0,364,290.78Z"/><path class="cls-5" d="M356.81,299.42a.72.72,0,1,0-.72-.72A.72.72,0,0,0,356.81,299.42Z"/><path class="cls-5" d="M356.81,285a.72.72,0,1,0-.72-.72A.72.72,0,0,0,356.81,285Z"/><path class="cls-5" d="M350.33,305.9a.64.64,0,0,0-.06-.28.71.71,0,0,0-.66-.44v.72Z"/><path class="cls-5" d="M350.33,291.5a.72.72,0,0,0-.72-.72v1.44A.73.73,0,0,0,350.33,291.5Z"/><path class="cls-5" d="M349.61,277.82a.71.71,0,0,0,.66-.44.67.67,0,0,0,.06-.28h-.72Z"/><path class="cls-5" d="M364,334a.72.72,0,0,0-.72.72h1.44A.72.72,0,0,0,364,334Z"/><path class="cls-5" d="M364,319.58a.72.72,0,1,0,.72.72A.72.72,0,0,0,364,319.58Z"/><path class="cls-5" d="M356.81,326.78a.72.72,0,1,0,.72.72A.72.72,0,0,0,356.81,326.78Z"/><path class="cls-5" d="M370.49,327.5a.72.72,0,1,0,.72-.72A.72.72,0,0,0,370.49,327.5Z"/><path class="cls-5" d="M356.81,312.38a.72.72,0,1,0,.72.72A.72.72,0,0,0,356.81,312.38Z"/><path class="cls-5" d="M350.33,334.7a.72.72,0,0,0-.72-.72v.72Z"/><path class="cls-5" d="M349.61,319.58V321a.72.72,0,1,0,0-1.44Z"/><path class="cls-5" d="M363.29,305.9a.72.72,0,1,0,1.44,0Z"/><path class="cls-5" d="M349.61,305.9v.72a.73.73,0,0,0,.72-.72Z"/><path class="cls-5" d="M378.41,362.78a.82.82,0,0,0-.28.05.73.73,0,0,0-.38.39.64.64,0,0,0-.06.28h.72Z"/><path class="cls-5" d="M364.67,363.22a.71.71,0,0,0-.66-.44.7.7,0,0,0-.66.44.64.64,0,0,0-.06.28h1.44A.64.64,0,0,0,364.67,363.22Z"/><path class="cls-5" d="M378.1,348.45a.72.72,0,0,0,0,1.31.64.64,0,0,0,.28.06v-.13Z"/><path class="cls-5" d="M364,348.38a.72.72,0,1,0,.72.72A.72.72,0,0,0,364,348.38Z"/><path class="cls-5" d="M356.81,355.58a.72.72,0,1,0,.72.72A.72.72,0,0,0,356.81,355.58Z"/><path class="cls-5" d="M371.21,355.58a.72.72,0,1,0,.72.72A.72.72,0,0,0,371.21,355.58Z"/><path class="cls-5" d="M356.81,341.18a.72.72,0,1,0,.72.72A.72.72,0,0,0,356.81,341.18Z"/><path class="cls-5" d="M371.21,341.18a.72.72,0,1,0,.72.72A.72.72,0,0,0,371.21,341.18Z"/><path class="cls-5" d="M349.61,362.78v.72h.72a.64.64,0,0,0-.06-.28A.71.71,0,0,0,349.61,362.78Z"/><path class="cls-5" d="M349.61,348.38v1.44a.72.72,0,1,0,0-1.44Z"/><path class="cls-5" d="M363.29,334.7a.72.72,0,1,0,1.44,0Z"/><path class="cls-5" d="M349.61,334.7v.72a.73.73,0,0,0,.72-.72Z"/><path class="cls-5" d="M377.69,363.5a.72.72,0,0,0,.44.66.64.64,0,0,0,.28.06v-.72Z"/><path class="cls-5" d="M364,364.22a.72.72,0,0,0,.72-.72h-1.44A.72.72,0,0,0,364,364.22Z"/><path class="cls-5" d="M349.61,363.72l.52.27a.72.72,0,0,0,.2-.49h-.72Z"/><path class="cls-5" d="M321.53,219.5a.64.64,0,0,0-.06-.28.76.76,0,0,0-.15-.23.72.72,0,0,0-.51-.21v.72Z"/><path class="cls-5" d="M349.61,248.3v-.72a.82.82,0,0,0-.28,0,.73.73,0,0,0-.38.39.64.64,0,0,0-.06.28Z"/><path class="cls-5" d="M335.93,248.3a.64.64,0,0,0-.06-.28.71.71,0,0,0-.66-.44.73.73,0,0,0-.67.44.82.82,0,0,0-.05.28Z"/><path class="cls-5" d="M349,234.31l-.1-.21A.68.68,0,0,0,349,234.31Z"/><path class="cls-5" d="M335.21,233.18a.72.72,0,1,0,.72.72A.72.72,0,0,0,335.21,233.18Z"/><path class="cls-5" d="M328,241.82a.72.72,0,1,0-.72-.72A.72.72,0,0,0,328,241.82Z"/><path class="cls-5" d="M342.41,241.82a.72.72,0,1,0-.72-.72A.72.72,0,0,0,342.41,241.82Z"/><path class="cls-5" d="M328,227.42a.72.72,0,1,0-.72-.72A.72.72,0,0,0,328,227.42Z"/><path class="cls-5" d="M342.41,227.42a.72.72,0,1,0-.72-.72A.72.72,0,0,0,342.41,227.42Z"/><path class="cls-5" d="M321.53,248.3a.64.64,0,0,0-.06-.28.76.76,0,0,0-.15-.23.72.72,0,0,0-.51-.21v.72Z"/><path class="cls-5" d="M321.32,233.39a.72.72,0,0,0-.51-.21v1.44a.72.72,0,0,0,.51-1.23Z"/><path class="cls-5" d="M320.81,219.5v.72a.72.72,0,0,0,.51-.21,1.14,1.14,0,0,0,.15-.23.67.67,0,0,0,.06-.28Z"/><path class="cls-5" d="M349.61,276.38a.82.82,0,0,0-.28.05.73.73,0,0,0-.44.67h.72Z"/><path class="cls-5" d="M335.21,276.38a.72.72,0,0,0-.72.72h1.44A.72.72,0,0,0,335.21,276.38Z"/><path class="cls-5" d="M349.33,263.36a.64.64,0,0,0,.28.06V262a.82.82,0,0,0-.28,0,.72.72,0,0,0,0,1.33Z"/><path class="cls-5" d="M335.21,262a.72.72,0,1,0,.72.72A.72.72,0,0,0,335.21,262Z"/><path class="cls-5" d="M328,270.62a.72.72,0,1,0-.72-.72A.72.72,0,0,0,328,270.62Z"/><path class="cls-5" d="M342.41,270.62a.72.72,0,1,0-.72-.72A.72.72,0,0,0,342.41,270.62Z"/><path class="cls-5" d="M327.29,255.5a.72.72,0,1,0,.72-.72A.72.72,0,0,0,327.29,255.5Z"/><path class="cls-5" d="M342.41,256.22a.72.72,0,1,0-.72-.72A.72.72,0,0,0,342.41,256.22Z"/><path class="cls-5" d="M321.53,277.1a.72.72,0,0,0-.72-.72v.72Z"/><path class="cls-5" d="M321.32,262.19a.72.72,0,0,0-.51-.21v1.44a.72.72,0,0,0,.51-1.23Z"/><path class="cls-5" d="M348.89,248.3a.72.72,0,0,0,.44.66.64.64,0,0,0,.28.06v-.72Z"/><path class="cls-5" d="M335.21,249a.72.72,0,0,0,.72-.72h-1.44A.72.72,0,0,0,335.21,249Z"/><path class="cls-5" d="M320.81,248.3V249a.72.72,0,0,0,.72-.72Z"/><path class="cls-5" d="M349.61,305.18a.82.82,0,0,0-.28.05.73.73,0,0,0-.38.39.64.64,0,0,0-.06.28h.72Z"/><path class="cls-5" d="M335.87,305.62a.71.71,0,0,0-.66-.44.73.73,0,0,0-.67.44.82.82,0,0,0-.05.28h1.44A.64.64,0,0,0,335.87,305.62Z"/><path class="cls-5" d="M349.33,292.16a.64.64,0,0,0,.28.06v-1.44a.82.82,0,0,0-.28.05.72.72,0,0,0,0,1.33Z"/><path class="cls-5" d="M335.21,290.78a.72.72,0,1,0,.72.72A.72.72,0,0,0,335.21,290.78Z"/><path class="cls-5" d="M328,298a.72.72,0,1,0,.72.72A.72.72,0,0,0,328,298Z"/><path class="cls-5" d="M342.41,299.42a.72.72,0,1,0-.72-.72A.72.72,0,0,0,342.41,299.42Z"/><path class="cls-5" d="M328,283.58a.72.72,0,1,0,.72.72A.72.72,0,0,0,328,283.58Z"/><path class="cls-5" d="M341.69,284.3a.72.72,0,1,0,.72-.72A.72.72,0,0,0,341.69,284.3Z"/><path class="cls-5" d="M321.32,305.39a.72.72,0,0,0-.51-.21v.72h.72a.64.64,0,0,0-.06-.28A.76.76,0,0,0,321.32,305.39Z"/><path class="cls-5" d="M321.32,291a.72.72,0,0,0-.51-.21v1.44a.72.72,0,0,0,.51-1.23Z"/><path class="cls-5" d="M348.89,277.1a.67.67,0,0,0,.06.28.71.71,0,0,0,.38.38.64.64,0,0,0,.28.06v-.72Z"/><path class="cls-5" d="M335.21,277.82a.71.71,0,0,0,.66-.44.67.67,0,0,0,.06-.28h-1.44a.87.87,0,0,0,.05.28A.73.73,0,0,0,335.21,277.82Z"/><path class="cls-5" d="M320.81,277.1v.72a.72.72,0,0,0,.51-.21,1.14,1.14,0,0,0,.15-.23.67.67,0,0,0,.06-.28Z"/><path class="cls-5" d="M349.61,334a.82.82,0,0,0-.28,0,.73.73,0,0,0-.44.67h.72Z"/><path class="cls-5" d="M335.21,334a.72.72,0,0,0-.72.72h1.44A.72.72,0,0,0,335.21,334Z"/><path class="cls-5" d="M349.33,319.63a.72.72,0,0,0,0,1.33.64.64,0,0,0,.28.06v-1.44A.82.82,0,0,0,349.33,319.63Z"/><path class="cls-5" d="M335.21,319.58a.72.72,0,1,0,.72.72A.72.72,0,0,0,335.21,319.58Z"/><path class="cls-5" d="M328,328.22a.72.72,0,1,0-.72-.72A.72.72,0,0,0,328,328.22Z"/><path class="cls-5" d="M342.41,326.78a.72.72,0,1,0,.72.72A.72.72,0,0,0,342.41,326.78Z"/><path class="cls-5" d="M327.29,313.1a.72.72,0,1,0,.72-.72A.72.72,0,0,0,327.29,313.1Z"/><path class="cls-5" d="M342.41,312.38a.72.72,0,1,0,.72.72A.72.72,0,0,0,342.41,312.38Z"/><path class="cls-5" d="M321.53,320.3a.72.72,0,0,0-.21-.51.75.75,0,0,0-.43-.2c.09.45.17.89.25,1.33a.54.54,0,0,0,.18-.11A.72.72,0,0,0,321.53,320.3Z"/><path class="cls-5" d="M348.89,305.9a.72.72,0,0,0,.44.66.64.64,0,0,0,.28.06v-.72Z"/><path class="cls-5" d="M335.21,306.62a.72.72,0,0,0,.72-.72h-1.44A.72.72,0,0,0,335.21,306.62Z"/><path class="cls-5" d="M320.81,305.9v.72a.72.72,0,0,0,.72-.72Z"/><path class="cls-5" d="M349.61,362.78a.82.82,0,0,0-.28.05.73.73,0,0,0-.38.39.58.58,0,0,0,0,.14l.26.14h.43Z"/><path class="cls-5" d="M349.33,348.43a.72.72,0,0,0,0,1.33.64.64,0,0,0,.28.06v-1.44A.82.82,0,0,0,349.33,348.43Z"/><path class="cls-5" d="M335.21,348.38a.72.72,0,1,0,.72.72A.72.72,0,0,0,335.21,348.38Z"/><path class="cls-5" d="M342.41,355.58a.72.72,0,1,0,.72.72A.72.72,0,0,0,342.41,355.58Z"/><path class="cls-5" d="M327.29,341.9a.72.72,0,1,0,.72-.72A.72.72,0,0,0,327.29,341.9Z"/><path class="cls-5" d="M342.41,341.18a.72.72,0,1,0,.72.72A.72.72,0,0,0,342.41,341.18Z"/><path class="cls-5" d="M348.89,334.7a.72.72,0,0,0,.44.66.64.64,0,0,0,.28.06v-.72Z"/><path class="cls-5" d="M334.49,334.7a.72.72,0,1,0,1.44,0Z"/><path class="cls-5" d="M349.18,363.5l.43.22v-.22Z"/><path class="cls-5" d="M320.81,218.78a.73.73,0,0,0-.67.44.82.82,0,0,0-.05.28h.72Z"/><path class="cls-5" d="M320.81,247.58a.73.73,0,0,0-.67.44.82.82,0,0,0-.05.28h.72Z"/><path class="cls-5" d="M306.41,247.58a.82.82,0,0,0-.31.07l.12.65h.91a.64.64,0,0,0-.06-.28A.71.71,0,0,0,306.41,247.58Z"/><path class="cls-5" d="M320.09,233.9a.72.72,0,0,0,.72.72v-1.44A.72.72,0,0,0,320.09,233.9Z"/><path class="cls-5" d="M306.41,233.18a.72.72,0,1,0,.72.72A.72.72,0,0,0,306.41,233.18Z"/><path class="cls-5" d="M313.61,241.82a.72.72,0,1,0-.72-.72A.72.72,0,0,0,313.61,241.82Z"/><path class="cls-5" d="M312.89,226.7a.72.72,0,1,0,.72-.72A.72.72,0,0,0,312.89,226.7Z"/><path class="cls-5" d="M320.81,220.22v-.72h-.72a.87.87,0,0,0,.05.28A.73.73,0,0,0,320.81,220.22Z"/><path class="cls-5" d="M306.41,220.22a.71.71,0,0,0,.66-.44s0-.06,0-.09l-.87.49A.58.58,0,0,0,306.41,220.22Z"/><path class="cls-5" d="M320.81,276.38a.72.72,0,0,0-.72.72h.72Z"/><path class="cls-5" d="M320.09,262.7a.72.72,0,0,0,.72.72V262A.72.72,0,0,0,320.09,262.7Z"/><path class="cls-5" d="M313.61,270.62a.72.72,0,1,0-.72-.72A.72.72,0,0,0,313.61,270.62Z"/><path class="cls-5" d="M313.61,256.22a.72.72,0,1,0-.72-.72A.72.72,0,0,0,313.61,256.22Z"/><path class="cls-5" d="M320.81,249v-.72h-.72A.72.72,0,0,0,320.81,249Z"/><path class="cls-5" d="M306.36,249h.05a.72.72,0,0,0,.72-.72h-.91Z"/><path class="cls-5" d="M320.81,305.18a.73.73,0,0,0-.67.44.82.82,0,0,0-.05.28h.72Z"/><path class="cls-5" d="M320.09,291.5a.72.72,0,0,0,.72.72v-1.44A.72.72,0,0,0,320.09,291.5Z"/><path class="cls-5" d="M313.61,283.58a.7.7,0,0,0-.68.51q.07.29.18.72a.69.69,0,0,0,.5.21.72.72,0,1,0,0-1.44Z"/><path class="cls-5" d="M320.81,277.82v-.72h-.72a.87.87,0,0,0,.05.28A.73.73,0,0,0,320.81,277.82Z"/><path class="cls-5" d="M320.09,305.9a.72.72,0,0,0,.72.72v-.72Z"/><path class="cls-6" d="M238.49,243.37s-.41,30.86,5.28,46.7,24.36,35.73,24.36,35.73,13-41,15-52,2-35.73,2-35.73Z"/><path class="cls-7" d="M244.3,253s-.3,23.17,4,35.07,18.29,26.83,18.29,26.83,9.76-30.8,11.29-39S279.37,249,279.37,249Z"/><path class="cls-7" d="M234.43,244.19s-.81,17.05.81,28.42,3.25,21.11,3.25,21.11L256,269.36l3.25-2.84L288,296.57l4.46-55.23Z"/><path class="cls-7" d="M226,160.84s-1.69,25.08-3.54,46.46c-1.53,17.71,15.93,48.73,22,55.36s18.24,8,33.47-2.92c25-17.87,32.11-40.46,32.11-40.46s10.09-4.79,11.75-16.41-2.9-16.22-6.77-18.44-6.63-12.16-6.63-12.16,0-22.13-4.43-22.13H263C259.13,150.14,226,160.84,226,160.84Z"/><path class="cls-8" d="M237,203.07a15.45,15.45,0,0,1-2.81,5.46c-2.33,3.1-5.94.51-7.23,5.42s1.26,7.6.77,9.82a17,17,0,0,1-1.55,4.13s-.87,3,.56,4.94,3.1,3.11,3.1,5.25,2.28,4,2.28,4-.77-2.84,2.33-5.68.77-7.23-1.29-11.36.57-5.56,4.64-8,3.62-3.62,2.85-7.49,4.64-6.2,4.64-6.2"/><path class="cls-8" d="M266.69,204.65s5.68,4.14,7.23,8.53-1,4.39-.25,9.81,7.07,4.53,9.29,9.82.52,10.58-.77,15a23,23,0,0,0-.52,9,104.31,104.31,0,0,0,8.31-6.32c3.58-3.1,9-7.37,9.51-13.83.17-2.06-1.8-3.36-.77-7.49s-6.46-6.2-11.11-6.2-4.14-2.64-4.9-7.49c-.92-5.82-6.71-9.75-4.5-6.68"/><path class="cls-9" d="M319.79,195.56s-.9-4.95-4.51-3.15-3.6,12.61-3.6,12.61,3.15-3.15,3.15,0a8.66,8.66,0,0,1-.9,4.5"/><path class="cls-6" d="M266.88,112s-16.6,1.66-31,7.19-38.71,35.4-32.63,37.06,14.93-3.87,14.93-3.87-14.37,16-10.5,18.25,18.8-1.11,18.8-1.11-14.38,6.64,1.66,10,37.61,3.31,49.22-1.11,17.15-6.64,17.15-6.64-6.09,8.85-1.66,10,9.4,2.21,9.4,2.21-3.87,14.38,1.11,14.38,6.63-8.85,11.06-9.95,5.53-6.09,13.27-23.23-2.76-28.21-11.06-35.4S297.29,123,297.29,123s-5-8.29-13.27-12.16-7.74,1.65-7.74,1.65Z"/><path class="cls-9" d="M253,194.82s.31,4.52-.38,6.78-13.53,17.6-13.33,20.05,9.46,4.54,15,4.83"/><path class="cls-5" d="M278.59,209a.46.46,0,0,1-.38-.22c-1.59-2.38-11.43-3.36-12-2.89a1.46,1.46,0,0,1-2.3-.63,2.52,2.52,0,0,1,.47-2.94c2.73-2.34,12.82,3,14.58,5.62a.8.8,0,0,1-.05.91A.46.46,0,0,1,278.59,209Z"/><path class="cls-5" d="M247.48,204.4a1.5,1.5,0,0,1-.95-.34c-3.84-3.11-9.56-1-9.57-1a.47.47,0,0,1-.63-.15.46.46,0,0,1,.16-.63c.08,0,6.46-5,11.95-.58a1.51,1.51,0,0,1-1,2.69Z"/><path class="cls-10" d="M269.53,188.6s8.82-1.31,13.13,12.9"/><path class="cls-10" d="M248.6,187.79s-11.49-1.61-17.59,7.28"/><path class="cls-6" d="M266.14,240.62s-5.35-4.54-16-4.54-11.11,9.08-7.57,12.62,5.55-1.52,11.61,0,10.61,8.08,15.66,3S266.14,240.62,266.14,240.62Z"/><path class="cls-7" d="M269.88,251.73a4.79,4.79,0,0,0,1.56-3.41c-11.09,1.92-24.82-.84-30.34-2.08a6.49,6.49,0,0,0,1.51,2.46c3.53,3.53,5.55-1.52,11.61,0S264.83,256.78,269.88,251.73Z"/><path class="cls-7" d="M264.69,239.64a28.2,28.2,0,0,0-14.51-3.56,11,11,0,0,0-6.83,1.94A114.15,114.15,0,0,0,264.69,239.64Z"/><path class="cls-7" d="M281.94,260s-12.19,21.12-11.78,28,14.62,29.64,21.11,40.6,32.49,50.76,49.13,58.07,30.46,4.06,36.14-9.75,6.9-21.11-2.43-30.45-24-12.18-42.23-26.39-37.76-33.71-37.76-33.71l18.67-22.73s10.16-6.91,11.37-10.56,1.22-15.84,1.22-15.84,2.44-8.93,1.63-12.58-3.25-16.65-5.69-17.46-2.44,1.62-2.44,4.46v11.78c0,1.62-3.65,14.21-3.65,14.21s-2-21.11-3.25-26-6.49-5.27-6.49-1.62v32.08s-4.06-9.75-5.28-14.62,0-12.18-1.63-12.18-5.28.81-4.87,8.52,1.22,15.43.81,17.06-2.84,8.53-2.84,8.53a34.59,34.59,0,0,1-6.09-8.94c-2.44-5.28-3.25-8.52-4.47-9.74s-3.65-1.22-2.84,5.28,6.9,17.86,6.9,17.86Z"/><path class="cls-7" d="M325.38,237.28s-2,9.34-5.68,15.84"/><path class="cls-4" d="M374.11,346.51c-9.34-9.34-24-12.18-42.23-26.39-6.36-4.95-12.86-10.53-18.64-15.71l-22.53,23.28.56.95c6.5,11,32.49,50.76,49.13,58.07s30.46,4.06,36.14-9.75S383.44,355.85,374.11,346.51Z"/><path class="cls-3" d="M324.55,314.55s-14.19,16.85-24.62,27.35"/><path class="cls-5" d="M378.41,362.78v.72h.72a.64.64,0,0,0-.06-.28A.71.71,0,0,0,378.41,362.78Z"/><path class="cls-5" d="M378.41,364.22a.72.72,0,0,0,.72-.72h-.72Z"/><path class="cls-5" d="M350.33,334.7a.72.72,0,0,0-.72-.72v.72Z"/><path class="cls-5" d="M378.41,362.78a.82.82,0,0,0-.28.05.73.73,0,0,0-.38.39.64.64,0,0,0-.06.28h.72Z"/><path class="cls-5" d="M364.67,363.22a.71.71,0,0,0-.66-.44.7.7,0,0,0-.66.44.64.64,0,0,0-.06.28h1.44A.64.64,0,0,0,364.67,363.22Z"/><path class="cls-5" d="M364,348.38a.72.72,0,1,0,.72.72A.72.72,0,0,0,364,348.38Z"/><path class="cls-5" d="M356.81,355.58a.72.72,0,1,0,.72.72A.72.72,0,0,0,356.81,355.58Z"/><path class="cls-5" d="M370.49,356.3a.72.72,0,1,0,.72-.72A.72.72,0,0,0,370.49,356.3Z"/><path class="cls-5" d="M356.81,341.18a.72.72,0,1,0,.72.72A.72.72,0,0,0,356.81,341.18Z"/><path class="cls-5" d="M350.33,363.5a.64.64,0,0,0-.06-.28.71.71,0,0,0-.66-.44v.72Z"/><path class="cls-5" d="M349.61,348.38v1.44a.72.72,0,1,0,0-1.44Z"/><path class="cls-5" d="M349.61,334.7v.72a.73.73,0,0,0,.72-.72Z"/><path class="cls-5" d="M364,377.18a.72.72,0,1,0,.72.72A.72.72,0,0,0,364,377.18Z"/><path class="cls-5" d="M356.81,384.38a.72.72,0,1,0,.72.72A.72.72,0,0,0,356.81,384.38Z"/><path class="cls-5" d="M371.21,384.38a.72.72,0,0,0-.72.72.75.75,0,0,0,.14.41c.35-.31.7-.63,1-1A.74.74,0,0,0,371.21,384.38Z"/><path class="cls-5" d="M356.81,370a.72.72,0,1,0,.72.72A.72.72,0,0,0,356.81,370Z"/><path class="cls-5" d="M371.21,370a.72.72,0,1,0,.72.72A.72.72,0,0,0,371.21,370Z"/><path class="cls-5" d="M350.33,377.9a.72.72,0,0,0-.72-.72v1.44A.73.73,0,0,0,350.33,377.9Z"/><path class="cls-5" d="M377.69,363.5a.72.72,0,0,0,.44.66.64.64,0,0,0,.28.06v-.72Z"/><path class="cls-5" d="M363.29,363.5a.72.72,0,1,0,1.44,0Z"/><path class="cls-5" d="M349.61,363.5v.72a.73.73,0,0,0,.72-.72Z"/><path class="cls-5" d="M349.61,334a.82.82,0,0,0-.28,0,.73.73,0,0,0-.44.67h.72Z"/><path class="cls-5" d="M335.21,334a.72.72,0,0,0-.72.72h1.44A.72.72,0,0,0,335.21,334Z"/><path class="cls-5" d="M328.73,327.5a.72.72,0,1,0-.72.72A.72.72,0,0,0,328.73,327.5Z"/><path class="cls-5" d="M342.41,328.22a.72.72,0,0,0,.63-.4l-1.2-.74a.69.69,0,0,0-.15.42A.72.72,0,0,0,342.41,328.22Z"/><path class="cls-5" d="M321.53,334.7a.72.72,0,0,0-.72-.72v.72Z"/><path class="cls-5" d="M321.32,319.79a.72.72,0,0,0-.51-.21V321a.72.72,0,0,0,.51-1.23Z"/><path class="cls-5" d="M349.61,362.78a.82.82,0,0,0-.28.05.73.73,0,0,0-.38.39.64.64,0,0,0-.06.28h.72Z"/><path class="cls-5" d="M335.87,363.22a.71.71,0,0,0-.66-.44.73.73,0,0,0-.67.44.82.82,0,0,0-.05.28h1.44A.64.64,0,0,0,335.87,363.22Z"/><path class="cls-5" d="M349.33,348.43a.72.72,0,0,0,0,1.33.64.64,0,0,0,.28.06v-1.44A.82.82,0,0,0,349.33,348.43Z"/><path class="cls-5" d="M335.21,348.38a.72.72,0,1,0,.72.72A.72.72,0,0,0,335.21,348.38Z"/><path class="cls-5" d="M328,355.58a.72.72,0,1,0,.72.72A.72.72,0,0,0,328,355.58Z"/><path class="cls-5" d="M342.41,355.58a.72.72,0,1,0,.72.72A.72.72,0,0,0,342.41,355.58Z"/><path class="cls-5" d="M328,341.18a.72.72,0,1,0,.72.72A.72.72,0,0,0,328,341.18Z"/><path class="cls-5" d="M342.41,341.18a.72.72,0,1,0,.72.72A.72.72,0,0,0,342.41,341.18Z"/><path class="cls-5" d="M321.32,363a.72.72,0,0,0-.51-.21v.72h.72a.64.64,0,0,0-.06-.28A.76.76,0,0,0,321.32,363Z"/><path class="cls-5" d="M321.32,348.59a.72.72,0,0,0-.51-.21v1.44a.72.72,0,0,0,.51-.21.74.74,0,0,0,.21-.51A.72.72,0,0,0,321.32,348.59Z"/><path class="cls-5" d="M348.89,334.7a.72.72,0,0,0,.44.66.64.64,0,0,0,.28.06v-.72Z"/><path class="cls-5" d="M334.49,334.7a.72.72,0,1,0,1.44,0Z"/><path class="cls-5" d="M320.81,334.7v.72a.72.72,0,0,0,.51-.21.75.75,0,0,0,.21-.51Z"/><path class="cls-5" d="M349.61,377.18a.82.82,0,0,0-.28.05.72.72,0,0,0,0,1.33.64.64,0,0,0,.28.06Z"/><path class="cls-5" d="M335.21,377.18a.72.72,0,1,0,.72.72A.72.72,0,0,0,335.21,377.18Z"/><path class="cls-5" d="M342.41,384.38a.72.72,0,1,0,.72.72A.72.72,0,0,0,342.41,384.38Z"/><path class="cls-5" d="M327.29,370.7A.72.72,0,1,0,328,370,.72.72,0,0,0,327.29,370.7Z"/><path class="cls-5" d="M342.41,370a.72.72,0,1,0,.72.72A.72.72,0,0,0,342.41,370Z"/><path class="cls-5" d="M348.89,363.5a.72.72,0,0,0,.44.66.64.64,0,0,0,.28.06v-.72Z"/><path class="cls-5" d="M334.49,363.5a.72.72,0,1,0,1.44,0Z"/><path class="cls-5" d="M320.81,363.5v.72a.72.72,0,0,0,.51-.21.75.75,0,0,0,.21-.51Z"/><path class="cls-5" d="M320.81,334a.72.72,0,0,0-.72.72h.72Z"/><path class="cls-5" d="M306.41,334a.72.72,0,0,0-.72.72h1.44A.72.72,0,0,0,306.41,334Z"/><path class="cls-5" d="M320.09,320.3a.72.72,0,0,0,.72.72v-1.44A.72.72,0,0,0,320.09,320.3Z"/><path class="cls-5" d="M306.41,319.58a.72.72,0,1,0,.72.72A.72.72,0,0,0,306.41,319.58Z"/><path class="cls-5" d="M299.21,326.78a.72.72,0,1,0,.72.72A.72.72,0,0,0,299.21,326.78Z"/><path class="cls-5" d="M313.61,328.22a.72.72,0,1,0-.72-.72A.72.72,0,0,0,313.61,328.22Z"/><path class="cls-5" d="M312.89,313.1a.72.72,0,1,0,.72-.72A.72.72,0,0,0,312.89,313.1Z"/><path class="cls-5" d="M320.81,362.78a.73.73,0,0,0-.67.44.82.82,0,0,0-.05.28h.72Z"/><path class="cls-5" d="M320.09,349.1a.72.72,0,0,0,.72.72v-1.44A.72.72,0,0,0,320.09,349.1Z"/><path class="cls-5" d="M307.13,349.1a.72.72,0,1,0-.72.72A.72.72,0,0,0,307.13,349.1Z"/><path class="cls-5" d="M314.33,356.3a.72.72,0,1,0-.72.72A.72.72,0,0,0,314.33,356.3Z"/><path class="cls-5" d="M299.27,341.19l.62.91a.65.65,0,0,0,0-.2A.71.71,0,0,0,299.27,341.19Z"/><path class="cls-5" d="M313.61,341.18a.72.72,0,1,0,.72.72A.72.72,0,0,0,313.61,341.18Z"/><path class="cls-5" d="M320.81,335.42v-.72h-.72A.72.72,0,0,0,320.81,335.42Z"/><path class="cls-5" d="M306.41,335.42a.72.72,0,0,0,.72-.72h-1.44A.72.72,0,0,0,306.41,335.42Z"/><path class="cls-5" d="M320.09,363.5a.72.72,0,0,0,.72.72v-.72Z"/><path class="cls-7" d="M201.54,235.66s-16.65-39.39-16.65-42.23,9.34-24,11-26,25.58-6.09,26.79-6.09.82,2.84.82,2.84,9.34-2.44,9.34,0a2.72,2.72,0,0,1-2,2.84s5.27,2,4.06,5.28-19.49,17.46-19.49,17.46,6.09,26.39,8.12,34.51S224.28,238.5,221,245s-36.54,50.75-41,57.66-18.68,23.55-32.48,28.42-21.93,2.84-25.58-9.34-5.28-23.55,3.65-31.27,32.08-15,51.57-31.26S201.54,235.66,201.54,235.66Z"/><path class="cls-4" d="M176.79,259.53c-19.41,16-42.3,23.28-51.18,30.94s-7.31,19.09-3.65,31.27,11.77,14.21,25.58,9.34,28-21.52,32.48-28.42c1.83-2.83,8.49-11.92,15.94-22.11Z"/><path class="cls-3" d="M164.84,268.92s8.79,15.92,20.87,24.71"/><path class="cls-5" d="M191.21,276.38a.72.72,0,0,0-.72.72h1.44A.72.72,0,0,0,191.21,276.38Z"/><path class="cls-5" d="M184.73,269.9a.72.72,0,1,0-.72.72A.72.72,0,0,0,184.73,269.9Z"/><path class="cls-5" d="M176.81,276.38v.72h.72A.72.72,0,0,0,176.81,276.38Z"/><path class="cls-5" d="M177.53,262.7a.72.72,0,0,0-.72-.72v1.44A.73.73,0,0,0,177.53,262.7Z"/><path class="cls-5" d="M183.29,284.3a.72.72,0,1,0,.72-.72A.72.72,0,0,0,183.29,284.3Z"/><path class="cls-5" d="M176.81,305.18v.72h.72a.64.64,0,0,0-.06-.28A.72.72,0,0,0,176.81,305.18Z"/><path class="cls-5" d="M177.53,291.5a.72.72,0,0,0-.72-.72v1.44A.73.73,0,0,0,177.53,291.5Z"/><path class="cls-5" d="M191.21,277.82a.72.72,0,0,0,.66-.44.67.67,0,0,0,.06-.28h-1.44a.87.87,0,0,0,0,.28A.73.73,0,0,0,191.21,277.82Z"/><path class="cls-5" d="M176.81,277.82a.72.72,0,0,0,.66-.44.67.67,0,0,0,.06-.28h-.72Z"/><path class="cls-5" d="M176.81,306.62a.73.73,0,0,0,.72-.72h-.72Z"/><path class="cls-5" d="M176.81,276.38a.82.82,0,0,0-.28.05.73.73,0,0,0-.44.67h.72Z"/><path class="cls-5" d="M162.41,276.38a.72.72,0,0,0-.72.72h1.44A.72.72,0,0,0,162.41,276.38Z"/><path class="cls-5" d="M176.53,263.36a.64.64,0,0,0,.28.06V262a.82.82,0,0,0-.28,0,.72.72,0,0,0,0,1.33Z"/><path class="cls-5" d="M170.33,269.9a.72.72,0,1,0-.72.72A.72.72,0,0,0,170.33,269.9Z"/><path class="cls-5" d="M176.81,305.18a.82.82,0,0,0-.28.05.74.74,0,0,0-.39.39.82.82,0,0,0,0,.28h.72Z"/><path class="cls-5" d="M163.07,305.62a.72.72,0,0,0-1.33,0,.82.82,0,0,0-.05.28h1.44A.64.64,0,0,0,163.07,305.62Z"/><path class="cls-5" d="M176.53,292.16a.64.64,0,0,0,.28.06v-1.44a.82.82,0,0,0-.28.05.72.72,0,0,0,0,1.33Z"/><path class="cls-5" d="M162.41,290.78a.72.72,0,0,0,0,1.44.72.72,0,1,0,0-1.44Z"/><path class="cls-5" d="M155.21,299.42a.72.72,0,0,0,0-1.44.72.72,0,0,0,0,1.44Z"/><path class="cls-5" d="M169.61,298a.72.72,0,1,0,0,1.44.72.72,0,0,0,0-1.44Z"/><path class="cls-5" d="M154.49,284.3a.72.72,0,1,0,.72-.72A.72.72,0,0,0,154.49,284.3Z"/><path class="cls-5" d="M169.61,283.58a.72.72,0,0,0,0,1.44.72.72,0,1,0,0-1.44Z"/><path class="cls-5" d="M148.73,305.9a.64.64,0,0,0-.06-.28.76.76,0,0,0-.15-.23.75.75,0,0,0-.51-.21v.72Z"/><path class="cls-5" d="M148.52,291a.75.75,0,0,0-.51-.21v1.44a.75.75,0,0,0,.51-.21.72.72,0,0,0,0-1Z"/><path class="cls-5" d="M176.09,277.1a.87.87,0,0,0,0,.28.73.73,0,0,0,.39.38.64.64,0,0,0,.28.06v-.72Z"/><path class="cls-5" d="M162.41,277.82a.72.72,0,0,0,.66-.44.67.67,0,0,0,.06-.28h-1.44a.87.87,0,0,0,.05.28A.73.73,0,0,0,162.41,277.82Z"/><path class="cls-5" d="M148,277.82a.75.75,0,0,0,.51-.21,1.37,1.37,0,0,0,.13-.2l-.64.33Z"/><path class="cls-5" d="M162.41,319.58a.72.72,0,1,0,0,1.44.72.72,0,1,0,0-1.44Z"/><path class="cls-5" d="M154.49,327.5a.58.58,0,0,0,0,.19c.39-.23.77-.47,1.16-.72a.71.71,0,0,0-.48-.19A.72.72,0,0,0,154.49,327.5Z"/><path class="cls-5" d="M154.49,313.1a.72.72,0,1,0,.72-.72A.72.72,0,0,0,154.49,313.1Z"/><path class="cls-5" d="M168.89,313.1a.72.72,0,1,0,.72-.72A.72.72,0,0,0,168.89,313.1Z"/><path class="cls-5" d="M148,319.58V321a.75.75,0,0,0,.51-.21.72.72,0,0,0,0-1A.75.75,0,0,0,148,319.58Z"/><path class="cls-5" d="M176.09,305.9a.72.72,0,0,0,.44.66.64.64,0,0,0,.28.06v-.72Z"/><path class="cls-5" d="M161.69,305.9a.72.72,0,1,0,1.44,0Z"/><path class="cls-5" d="M148,305.9v.72a.75.75,0,0,0,.51-.21.72.72,0,0,0,.21-.51Z"/><path class="cls-5" d="M148,305.18a.73.73,0,0,0-.67.44.82.82,0,0,0-.05.28H148Z"/><path class="cls-5" d="M134.27,305.62a.72.72,0,0,0-1.33,0,.82.82,0,0,0-.05.28h1.44A.64.64,0,0,0,134.27,305.62Z"/><path class="cls-5" d="M147.29,291.5a.72.72,0,0,0,.72.72v-1.44A.72.72,0,0,0,147.29,291.5Z"/><path class="cls-5" d="M133.61,290.78a.72.72,0,0,0,0,1.44.72.72,0,1,0,0-1.44Z"/><path class="cls-5" d="M125.69,298.7a.72.72,0,1,0,.72-.72A.72.72,0,0,0,125.69,298.7Z"/><path class="cls-5" d="M140.81,298a.72.72,0,0,0,0,1.44.72.72,0,0,0,0-1.44Z"/><path class="cls-5" d="M140.81,283.58a.72.72,0,1,0,0,1.44.72.72,0,1,0,0-1.44Z"/><path class="cls-5" d="M119.21,305.18v.72h.72a.64.64,0,0,0-.06-.28A.72.72,0,0,0,119.21,305.18Z"/><path class="cls-5" d="M147.9,277.8l.11,0v-.08Z"/><path class="cls-5" d="M147.29,320.3a.72.72,0,0,0,.72.72v-1.44A.72.72,0,0,0,147.29,320.3Z"/><path class="cls-5" d="M133.61,319.58a.72.72,0,0,0,0,1.44.72.72,0,1,0,0-1.44Z"/><path class="cls-5" d="M127.13,327.5a.72.72,0,1,0-.72.72A.72.72,0,0,0,127.13,327.5Z"/><path class="cls-5" d="M140.81,326.78a.72.72,0,0,0,0,1.44.72.72,0,1,0,0-1.44Z"/><path class="cls-5" d="M126.41,312.38a.72.72,0,1,0,0,1.44.72.72,0,1,0,0-1.44Z"/><path class="cls-5" d="M140.81,312.38a.72.72,0,1,0,0,1.44.72.72,0,1,0,0-1.44Z"/><path class="cls-5" d="M147.29,305.9a.72.72,0,0,0,.72.72v-.72Z"/><path class="cls-5" d="M132.89,305.9a.72.72,0,1,0,1.44,0Z"/><path class="cls-5" d="M119.21,306.62a.73.73,0,0,0,.72-.72h-.72Z"/><path class="cls-5" d="M119.21,305.18a1,1,0,0,0-.17,0v.69h.17Z"/><path class="cls-5" d="M119,305.9c0,.23,0,.45,0,.68a.42.42,0,0,0,.16,0v-.72Z"/><path class="cls-9" d="M223.47,164.2s-20.71,6.09-24.37,8.52-5.68,9.34-5.68,9.34"/><path class="cls-9" d="M230.78,167s-20.31,10.56-23.15,12.59-6.5,7.31-6.5,8.93"/></svg>