<svg xmlns="http://www.w3.org/2000/svg" xmlns:xlink="http://www.w3.org/1999/xlink" viewBox="0 0 439.62 284.65"><defs><style>.cls-1{isolation:isolate;}.cls-10,.cls-2,.cls-6,.cls-8,.cls-9{mix-blend-mode:multiply;}.cls-2{opacity:0.8;fill:url(#radial-gradient);}.cls-3{fill:#fff;}.cls-4{fill:url(#Áåçûìÿííûé_ãðàäèåíò_152);}.cls-5{fill:url(#Áåçûìÿííûé_ãðàäèåíò_151);}.cls-6,.cls-8,.cls-9{fill:#d87290;}.cls-6{opacity:0.31;}.cls-7{fill:#f5af8f;}.cls-12,.cls-13,.cls-16,.cls-17,.cls-7{mix-blend-mode:soft-light;opacity:0.97;}.cls-8{opacity:0.5;}.cls-9{opacity:0.3;}.cls-10{fill:#f3bac0;opacity:0.6;}.cls-11{fill:#e86c7c;}.cls-12{fill:#f5d3d2;}.cls-13{fill:#f5ee8f;}.cls-14{mix-blend-mode:screen;fill:url(#Áåçûìÿííûé_ãðàäèåíò_54);}.cls-15{fill:#ab3d52;}.cls-16{fill:#f5ffff;}.cls-17{fill:#f5a995;}</style><radialGradient id="radial-gradient" cx="-3067.7" cy="-769.45" r="912.14" gradientTransform="matrix(0.99, -0.13, 0.13, 0.99, 3697.5, 432.52)" gradientUnits="userSpaceOnUse"><stop offset="0.01" stop-color="#e7e5f0"/><stop offset="0.17" stop-color="#e3e0ec"/><stop offset="0.37" stop-color="#d7d1e2"/><stop offset="0.59" stop-color="#c3b8d0"/><stop offset="0.82" stop-color="#a896b7"/><stop offset="1" stop-color="#8e75a0"/></radialGradient><linearGradient id="Áåçûìÿííûé_ãðàäèåíò_152" x1="-1265.06" y1="2044.54" x2="-1265.06" y2="1893.44" gradientTransform="matrix(0.13, 0.99, -0.99, 0.13, 2478.07, 1150.3)" gradientUnits="userSpaceOnUse"><stop offset="0" stop-color="#ff8777"/><stop offset="0.98" stop-color="#ffb880"/></linearGradient><linearGradient id="Áåçûìÿííûé_ãðàäèåíò_151" x1="-1294.99" y1="2320.1" x2="-1294.99" y2="1915.03" gradientTransform="matrix(0.13, 0.99, -0.99, 0.13, 2478.07, 1150.3)" gradientUnits="userSpaceOnUse"><stop offset="0.02" stop-color="#ffb880"/><stop offset="1" stop-color="#ff8777"/></linearGradient><linearGradient id="Áåçûìÿííûé_ãðàäèåíò_54" x1="-1401.09" y1="2058.42" x2="-1216.36" y2="2058.42" gradientTransform="matrix(0.13, 0.99, -0.99, 0.13, 2478.07, 1150.3)" gradientUnits="userSpaceOnUse"><stop offset="0" stop-color="#ec4400"/><stop offset="0.11" stop-color="#db3f00"/><stop offset="0.31" stop-color="#b03300"/><stop offset="0.6" stop-color="#6b1f00"/><stop offset="0.96" stop-color="#0c0300"/><stop offset="1"/></linearGradient></defs><g class="cls-1"><g id="Layer_1" data-name="Layer 1"><path class="cls-2" d="M4.64,149.46c39.38-.28,120.62,5.19,131.8-7,14.55-15.85,47.28-99.6,61.74-102.26s43.7-7.71,65.57-13.22,46.15-14.91,57.57-6.87,26.91,43,30.51,47.48S402.91,71,407.38,95.18s-13.38,40-13.75,44.12,5.51,12.76,3.51,26.23-14.08,20.6-15.42,32.35c-3.82,33.79-23,36.79-28.94,42.22s-7.41,25.38-19.42,32.56-27.19,13.71-49.55,10.43-80.63-2.58-90.85-7.39-28.33-17.93-38.41-19.33c-9.3-1.29-124.44,20.15-149.91,20.83Z"/><path class="cls-3" d="M4.64,217.63c5.21,22.55,14.18,33.1,14.83,33.84l6.45,2.77c24.93-.87,71.65-7.11,109.19-12.14,20.51-2.74,41.7-5.57,46.26-5.63,2.19.8,7.72,4.9,11.43,7.64,6,4.42,12.71,9.42,19.18,12.38a25.91,25.91,0,0,0,5.15,1.69c18.78,4.51,77.78,6.37,85.6,6.59l.32.06a124.47,124.47,0,0,0,22.35,2.67c1.85.07,3.58.08,5.3.05h.36l1.59,0c1,0,1.93-.07,2.9-.13h.19c.8-.05,1.61-.11,2.34-.18l.4,0c.79-.07,1.62-.15,2.54-.27,1.36-.15,2.76-.34,4.15-.56v-.28l0,.13a49.19,49.19,0,0,0,6.33-1.71c.72-.26,1.47-.56,2.26-.92,3.37-1.35,17.42-8.45,24.48-35.67a39.21,39.21,0,0,0,10.93-2.33l1.63-.91.3-.22c2.63-1.46,8.08-5.43,12.64-15,5.83-11.06,7.17-23.36,7.41-30.49a25.71,25.71,0,0,0,2.74-2c2.55-2,12.68-10.94,12.81-28.88a34.74,34.74,0,0,0-1.18-11.31,52.12,52.12,0,0,0-5-11.83,22.33,22.33,0,0,0,3.7-3.81c8.21-10.89,11.8-35.35,6.74-45.91-5-10.39-28.06-23.39-42.59-24-1.59-.06-3.89,0-6.95.09C378.5,44.85,375.61,38.08,373,32c-5.32-12.46-7.34-17-9.11-19.33a23,23,0,0,0-2.52-2.74C358.51,6.33,354,3.57,348,1.68A23.81,23.81,0,0,0,340.18,0c-3.67-.07-8.54,1.45-17.56,4.35-7.58,2.44-17,5.47-24.79,6.74-6.31,1-16.88,2-25.39,2.72l-5.18.44c-15.85,1.33-25.78,2.2-30,3.31-10.76,2.82-26.64,19.22-33.66,40.86-12.48,27.68-33.8,68.75-43.29,76C150,137.3,77.64,139.1,12.41,139.17l-7.77,6.55ZM203.77,58a8.26,8.26,0,0,1,.93-1.63l-.48,1.83Zm-.3.74-.3,3.42,0,.08A8.1,8.1,0,0,1,203.47,58.77Z"/><path class="cls-4" d="M314.9,64.88s61.37-5.95,73.17-5.47,32.1,12.17,35.53,19.33.83,28.5-5.9,37.43c-3.22,4.28-9.46,6.21-9.46,6.21s6,4.75,9.43,16.64-3.16,31.72-14.7,34.7c0,0,2,30.61-16.93,44.26,0,0-5.07,2.12-14.36,1.92,0,0-5.75,30.83-22.86,36.83s-45.1-.14-45.1-.14-19.16-32.43-18-100.93S314.9,64.88,314.9,64.88Z"/><path class="cls-5" d="M163.83,141.83a.55.55,0,0,0,.18-.09c12.91-5.84,40.67-59.95,47.23-80.35,0,0,0,0,0-.07a.06.06,0,0,0,0-.06c6.53-20.43,20.89-33.89,28-35.76,4.28-1.13,19.18-2.28,33.82-3.52,9.92-.84,19.74-1.76,26-2.8C314.73,16.64,334.67,8.1,340,8.2s14.33,5.48,17.33,9.41c2.45,3.19,10.8,24.92,19,42.15,1.83,3.93,3.66,7.59,5.42,10.78,9.52,17.27,24.13,35.85,24.82,39.28.22,1.14-.88,3.18-2.84,5.36,0,0-.08.11-.13.18a35.76,35.76,0,0,1-8,6.65,1.12,1.12,0,0,1-.13,0,21.49,21.49,0,0,1-9.24,3.26H385c-11-.52-41-16.42-50.91-48l.66-14.3v-.62s-17,.42-19.84,2.46a.36.36,0,0,0-.15.15c-2.87,3.64-8,51.82-29.06,90.62,0,0,4.48,63.45,13.52,91a.48.48,0,0,0,.06.22,50.62,50.62,0,0,0,2.38,6.1c.1.22.22.4.31.61a15.12,15.12,0,0,0,1.65,2.78,1.3,1.3,0,0,0,.12.21s-65.59-1.81-84.68-6.39a18.59,18.59,0,0,1-3.61-1.15c-11.84-5.42-26.09-19.55-32.83-20.73s-115.16,16.26-157,17.72c0,0-25.26-28.72-13.21-98.68C12.42,147.37,151,147.23,163.83,141.83Z"/><path class="cls-6" d="M343.88,258.23c-1.28.21-2.59.38-3.84.52-.84.11-1.61.18-2.41.26-1.68.15-3.36.25-5,.3l-1.72,0c-1.82,0-3.55,0-5.26-.05a116.35,116.35,0,0,1-21.07-2.52,8,8,0,0,1-.87-.18,1.3,1.3,0,0,1-.12-.21,28.75,28.75,0,0,1-1.65-2.78c-.09-.21-.21-.39-.31-.61-13-24.95-21.09-87.92-21.09-87.92l-15.38,16.6s12.55-27,23.05-56.48a320.85,320.85,0,0,0,11.56-38.73c2.49-11.61,3.34-21.57,1.39-27.89-8.45-27.33-28-36.6-28-36.6,9.92-.84,19.74-1.76,26-2.8C314.73,16.64,334.67,8.1,340,8.2c-7,7.33-.85,52.77,1.74,58.23C353.86,92,391.49,115.78,398,115.1c6.11-.62,8.3-4.72,8.55-5.25a18.41,18.41,0,0,1-2.81,5.33s-.08.11-.13.18a24.81,24.81,0,0,1-8,6.65,1.12,1.12,0,0,1-.13,0,32.79,32.79,0,0,1-9.24,3.26H385l-2.53.08c-12.3.37-50.75,1.91-55.05,7.79-5.09,7-1.13,45.85,5.28,47.47S403,173.73,403,173.73c-19.07,4.86-70.3,10.48-73.1,11.48s-3.49,30.42,2,32.92c5.08,2.38,35.64,1.84,39.45,1.79-18.66,1.58-47.36,2.17-47.36,2.17-3.29,5.36-.69,26.52,1.57,28.79,2.07,2.11,15.87,6.55,18.08,7.26Z"/><path class="cls-7" d="M381.75,70.54a5,5,0,0,0-4.26.57c-1.87,1.39.86,23.51,7.91,32.91s20.15,3.58,20.15,3.58Z"/><path class="cls-8" d="M335.66,43.88l-.93,19.17-4.6.42S331.52,59.05,335.66,43.88Z"/><path class="cls-9" d="M306.64,250.83l-2.91,5.77s-20.41-47.75-23.17-91.52c0,0,23.48-82.7,34.34-100.19l19.84-2.46s-.63,12-.67,14.92,3.37,10.33,3.37,10.33-10.41,6.25-11.56,13c-.48,2.77,0,6.82.76,10.75,1.14,5.65,3.05,11.1,4.18,12.25,1.9,2,23.39,1.63,23.39,1.63s-44.44,4.29-48.25,6.46-14.54,40.64-3.48,46.36c0,0-3.36,22.87.54,29.56S314.57,216,314.57,216s-11.4,2.53-12.26,11.71,3.08,16.67,7,19.67a15,15,0,0,0,1.39.89c5.23,3,18.26,7.85,20,8.49l-16.89-4.19Z"/><path class="cls-9" d="M12.42,147.37s138.54-.14,151.41-5.54,40.88-60,47.43-80.51c-.43,2.87-14.22,94.38-20.57,101.29S61.44,178.25,12.42,147.37Z"/><path class="cls-10" d="M163.83,141.83a.55.55,0,0,0,.18-.09l.29-.16c2.9-1.66,19-13.34,46.94-80.19-.43,2.44-14.67,81.33-16,121.6-1.3,40.95,23.8,67.22,23.8,67.22a18.59,18.59,0,0,1-3.61-1.15c-11.84-5.42-26.09-19.55-32.83-20.73s-115.16,16.26-157,17.72c0,0-25.26-28.72-13.21-98.68C12.42,147.37,151,147.23,163.83,141.83Z"/><path class="cls-11" d="M381.75,70.54s-4.82.18-4.15,11.27a45.42,45.42,0,0,0,8.8,23.39s-10.09-9.66-10.06-29S381.75,70.54,381.75,70.54Z"/><path class="cls-12" d="M402.62,103s-5.08,4.93-16.22,2.17c0,0,5.29,8,19.15,2.4Z"/><path class="cls-12" d="M385.48,76.34a7.8,7.8,0,0,1-7.17-2.18s1.17-3.2,3.44-3.62Z"/><path class="cls-8" d="M343.88,258.23c-1.28.21-2.59.38-3.84.52-.84.11-1.61.18-2.41.26-1.68.15-3.36.25-5,.3l-1.72,0c-1.82,0-3.55,0-5.26-.05a116.35,116.35,0,0,1-21.07-2.52,8,8,0,0,1-.87-.18,1.3,1.3,0,0,1-.12-.21,28.75,28.75,0,0,1-1.65-2.78c-.09-.21-.21-.39-.31-.61-13-24.95-21.09-87.92-21.09-87.92L314.9,64.89l19.84-2.46s-1,12,0,17.57,12.5,31.77,47.73,45.4c-12.3.37-50.75,1.91-55.05,7.79-5.09,7-1.13,45.85,5.28,47.47S403,173.73,403,173.73c-19.07,4.86-70.3,10.48-73.1,11.48s-3.49,30.42,2,32.92c5.08,2.38,35.64,1.84,39.45,1.79-18.66,1.58-47.36,2.17-47.36,2.17-3.29,5.36-.69,26.52,1.57,28.79,2.07,2.11,15.87,6.55,18.08,7.26Z"/><polygon class="cls-8" points="382.83 72.22 402.77 67.72 388.78 67.75 387.28 62.6 377.24 61.68 382.83 72.22"/><path class="cls-8" d="M298.71,173.79s20.25,5.77,34,6.87,39.47-1.42,39.47-1.42-35.41,5.51-42.28,6-27.39-7.09-27.39-7.09A48.53,48.53,0,0,1,298.71,173.79Z"/><path class="cls-8" d="M314.55,216s10.25,1.95,20,2.81,37.14,1.06,37.14,1.06-41,1.8-46.26,1.16S314.55,216,314.55,216Z"/><path class="cls-8" d="M337.45,87.69s13.17,26.72,45,37.71c0,0-38-8.69-52.48-31.76Z"/><path class="cls-8" d="M382.45,125.4S394.58,122,396.74,115c0,0,5,.66,9.8-5.15C406.54,109.85,401.84,124.48,382.45,125.4Z"/><path class="cls-7" d="M355.29,15.45S353,24.91,345.05,26.16s-5-18-5-18S351.3,9.79,355.29,15.45Z"/><path class="cls-13" d="M423.6,78.74s-5.25,11.56-7.29,22.46,1.39,15,1.39,15S428.7,98.43,423.6,78.74Z"/><path class="cls-13" d="M403,175.56s-5.79,6.85-11.19,19.93-5.09,22-5.09,22S400.8,211.88,403,175.56Z"/><path class="cls-13" d="M417.67,139s-4.05,10.89-6.72,19.74-2.2,11.79-2.2,11.79S422,161.45,417.67,139Z"/><path class="cls-13" d="M371.68,219.9s-3.21,8.51-8.87,19.87C359.1,247.23,350.62,256,350.62,256S365.6,251,371.68,219.9Z"/><path class="cls-14" d="M285.5,31.57s-25-4-44.94,17.74S226.4,214.65,232.91,223s68.56-108.1,68.69-147S285.5,31.57,285.5,31.57Z"/><path class="cls-8" d="M164.3,141.58a30.9,30.9,0,0,0,26.39,21L211.24,61.39S179.72,131.41,164.3,141.58Z"/><path class="cls-15" d="M314.9,64.89s11.85,8.48,14.56,12.65,4.09,13.25,4.09,13.25l3.9-3.1s-3.07-6.47-3.38-10.34.67-14.92.67-14.92S317.92,63,314.9,64.89Z"/><path class="cls-15" d="M309.28,247.42s-8.71-2.06-12.35-32.38.65-73.36,3.88-79.86c2.7-5.44,19.47-18.41,25.83-23.76,1.14,5.65,3.05,11.1,4.18,12.25,1.9,2,23.39,1.63,23.39,1.63s-44.44,4.29-48.25,6.46-14.54,40.64-3.48,46.36c0,0-3.36,22.87.54,29.56S314.57,216,314.57,216s-11.4,2.53-12.26,11.71S305.39,244.42,309.28,247.42Z"/><path class="cls-15" d="M330.71,256.8l-16.89-4.19-3.15-4.3C315.9,251.29,328.93,256.16,330.71,256.8Z"/><path class="cls-16" d="M228.18,249s39.39,5.1,71,6.46C299.14,255.44,263.71,244.52,228.18,249Z"/><path class="cls-16" d="M30.5,234.7s82.61-2.51,127.29-7.16c0,0-85.2,15.53-126.31,14.44Z"/><path class="cls-16" d="M237,31.31s-17.4,7.63-22.19,27.21S204.12,124,204.12,124,213.4,52.43,237,31.31Z"/><path class="cls-16" d="M379.84,214.7s-27.95,3.53-44.66,1.65C335.18,216.35,352.73,222.85,379.84,214.7Z"/><path class="cls-16" d="M350.94,250.28s-14.95,2.81-25.06-1.19C325.88,249.09,338.71,258.11,350.94,250.28Z"/><path class="cls-16" d="M402.18,167.8s-33.81,9.21-64.62,8.66C337.56,176.46,372.69,182.82,402.18,167.8Z"/><path class="cls-16" d="M355.84,19.62S366,34,369.8,50.94A57.12,57.12,0,0,1,355.84,19.62Z"/><path class="cls-16" d="M332.79,12.05s-10.72,8.07-23.51,10.87-41.2,1.65-41.2,1.65S315.75,19.72,332.79,12.05Z"/><path class="cls-16" d="M16,149.47s94.63,11.81,140.92.81C156.92,150.28,101.44,148,16,149.47Z"/><path class="cls-17" d="M314.11,132.8c-5.21,1.85-16.31,20.07-10.84,31.83,0,0,4.37-16,6.36-23.08S314.11,132.8,314.11,132.8Z"/><path class="cls-17" d="M305.07,183.26s-4.58,26.22,9.18,30.54C314.25,213.8,303.69,197.18,305.07,183.26Z"/><path class="cls-17" d="M304.05,235.91s7.76,8.79,8.55,12.14C312.6,248.05,305.19,245.32,304.05,235.91Z"/><path class="cls-9" d="M326.42,135.27s-5.41,10.23-4,25.62,10.22,19.77,10.22,19.77A71.15,71.15,0,0,1,326.42,135.27Z"/><path class="cls-9" d="M328.64,187.93a21.82,21.82,0,0,0-6.24,14c-.65,9,8.19,15,8.19,15A48.66,48.66,0,0,1,328.64,187.93Z"/><path class="cls-9" d="M322.48,223.67a19.19,19.19,0,0,0-4.09,11.71c.12,6.77,6.26,13.88,6.26,13.88S320.8,241.44,322.48,223.67Z"/></g></g></svg>