<svg xmlns="http://www.w3.org/2000/svg" xmlns:xlink="http://www.w3.org/1999/xlink" viewBox="0 0 441.51 271.62"><defs><style>.cls-1{isolation:isolate;}.cls-12,.cls-16,.cls-2,.cls-5,.cls-6{mix-blend-mode:multiply;}.cls-2{opacity:0.8;fill:url(#radial-gradient);}.cls-3{fill:#fff;}.cls-4{fill:url(#Áåçûìÿííûé_ãðàäèåíò_152);}.cls-16,.cls-5,.cls-6{fill:#d87290;}.cls-5{opacity:0.5;}.cls-6{opacity:0.31;}.cls-7{fill:url(#Áåçûìÿííûé_ãðàäèåíò_151);}.cls-8{fill:#f5af8f;}.cls-10,.cls-15,.cls-17,.cls-18,.cls-8{mix-blend-mode:soft-light;opacity:0.97;}.cls-9{fill:#e86c7c;}.cls-10{fill:#f5d3d2;}.cls-11{fill:#ab3d52;}.cls-12{fill:#f3bac0;opacity:0.6;}.cls-13{mix-blend-mode:screen;fill:url(#Áåçûìÿííûé_ãðàäèåíò_59);}.cls-14{fill:#b24d61;}.cls-15{fill:#f5ee8f;}.cls-16{opacity:0.3;}.cls-17{fill:#f5a995;}.cls-18{fill:#f5ffff;}</style><radialGradient id="radial-gradient" cx="932" cy="371.15" r="684.85" gradientTransform="matrix(-0.97, 0.25, 0.25, 0.97, 1183.46, -505.71)" gradientUnits="userSpaceOnUse"><stop offset="0.01" stop-color="#e7e5f0"/><stop offset="0.17" stop-color="#e3e0ec"/><stop offset="0.37" stop-color="#d7d1e2"/><stop offset="0.59" stop-color="#c3b8d0"/><stop offset="0.82" stop-color="#a896b7"/><stop offset="1" stop-color="#8e75a0"/></radialGradient><linearGradient id="Áåçûìÿííûé_ãðàäèåíò_152" x1="-1917.34" y1="896.86" x2="-1917.34" y2="616.38" gradientTransform="matrix(-0.25, -0.97, -0.97, 0.25, 535.62, -1917.71)" gradientUnits="userSpaceOnUse"><stop offset="0" stop-color="#ff8777"/><stop offset="0.98" stop-color="#ffb880"/></linearGradient><linearGradient id="Áåçûìÿííûé_ãðàäèåíò_151" x1="-1915.06" y1="1054.07" x2="-1915.06" y2="781.51" gradientTransform="matrix(-0.25, -0.97, -0.97, 0.25, 535.62, -1917.71)" gradientUnits="userSpaceOnUse"><stop offset="0.02" stop-color="#ffb880"/><stop offset="1" stop-color="#ff8777"/></linearGradient><linearGradient id="Áåçûìÿííûé_ãðàäèåíò_59" x1="-1951" y1="876.9" x2="-1838.74" y2="876.9" gradientTransform="matrix(-0.25, -0.97, -0.97, 0.25, 535.62, -1917.71)" gradientUnits="userSpaceOnUse"><stop offset="0"/><stop offset="0.04" stop-color="#0c0300"/><stop offset="0.4" stop-color="#6b1f00"/><stop offset="0.69" stop-color="#b03300"/><stop offset="0.89" stop-color="#db3f00"/><stop offset="1" stop-color="#ec4400"/></linearGradient></defs><g class="cls-1"><g id="Layer_1" data-name="Layer 1"><path class="cls-2" d="M4.64,174.3c28.24-3,71.74-4.91,83.13-11.31,16.26-9.14,19.59-46.59,26.63-59.08s18.69-24.27,25.88-25.82,60.46,10.15,85.72,0,100.87-63,126.92-60.95S386.43,37.82,381.17,47,311,81.34,303.77,86.42s-53.22,27.24-56.21,28.93-3.16,9.6.73,11.37,52-4.8,67.88-9S402.24,95.34,412,102.84s19.13,30.09,6.25,38.85-85.51,19.34-90.65,20-48.76,3.32-49.45,4.44,3.38,3.57,6.77,9,4.67,23.59-.54,31.82-21.58,12.24-20.66,15.95c4.22,16.9-8.67,36.77-15.85,38.4s-29.83-3.95-49.84-2.17-50.36,3.68-67.73-.58-18-18.88-24.82-22.47c-6-3.18-80.23,28.32-100.88,33.73Z"/><path class="cls-3" d="M4.64,164.6c5.12-.64,12.75-1.61,21.54-2.8l.38-.05c12.67-1.72,24.18-3.42,34.22-5.06l.35-.09.31,0,.28,0c9.71-1.6,17.91-3.12,24.41-4.53l1.13-.25c11.89-2.64,14.49-4.19,14.81-4.41,5.31-4.4,15.73-31.95,20.74-45.2,3.72-9.84,5.9-15.53,7.43-18.18l0-.06c4.77-8.16,14.57-17.6,21.39-20.59,2.83-1.26,6.94-1.39,14.62-.46,4.36.52,9.37,1.32,14.22,2.09,6.82,1.09,13.87,2.22,18.25,2.39,7.68.3,22.09-.8,30.7-1.46l1.68-.13c40.36-17.44,54.92-25,60-28.27,2-1.29,4.24-2.82,7-4.85,2-1.48,4-3,6.18-4.64,14.48-11,30.88-23.42,54.36-26.77,20.13-2.89,28.85,5.63,32.26,11,5.15,8,4.46,17.73,1.18,22.78-1.2,1.82-3.49,4.15-11.75,8.66l-.42.75-1.9.48c-8.74,4.64-20.31,9.9-29.64,14.15-6,2.74-11.2,5.11-13.24,6.23-2.21,1.21-4.87,2.78-7.68,4.45-1.41.84-2.87,1.71-4.35,2.57l-.59.34c-5.24,3.07-11.83,6.71-17.51,8.52-5,1.57-27.8,12.45-45.17,21.45.14.68.28,1.37.43,2.08.4,1.93.82,4,1.26,6.13,11.4-1.31,27.83-3.4,48-6.13l.32,0,.38,0,.14,0c.74-.11,1.4-.2,2-.27l1.21-.16.28,0c.5-.09.86-.13,1.05-.15,8.53-1.15,15-2,16.77-2.3,1.6-.51,3.25-1,4.87-1.48a365.3,365.3,0,0,1,51.14-11c29.53-4.1,34.31-.5,36.37,1,9.6,7.28,10,27.28,8.6,31.61-.44,1.34-1.45,4.45-11,9.72a72.21,72.21,0,0,1-17.64,6.9c-7.63,1.78-18.76,3.32-28.57,4.68-5.11.71-9.93,1.38-13.22,2l-.37.06c-1.08.19-2.18.37-3.26.54-2.72.44-5.48.85-8.15,1.24-4.4.66-10.44,1.55-11.76,2-2.44.9-6.16,1.1-13.68,1.42-1.43.06-2.93.12-4.47.2l-.19,0H320l-27.29,3.25a20.24,20.24,0,0,1,5.05,6.28c3.15,6.42,2.73,14.38,1.83,19.91-1,5.94-3.39,14.26-7.14,18.24-2.88,3-9.17,6.76-13.72,9.27a28,28,0,0,1-.51,13.23c-2.59,13.75-13.06,23.41-21.78,24.83-7.87,1.3-40.51-.7-47.36-1.14-.89,0-6.2-.12-12.7-.15h-.51c-8,0-18.94.1-24.46.68a98.36,98.36,0,0,1-23.87-.86l-1.35-.21a57.17,57.17,0,0,1-8.52-2c-4.79-1.6-10.06-6.92-17-14.27-1.17-1.24-2.63-2.78-3.71-3.86-11.81,2.81-64.24,18.2-97.13,28l-4.31,1.29L13,249.42a141.56,141.56,0,0,1-8.32-14.29Z"/><path class="cls-4" d="M301.8,37.6c-2.48,1.83-4.9,3.55-7.32,5.09-12.85,8.22-59.82,28.38-83.7,38.46-8.54,3.6-14.13,5.91-14.13,5.91s-46.76,30.49-52.46,43.76c-3.55,8.25,18,47.69,37.56,76.39,11.89,17.38,23.06,30.84,27.55,31.09,0,0,38.47,2.48,46.09,1.22s21.53-14,16-35.08l.14-.07c1.43-.73,12.93-6.71,16.43-10.36,2-2.13,4.42-8.25,5.5-14.95.94-5.74.87-11.85-1.27-16.21-3.57-7.23-15.86-11.17-21.47-12.61-1.52-.41-2.54-.63-2.78-.67,1.52-.19,33.16-3.68,43.46-4.6,2.63-.24,5.3-.4,7.93-.54a.3.3,0,0,1,.19,0c.07,0,.12,0,.15,0a.28.28,0,0,0,.13,0c7.74-.38,14.68-.48,16.78-1.26,2.5-.94,12.28-2.14,21.08-3.56,1.22-.18,2.41-.39,3.57-.59,9.49-1.64,30-3.88,41.43-6.55s23.38-10,24.2-12.52.45-19.56-6.46-24.8c-6.54-4.93-50.9,1.66-82,10.94q-2.7.78-5.25,1.6s-7.14,1-17.4,2.38c0,0-.32,0-.89.14-.4,0-1,.11-1.61.21s-1.17.15-1.87.25c-.3,0-.6.08-.93.11-25.74,3.48-64.53,8.51-67.64,7.69-4.7-1.23-7.95-6.26-5.57-9.84s57.15-30.58,66-33.37c5-1.58,11.07-4.91,16.82-8.29h0c4.47-2.61,8.76-5.23,12.18-7.11,5.57-3.06,29.08-13,43.51-20.71,0,0,.12-.06.16-.07s.05,0,.07,0H376a.21.21,0,0,1,.07,0c5.61-3,9.78-5.65,10.91-7.37,4-6.21,1.91-28.46-27.42-24.26C334.3,10.92,317.2,26.28,301.8,37.6Z"/><path class="cls-5" d="M250.9,89.88l-60,12.72-14.58,83.93,5.39,20.68c11.89,17.38,23.06,30.84,27.55,31.09,0,0,38.47,2.48,46.09,1.22l-7-9.46,11.57-.79-9.61-4.3s-7.46-2.31-8.32-3.71-5.92-24.61,6.17-29.57c0,0,18.05,7.56,23.21,12.75l.14-.07c1.43-.73,12.93-6.71,16.43-10.36,0,0-17.48-4.69-25.84-6s-11.61-33.42-4.95-39.74l13.55,1.93,48.8-5.8a.3.3,0,0,0-.19,0c-4.6,0-42.11.23-46.65-1.79-4.82-2.19-7-19.95-1.74-23.68,4.06-2.87,28.54-6.61,39.49-8.2-25.74,3.48-64.53,8.51-67.64,7.69-4.7-1.23-7.95-6.26-5.57-9.84s57.15-30.58,66-33.37c5-1.58,11.07-4.91,16.82-8.29Z"/><path class="cls-6" d="M301.8,37.6c-2.48,1.83-4.9,3.55-7.32,5.09-12.85,8.22-59.82,28.38-83.7,38.46l11.09,56.58,48.85,12.51c-1.52-.41-2.54-.63-2.78-.67,1.52-.19,33.16-3.68,43.46-4.6,2.63-.24,5.3-.4,7.93-.54a.3.3,0,0,1,.19,0c.07,0,.12,0,.15,0a.28.28,0,0,0,.13,0c7.74-.38,14.68-.48,16.78-1.26,2.5-.94,12.28-2.14,21.08-3.56l.31-.39s-19.11.66-23.7-4.33-9.68-19.57,3.84-28.57a3.53,3.53,0,0,0,.27-.23q-2.7.78-5.25,1.6s-7.14,1-17.4,2.38c0,0-.32,0-.89.14-.4,0-1,.11-1.61.21s-1.17.15-1.87.25c-.3,0-.6.08-.93.11-25.74,3.48-64.53,8.51-67.64,7.69-4.7-1.23-7.95-6.26-5.57-9.84s57.15-30.58,66-33.37c5-1.58,11.07-4.91,16.82-8.29h0c4.47-2.61,8.76-5.23,12.18-7.11,5.57-3.06,29.08-13,43.51-20.71-5,1.93-60.57,23.48-66.81,22.28C303.4,60.35,297.57,47.32,301.8,37.6Z"/><path class="cls-7" d="M4.64,170.81c5.17-.64,13.28-1.67,22.73-2.95h0c29.61-4,72.3-10.59,78.55-15.71,9.67-7.91,25.39-57.75,29.64-65.1l0,0c4.22-7.23,13.06-15.65,18.56-18.07,1.83-.81,6.11-.6,11.4,0,10.47,1.23,25,4.2,32.95,4.51,12,.48,37.92-2.19,39.61-2s9.51,7,10.94,11.21,3.73,16.19,7.68,35.12S268,151.2,268,155a4.06,4.06,0,0,1-1.2,2.44v0h0s0,0,0,0l-.23.21c-3,3-9.82,5.93-14.67,6.57-6.31.82-26.42-21.08-29-29.22S219,108.4,219,108.4s-12.79,3-14.13,3.5c-.57.23-2.69,9.17-5.67,20.66,0,.08,0,.14,0,.22-.77,2.92-1.6,6-2.47,9.11-3.8,13.81-8.48,28.75-13.18,36.42,0,0,16.14,51.23,25.83,60,0,0-5.7-.12-12.93-.15h-.06c-8.77,0-19.75.1-25.6.71a94.4,94.4,0,0,1-23.54-1h0a52.36,52.36,0,0,1-7.57-1.73c-6.06-2-18.55-18.13-20.95-18.83S18.05,245.94,18.05,245.94A150.62,150.62,0,0,1,4.64,220.31Z"/><path class="cls-6" d="M266.77,157.41l0,0h0Z"/><path class="cls-6" d="M183.47,178.31c4.7-7.67,9.38-22.61,13.18-36.42-7.35,22.27-22.76,40.4-22.76,40.4-4.75,28.76-18.55,47-26.72,55.53a94.4,94.4,0,0,0,23.54,1c5.85-.61,16.83-.7,25.6-.71h.06c7.23,0,12.93.15,12.93.15C199.61,229.54,183.47,178.31,183.47,178.31Z"/><path class="cls-6" d="M196.65,141.89a79.94,79.94,0,0,0,2.47-9.11C198.35,135.7,197.52,138.77,196.65,141.89Z"/><path class="cls-6" d="M165.56,69c7.78,17.33,34.14,42.46,34.14,42.46a55.78,55.78,0,0,1-.53,21.11c3-11.49,5.1-20.43,5.67-20.66,1.34-.5,14.13-3.5,14.13-3.5s1.21,18.48,3.83,26.63,22.72,30,29,29.22c4.85-.64,11.71-3.54,14.67-6.57-1.52,1.33-9,7.19-17.89,1.2-10-6.73-25.43-50-23.91-58.29s13.42-29.08,13.42-29.08c-1.69-.2-27.63,2.47-39.61,2C190.55,73.19,176,70.22,165.56,69Z"/><polygon class="cls-5" points="218.97 108.4 219.1 93.25 214.48 109.39 218.97 108.4"/><path class="cls-5" d="M219,108.4l-14.13,3.5s5.51,30-21.37,66.41c0,0,7.71,26.95,15.35,41.75l14.36,6.67,35.19,3.33,11.57-.79-15.35-4.35s-14.81-1.29-19.48-2.28-13.51-9.48-14.32-13.07,2.15-14.79,4.27-16.56,33.12-1.32,33.12-1.32,17.55,7.95,23.21,12.75c0,0-12.23-13.49-15.76-15.26s-33-2.81-37.06-7.15-4.25-16.3-2.64-20,18.26-10.85,18.26-10.85-9.91-12-11.39-16.12S219,108.4,219,108.4Z"/><path class="cls-8" d="M267.53,152.59c.66,2.33-8.58,6.52-11.81,3.07s-8.57-29.15-5-36.47S260.19,126.9,267.53,152.59Z"/><path class="cls-9" d="M255.1,154.78s-4-6-5.9-18.76,1-22.13,3.08-23.23,6.18,12.33,6.18,12.33-3.63-8.24-6.32-7.21S248.13,141.06,255.1,154.78Z"/><path class="cls-10" d="M266.78,149.68A30.36,30.36,0,0,1,254.29,153a9.06,9.06,0,0,0,1.79,3c1.19,1.2,9.31,1.52,11.45-3.4Z"/><path class="cls-10" d="M258.46,125.12s-.94,2.61-2.78,2.6-4.77-7.52-4.77-7.52.21-2.45,2.12-2.3S258.46,125.12,258.46,125.12Z"/><path class="cls-8" d="M216.23,194.06s-5.5,2.24-4.88,14.35c0,.53.66.94,1.69,1.21,3.21.9,10.13.52,14.22-1.45l.45-.25a5.87,5.87,0,0,0,.66-.35s.09,0,.11-.08c2.93-2.06,2.93-7.55-.7-10.93-2-1.86-5.07-3.08-9.37-2.76h-.07A16.62,16.62,0,0,0,216.23,194.06Z"/><path class="cls-8" d="M218.12,160.77a4.6,4.6,0,0,0-1.08.84c-1.57,1.84-4.17,10.41,1.39,16.65a2.63,2.63,0,0,0,.5.44,6.64,6.64,0,0,0,3.68.8l.07,0c5-.07,12.49-2.84,16.64-6.4a9.25,9.25,0,0,0,2.74-3.67c1.83-5.42-1.53-10.24-5.74-12l-.17-.06a9.48,9.48,0,0,0-2.24-.63,2.78,2.78,0,0,0-.58,0C228.66,156.33,221.12,158.89,218.12,160.77Z"/><path class="cls-5" d="M236.32,157.39l-1.47-.36c3.66,1.61,9.28,8.37,4.56,14.13-5,6.1-15.09,8.05-16.73,8.32,6.55-.1,17.65-4.91,19.38-10.07C243.89,164,240.53,159.17,236.32,157.39Z"/><path class="cls-5" d="M233.33,156.65l1.52.38a3,3,0,0,0-.94-.33A2.78,2.78,0,0,0,233.33,156.65Z"/><path class="cls-5" d="M218.41,193.8c2,.13,10.89,1,10.23,8.86-.72,8.63-15.1,7-15.6,7,3.51,1,11.51.47,15.33-2.05C233.06,204.48,230.63,192.87,218.41,193.8Z"/><path class="cls-10" d="M216.23,194.06s-5.5,2.24-4.88,14.35c0,.53.66.94,1.69,1.21C213,209.62,211.65,200.51,216.23,194.06Z"/><path class="cls-10" d="M218.12,160.77a4.6,4.6,0,0,0-1.08.84c-1.57,1.84-4.17,10.41,1.39,16.65a2.63,2.63,0,0,0,.5.44C218.09,176.18,215.71,167.81,218.12,160.77Z"/><path class="cls-11" d="M234.19,151.15s-12-11.55-14-16.1-2.32-24.59-15.35-23.15L219,108.4s1.68,20.14,3.83,26.63S234.19,151.15,234.19,151.15Z"/><path class="cls-11" d="M216.23,161.49s-2.1,1.14-3.42,15.54-4.18,29.76-3.36,33.53,14.08,11.53,14.08,11.53-12.76-9.29-12.74-12.52,2.15-14.17,4.27-16.56,24-1.38,24-1.38-12.47-3.27-18.23-8.27S213.14,166,216.23,161.49Z"/><path class="cls-11" d="M251.83,164.25s-7.71-.24-20.77-11.7l-1.9-7.3S238.48,158.25,251.83,164.25Z"/><path class="cls-12" d="M27.5,167.85c3.94.24,87.87,4.49,95.09-10.72s13-68.44,13-70.08c-4.25,7.35-20,57.19-29.64,65.1C99.69,157.27,57.1,163.82,27.5,167.85Z"/><path class="cls-12" d="M4.64,170.81c5.17-.64,13.28-1.67,22.73-2.95h0c29.61-4,72.3-10.59,78.55-15.71,9.67-7.91,25.39-57.75,29.64-65.1,0,0-10.85,78.58-7.1,106.76s11.09,42.29,11.09,42.29c-6.06-2-18.55-18.13-20.95-18.83S18.05,245.94,18.05,245.94A150.62,150.62,0,0,1,4.64,220.31Z"/><path class="cls-5" d="M135.58,87.05c-4.25,7.35-20,57.19-29.64,65.1l16.65,5C129.85,141.77,135.56,88.69,135.58,87.05Z"/><path class="cls-13" d="M149.87,199c-8.81,3.78-19.2-62-6.86-94.06,8.6-22.32,18.28-25.67,23.26-25.91s27.08,21.2,29.54,41S175.07,188.2,149.87,199Z"/><path class="cls-14" d="M165,189.48s30.94-18.36,39.8-77.58C204.84,111.9,209,168.7,165,189.48Z"/><path class="cls-15" d="M288.92,189.85s-2.3-18.91,1-27.3A29.72,29.72,0,0,1,288.92,189.85Z"/><path class="cls-15" d="M266.61,227.53s-2.56-14.57,4.78-23.09C271.39,204.44,277.46,218.34,266.61,227.53Z"/><path class="cls-15" d="M425.24,119.38s-6.61-14.15-4.84-24.25C420.4,95.13,428.87,107.67,425.24,119.38Z"/><path class="cls-15" d="M387,31.58S376.64,15.46,367.07,8.8c0,0,10.05-.43,15.36,5.31S387,31.58,387,31.58Z"/><path class="cls-16" d="M241.49,219.6a37.29,37.29,0,0,1-4.25-16.29c-.27-9.52,9.73-11,9.73-11S237.21,199.34,241.49,219.6Z"/><path class="cls-16" d="M258,184.39s-7.26-12.37-8.63-20.63a13.39,13.39,0,0,0,4.28,0S253.25,168.57,258,184.39Z"/><path class="cls-17" d="M238,221.65l-19.47-5.07s5.8,4.91,7.38,4.89S238,221.65,238,221.65Z"/><path class="cls-18" d="M137.51,111.06S136.7,93.61,139,89.58s10.63-17.85,16.27-19.45,37.33,3.76,37.33,3.76-28.37-2.63-35.95,1.53S139.26,94.78,137.51,111.06Z"/><path class="cls-18" d="M8.82,222.49s9,16,13.31,18.46S113.24,215,113.24,215,31.82,236.71,23.9,233.63,8.82,222.49,8.82,222.49Z"/><path class="cls-18" d="M198.1,234.46s-37,4.29-49.57,1.89-24.21-18-24.21-18a58,58,0,0,0,28.29,13.81C169.91,235.14,198.1,234.46,198.1,234.46Z"/><path class="cls-18" d="M422.15,121.33s-6.75,5.36-22.7,8.86-64.27,10.67-64.27,10.67S417.44,122.74,422.15,121.33Z"/><path class="cls-18" d="M361.94,10.14s-41.56,15.57-60,32c0,0,15.18-16.42,33.37-25.05S361.94,10.14,361.94,10.14Z"/><path class="cls-18" d="M4.64,173.65c25-2.15,94-14.68,94-14.68-36.79,13.22-82.55,14.71-94,14.87Z"/><path class="cls-18" d="M254.93,111.55S249.1,99,248.27,92s.79-9.28.79-9.28Z"/><path class="cls-8" d="M238.12,71.51s-.06,6.56,2.89,10.69,8.05.52,8.05.52S245.91,77,238.12,71.51Z"/><path class="cls-5" d="M251.83,164.25l3.13-2.48s10.26-2.07,13-6.8C268,155,267.41,161.34,251.83,164.25Z"/></g></g></svg>